<svg xmlns="http://www.w3.org/2000/svg" viewBox="0 0 512 512"><rect width="512" height="512" fill="#131B16"/><path fill="#D8E8D3" d="M104 136h304a28 28 0 0 1 28 28v52a40 40 0 0 0 0 80v52a28 28 0 0 1-28 28H104a28 28 0 0 1-28-28v-52a40 40 0 0 0 0-80v-52a28 28 0 0 1 28-28z"/><g fill="#131B16"><circle cx="318" cy="160" r="6"/><circle cx="318" cy="184" r="6"/><circle cx="318" cy="208" r="6"/><circle cx="318" cy="232" r="6"/><circle cx="318" cy="256" r="6"/><circle cx="318" cy="280" r="6"/><circle cx="318" cy="304" r="6"/><circle cx="318" cy="328" r="6"/><circle cx="318" cy="352" r="6"/></g><circle cx="190" cy="236" r="46" fill="#131B16"/><rect x="124" y="316" width="132" height="16" rx="8" fill="#B0241A"/></svg>