  <svg xmlns:xlink="http://www.w3.org/1999/xlink" width="403.2pt" height="338.4pt" viewBox="0 0 403.2 338.4" xmlns="http://www.w3.org/2000/svg" version="1.1"><defs><style type="text/css">*{stroke-linejoin: round; stroke-linecap: butt}</style></defs><g id="figure_1"><g id="patch_1"><path d="M 0 338.4 L 403.2 338.4 L 403.2 0 L 0 0 L 0 338.4 z" style="fill: none"/></g><g id="axes_1"><g id="patch_2"><path d="M 74.5 304.5 L 385.0 304.5 L 385.0 5.0 L 74.5 5.0 L 74.5 304.5 z" style="fill: none"/></g><g id="line2d_1"><path d="M 74.5 91.8 L 385.0 91.8" clip-path="url(#p3759465bfd)" style="fill: none; stroke-dasharray: 3.6,2.7; stroke-dashoffset: 0; stroke: #7c8f80; stroke-width: 0.9"/></g><g id="line2d_2"><path d="M 74.5 157.9 L 385.0 157.9" clip-path="url(#p3759465bfd)" style="fill: none; stroke-dasharray: 3.6,2.7; stroke-dashoffset: 0; stroke: #7c8f80; stroke-width: 0.9"/></g><g id="line2d_3"><path d="M 74.5 176.5 L 385.0 176.5" clip-path="url(#p3759465bfd)" style="fill: none; stroke-dasharray: 3.6,2.7; stroke-dashoffset: 0; stroke: #7c8f80; stroke-width: 0.9"/></g><g id="line2d_4"><path d="M 74.5 238.4 L 385.0 238.4" clip-path="url(#p3759465bfd)" style="fill: none; stroke-dasharray: 3.6,2.7; stroke-dashoffset: 0; stroke: #7c8f80; stroke-width: 0.9"/></g><g id="line2d_5"><path d="M 74.5 265.3 L 385.0 265.3" clip-path="url(#p3759465bfd)" style="fill: none; stroke-dasharray: 3.6,2.7; stroke-dashoffset: 0; stroke: #7c8f80; stroke-width: 0.9"/></g><g id="FillBetweenPolyCollection_1"><defs><path id="mdfc23d10b1" d="M 77.0 -73.0 L 77.0 -271.3 L 80.4 -246.5 L 91.2 -73.0 L 92.9 -96.0 L 94.6 -116.9 L 96.2 -135.5 L 97.9 -152.1 L 99.6 -166.6 L 101.2 -179.0 L 102.9 -189.5 L 104.6 -198.1 L 106.3 -204.9 L 107.9 -209.9 L 109.6 -213.2 L 111.3 -215.0 L 112.9 -215.5 L 117.9 -215.5 L 138.8 -73.0 L 141.3 -73.0 L 142.8 -93.4 L 144.4 -111.8 L 145.9 -128.3 L 147.5 -142.9 L 149.0 -155.7 L 150.6 -166.7 L 152.1 -176.0 L 153.6 -183.6 L 155.2 -189.6 L 156.7 -194.0 L 158.3 -197.0 L 159.8 -198.6 L 161.3 -199.0 L 166.3 -199.0 L 185.5 -73.0 L 191.4 -73.0 L 192.8 -88.9 L 194.2 -103.2 L 195.6 -116.1 L 197.0 -127.5 L 198.4 -137.4 L 199.9 -146.0 L 201.3 -153.2 L 202.7 -159.2 L 204.1 -163.8 L 205.5 -167.2 L 206.9 -169.5 L 208.3 -170.8 L 209.7 -171.1 L 214.8 -171.1 L 234.8 -132.9 L 237.3 -73.0 L 237.3 -73.0 L 238.4 -77.6 L 239.6 -73.0 L 240.8 -77.6 L 241.9 -73.0 L 243.1 -77.6 L 244.2 -73.0 L 245.4 -77.6 L 246.6 -73.0 L 247.7 -77.6 L 248.9 -73.0 L 250.0 -77.6 L 251.2 -73.0 L 252.4 -77.6 L 253.5 -73.0 L 254.7 -77.6 L 255.8 -73.0 L 257.0 -77.6 L 258.1 -73.0 L 266.5 -130.9 L 273.2 -130.9 L 279.8 -73.0 L 281.5 -73.0 L 286.5 -126.7 L 291.5 -126.7 L 295.7 -168.0 L 300.7 -168.0 L 304.1 -230.0 L 307.4 -230.0 L 309.1 -73.0 L 311.6 -73.0 L 315.7 -126.7 L 320.7 -126.7 L 324.9 -73.0 L 327.4 -73.0 L 331.6 -126.7 L 336.6 -126.7 L 340.8 -73.0 L 343.3 -73.0 L 347.4 -126.7 L 352.5 -126.7 L 356.6 -73.0 L 358.3 -73.0 L 359.4 -77.6 L 360.5 -73.0 L 361.6 -77.6 L 362.8 -73.0 L 363.9 -77.6 L 365.0 -73.0 L 366.1 -77.6 L 367.2 -73.0 L 368.3 -77.6 L 369.4 -73.0 L 370.5 -77.6 L 371.7 -73.0 L 372.8 -77.6 L 373.9 -73.0 L 375.0 -77.6 L 376.1 -73.0 L 377.2 -77.6 L 378.3 -73.0 L 382.5 -73.0 L 382.5 -73.0 L 382.5 -73.0 L 378.3 -73.0 L 377.2 -73.0 L 376.1 -73.0 L 375.0 -73.0 L 373.9 -73.0 L 372.8 -73.0 L 371.7 -73.0 L 370.5 -73.0 L 369.4 -73.0 L 368.3 -73.0 L 367.2 -73.0 L 366.1 -73.0 L 365.0 -73.0 L 363.9 -73.0 L 362.8 -73.0 L 361.6 -73.0 L 360.5 -73.0 L 359.4 -73.0 L 358.3 -73.0 L 356.6 -73.0 L 352.5 -73.0 L 347.4 -73.0 L 343.3 -73.0 L 340.8 -73.0 L 336.6 -73.0 L 331.6 -73.0 L 327.4 -73.0 L 324.9 -73.0 L 320.7 -73.0 L 315.7 -73.0 L 311.6 -73.0 L 309.1 -73.0 L 307.4 -73.0 L 304.1 -73.0 L 300.7 -73.0 L 295.7 -73.0 L 291.5 -73.0 L 286.5 -73.0 L 281.5 -73.0 L 279.8 -73.0 L 273.2 -73.0 L 266.5 -73.0 L 258.1 -73.0 L 257.0 -73.0 L 255.8 -73.0 L 254.7 -73.0 L 253.5 -73.0 L 252.4 -73.0 L 251.2 -73.0 L 250.0 -73.0 L 248.9 -73.0 L 247.7 -73.0 L 246.6 -73.0 L 245.4 -73.0 L 244.2 -73.0 L 243.1 -73.0 L 241.9 -73.0 L 240.8 -73.0 L 239.6 -73.0 L 238.4 -73.0 L 237.3 -73.0 L 237.3 -73.0 L 234.8 -73.0 L 214.8 -73.0 L 209.7 -73.0 L 208.3 -73.0 L 206.9 -73.0 L 205.5 -73.0 L 204.1 -73.0 L 202.7 -73.0 L 201.3 -73.0 L 199.9 -73.0 L 198.4 -73.0 L 197.0 -73.0 L 195.6 -73.0 L 194.2 -73.0 L 192.8 -73.0 L 191.4 -73.0 L 185.5 -73.0 L 166.3 -73.0 L 161.3 -73.0 L 159.8 -73.0 L 158.3 -73.0 L 156.7 -73.0 L 155.2 -73.0 L 153.6 -73.0 L 152.1 -73.0 L 150.6 -73.0 L 149.0 -73.0 L 147.5 -73.0 L 145.9 -73.0 L 144.4 -73.0 L 142.8 -73.0 L 141.3 -73.0 L 138.8 -73.0 L 117.9 -73.0 L 112.9 -73.0 L 111.3 -73.0 L 109.6 -73.0 L 107.9 -73.0 L 106.3 -73.0 L 104.6 -73.0 L 102.9 -73.0 L 101.2 -73.0 L 99.6 -73.0 L 97.9 -73.0 L 96.2 -73.0 L 94.6 -73.0 L 92.9 -73.0 L 91.2 -73.0 L 80.4 -73.0 L 77.0 -73.0 z"/></defs><g clip-path="url(#p3759465bfd)"><use xlink:href="#mdfc23d10b1" x="0" y="338.4" style="fill: #8e3b46; fill-opacity: 0.07"/></g></g><g id="matplotlib.axis_1"><g id="text_1"><g style="fill: #0d2418" transform="translate(182.971188 317.166406) scale(0.13 -0.13)"><defs><path id="AnekLatin-Medium-54" d="M 1402 0 L 1402 3978 L 2045 3978 L 2045 0 L 1402 0 z M 198 3552 L 198 4090 L 3245 4090 L 3245 3552 L 198 3552 z" transform="scale(0.015625)"/><path id="AnekLatin-Medium-69" d="M 406 0 L 406 3130 L 1034 3130 L 1034 0 L 406 0 z M 720 3590 Q 534 3590 443 3684 Q 352 3779 352 3946 L 352 3958 Q 352 4125 443 4219 Q 534 4314 720 4314 Q 906 4314 997 4219 Q 1088 4125 1088 3958 L 1088 3946 Q 1088 3776 997 3683 Q 906 3590 720 3590 z" transform="scale(0.015625)"/><path id="AnekLatin-Medium-6d" d="M 4285 0 L 4285 1949 Q 4285 2170 4229 2334 Q 4173 2499 4043 2588 Q 3914 2678 3693 2678 Q 3482 2678 3328 2595 Q 3174 2512 3080 2371 Q 2986 2230 2944 2051 L 2861 2486 L 2934 2486 Q 2992 2675 3110 2838 Q 3229 3002 3430 3101 Q 3632 3200 3939 3200 Q 4285 3200 4499 3064 Q 4714 2928 4813 2664 Q 4912 2400 4912 2019 L 4912 0 L 4285 0 z M 397 0 L 397 3130 L 1024 3130 L 998 2397 L 1024 2358 L 1024 0 L 397 0 z M 2342 0 L 2342 1949 Q 2342 2170 2286 2334 Q 2230 2499 2100 2588 Q 1971 2678 1750 2678 Q 1539 2678 1385 2595 Q 1232 2512 1137 2371 Q 1043 2230 1002 2051 L 899 2486 L 1034 2486 Q 1085 2685 1201 2846 Q 1318 3008 1513 3104 Q 1709 3200 1994 3200 Q 2429 3200 2653 2976 Q 2877 2752 2934 2323 Q 2950 2262 2958 2185 Q 2966 2109 2966 2035 L 2966 0 L 2342 0 z" transform="scale(0.015625)"/><path id="AnekLatin-Medium-65" d="M 1770 -74 Q 1021 -74 648 283 Q 275 640 275 1312 L 275 1824 Q 275 2486 622 2849 Q 970 3213 1635 3213 Q 2086 3213 2387 3048 Q 2688 2883 2838 2582 Q 2989 2282 2989 1869 L 2989 1750 Q 2989 1642 2979 1530 Q 2970 1418 2954 1315 L 2378 1315 Q 2384 1482 2385 1629 Q 2387 1776 2387 1898 Q 2387 2157 2304 2336 Q 2221 2515 2054 2609 Q 1888 2704 1635 2704 Q 1261 2704 1078 2491 Q 896 2278 896 1885 L 896 1590 L 899 1517 L 899 1238 Q 899 1062 952 918 Q 1005 774 1121 670 Q 1238 566 1424 510 Q 1610 454 1875 454 Q 2176 454 2440 531 Q 2704 608 2938 736 L 2880 202 Q 2669 77 2389 1 Q 2109 -74 1770 -74 z M 608 1315 L 608 1786 L 2826 1786 L 2826 1315 L 608 1315 z" transform="scale(0.015625)"/><path id="AnekLatin-Medium-20" transform="scale(0.015625)"/><path id="AnekLatin-Medium-28" d="M 1021 1946 L 1021 1603 Q 1021 1130 1101 715 Q 1181 301 1350 -68 Q 1520 -438 1782 -781 L 1130 -781 Q 883 -461 724 -102 Q 566 256 491 672 Q 416 1088 416 1584 L 416 1962 Q 416 2454 493 2868 Q 570 3283 730 3643 Q 890 4003 1136 4323 L 1782 4323 Q 1520 3984 1350 3614 Q 1181 3245 1101 2832 Q 1021 2419 1021 1946 z" transform="scale(0.015625)"/><path id="AnekLatin-Medium-73" d="M 1408 -74 Q 1030 -74 745 4 Q 461 83 269 176 L 211 749 Q 448 630 733 542 Q 1018 454 1373 454 Q 1715 454 1880 555 Q 2045 656 2045 854 L 2045 880 Q 2045 1008 1977 1093 Q 1910 1178 1739 1245 Q 1568 1312 1254 1382 Q 861 1472 633 1593 Q 406 1715 308 1892 Q 211 2070 211 2320 L 211 2349 Q 211 2771 505 2988 Q 800 3206 1389 3206 Q 1760 3206 2035 3126 Q 2310 3046 2490 2944 L 2547 2422 Q 2333 2538 2059 2616 Q 1786 2694 1453 2694 Q 1226 2694 1088 2651 Q 950 2608 889 2529 Q 829 2451 829 2342 L 829 2320 Q 829 2202 893 2114 Q 957 2026 1121 1957 Q 1286 1888 1581 1824 Q 1978 1741 2214 1629 Q 2451 1517 2556 1342 Q 2662 1168 2662 893 L 2662 845 Q 2662 387 2348 156 Q 2035 -74 1408 -74 z" transform="scale(0.015625)"/><path id="AnekLatin-Medium-63" d="M 1648 -74 Q 950 -74 612 296 Q 275 666 275 1341 L 275 1792 Q 275 2470 614 2838 Q 954 3206 1648 3206 Q 1840 3206 2001 3171 Q 2163 3136 2294 3080 Q 2426 3024 2518 2963 L 2573 2426 Q 2419 2534 2217 2609 Q 2016 2685 1747 2685 Q 1318 2685 1112 2453 Q 906 2221 906 1779 L 906 1357 Q 906 925 1112 691 Q 1318 458 1747 458 Q 2019 458 2227 533 Q 2435 608 2602 717 L 2547 173 Q 2400 80 2171 3 Q 1942 -74 1648 -74 z" transform="scale(0.015625)"/><path id="AnekLatin-Medium-68" d="M 2470 0 L 2470 1933 Q 2470 2160 2408 2326 Q 2346 2493 2203 2585 Q 2061 2678 1814 2678 Q 1587 2678 1422 2595 Q 1258 2512 1155 2371 Q 1053 2230 1008 2051 L 883 2486 L 1040 2486 Q 1094 2685 1219 2846 Q 1344 3008 1552 3104 Q 1760 3200 2061 3200 Q 2429 3200 2656 3061 Q 2883 2922 2990 2656 Q 3098 2390 3098 2003 L 3098 0 L 2470 0 z M 397 0 L 397 4237 L 1021 4237 L 1021 3238 L 1005 2336 L 1024 2291 L 1024 0 L 397 0 z" transform="scale(0.015625)"/><path id="AnekLatin-Medium-61" d="M 2237 0 L 2262 742 L 2240 838 L 2240 1824 L 2243 1981 Q 2243 2342 2059 2512 Q 1875 2682 1469 2682 Q 1139 2682 857 2589 Q 576 2496 349 2374 L 406 2899 Q 534 2973 707 3043 Q 880 3114 1097 3158 Q 1315 3203 1574 3203 Q 1930 3203 2176 3118 Q 2422 3034 2572 2874 Q 2723 2714 2792 2490 Q 2861 2266 2861 1990 L 2861 0 L 2237 0 z M 1178 -70 Q 714 -70 467 158 Q 221 387 221 810 L 221 906 Q 221 1354 497 1570 Q 774 1786 1370 1869 L 2310 2003 L 2346 1549 L 1443 1421 Q 1120 1376 982 1265 Q 845 1155 845 941 L 845 896 Q 845 682 977 566 Q 1110 451 1382 451 Q 1632 451 1811 534 Q 1990 618 2102 757 Q 2214 896 2256 1066 L 2342 646 L 2227 646 Q 2176 454 2057 291 Q 1939 128 1726 29 Q 1514 -70 1178 -70 z" transform="scale(0.015625)"/><path id="AnekLatin-Medium-74" d="M 1562 -64 Q 1187 -64 960 49 Q 733 163 630 392 Q 528 621 528 963 L 528 2877 L 1149 2877 L 1149 1037 Q 1149 749 1280 614 Q 1411 480 1722 480 Q 1907 480 2076 518 Q 2246 557 2390 627 L 2336 96 Q 2182 19 1980 -22 Q 1779 -64 1562 -64 z M 38 2592 L 38 3091 L 2362 3091 L 2307 2592 L 38 2592 z M 534 3037 L 531 3898 L 1158 3971 L 1133 3037 L 534 3037 z" transform="scale(0.015625)"/><path id="AnekLatin-Medium-29" d="M 896 1946 Q 896 2419 816 2832 Q 736 3245 568 3614 Q 400 3984 134 4323 L 781 4323 Q 1027 4003 1187 3643 Q 1347 3283 1424 2868 Q 1501 2454 1501 1962 L 1501 1584 Q 1501 1088 1425 672 Q 1350 256 1193 -102 Q 1037 -461 787 -781 L 134 -781 Q 400 -438 568 -68 Q 736 301 816 715 Q 896 1130 896 1603 L 896 1946 z" transform="scale(0.015625)"/></defs><use xlink:href="#AnekLatin-Medium-54"/><use xlink:href="#AnekLatin-Medium-69" transform="translate(53.800003 0)"/><use xlink:href="#AnekLatin-Medium-6d" transform="translate(76.300003 0)"/><use xlink:href="#AnekLatin-Medium-65" transform="translate(158.650009 0)"/><use xlink:href="#AnekLatin-Medium-20" transform="translate(209.250015 0)"/><use xlink:href="#AnekLatin-Medium-28" transform="translate(230.050018 0)"/><use xlink:href="#AnekLatin-Medium-73" transform="translate(259.900024 0)"/><use xlink:href="#AnekLatin-Medium-63" transform="translate(304.500031 0)"/><use xlink:href="#AnekLatin-Medium-68" transform="translate(348.15004 0)"/><use xlink:href="#AnekLatin-Medium-65" transform="translate(402.15004 0)"/><use xlink:href="#AnekLatin-Medium-6d" transform="translate(452.750046 0)"/><use xlink:href="#AnekLatin-Medium-61" transform="translate(535.100052 0)"/><use xlink:href="#AnekLatin-Medium-74" transform="translate(585.200058 0)"/><use xlink:href="#AnekLatin-Medium-69" transform="translate(624.750061 0)"/><use xlink:href="#AnekLatin-Medium-63" transform="translate(647.250061 0)"/><use xlink:href="#AnekLatin-Medium-29" transform="translate(690.90007 0)"/></g></g></g><g id="matplotlib.axis_2"><g id="text_2"><g style="fill: #0d2418" transform="translate(18.024394 191.300266) rotate(-90) scale(0.13 -0.13)"><defs><path id="AnekLatin-Medium-70" d="M 2026 -70 Q 1747 -70 1547 18 Q 1347 106 1222 267 Q 1098 429 1040 643 L 832 643 L 1008 1235 Q 1018 973 1120 798 Q 1222 624 1403 537 Q 1584 451 1821 451 Q 2182 451 2374 660 Q 2566 870 2566 1277 L 2566 1875 Q 2566 2275 2376 2483 Q 2186 2691 1821 2691 Q 1603 2691 1433 2608 Q 1264 2525 1153 2382 Q 1043 2240 998 2058 L 851 2486 L 1034 2486 Q 1088 2685 1206 2846 Q 1325 3008 1531 3104 Q 1738 3200 2051 3200 Q 2611 3200 2904 2848 Q 3197 2496 3197 1821 L 3197 1325 Q 3197 643 2902 286 Q 2608 -70 2026 -70 z M 397 -1101 L 397 3130 L 1024 3130 L 998 2397 L 1008 2211 L 1008 899 L 1005 778 L 1021 -109 L 1021 -1101 L 397 -1101 z" transform="scale(0.015625)"/><path id="AnekLatin-Medium-72" d="M 998 1891 L 864 2381 L 1018 2381 Q 1117 2752 1350 2965 Q 1584 3178 1987 3178 Q 2083 3178 2158 3163 Q 2234 3149 2294 3130 L 2333 2518 Q 2256 2544 2160 2558 Q 2064 2573 1952 2573 Q 1610 2573 1360 2397 Q 1110 2221 998 1891 z M 397 0 L 397 3130 L 1008 3130 L 979 2218 L 1024 2173 L 1024 0 L 397 0 z" transform="scale(0.015625)"/><path id="AnekLatin-Medium-75" d="M 986 3130 L 986 1197 Q 986 973 1048 805 Q 1110 637 1254 544 Q 1398 451 1642 451 Q 1872 451 2037 534 Q 2202 618 2307 760 Q 2413 902 2454 1078 L 2557 643 L 2422 643 Q 2368 448 2243 285 Q 2118 122 1910 26 Q 1702 -70 1395 -70 Q 1030 -70 801 69 Q 573 208 465 475 Q 358 742 358 1126 L 358 3130 L 986 3130 z M 3059 3130 L 3059 0 L 2432 0 L 2458 733 L 2432 771 L 2432 3130 L 3059 3130 z" transform="scale(0.015625)"/></defs><use xlink:href="#AnekLatin-Medium-54"/><use xlink:href="#AnekLatin-Medium-65" transform="translate(53.800003 0)"/><use xlink:href="#AnekLatin-Medium-6d" transform="translate(104.400009 0)"/><use xlink:href="#AnekLatin-Medium-70" transform="translate(186.750015 0)"/><use xlink:href="#AnekLatin-Medium-65" transform="translate(241.050018 0)"/><use xlink:href="#AnekLatin-Medium-72" transform="translate(291.650024 0)"/><use xlink:href="#AnekLatin-Medium-61" transform="translate(329.350021 0)"/><use xlink:href="#AnekLatin-Medium-74" transform="translate(379.450027 0)"/><use xlink:href="#AnekLatin-Medium-75" transform="translate(419.000031 0)"/><use xlink:href="#AnekLatin-Medium-72" transform="translate(473.000031 0)"/><use xlink:href="#AnekLatin-Medium-65" transform="translate(510.700027 0)"/></g></g></g><g id="line2d_6"><path d="M 78.7 29.8 L 78.7 68.0" clip-path="url(#p3759465bfd)" style="fill: none; stroke: #35513f; stroke-width: 0.8; stroke-linecap: round"/></g><g id="line2d_7"><path d="M 115.4 50.5 L 115.4 119.7" clip-path="url(#p3759465bfd)" style="fill: none; stroke: #35513f; stroke-width: 0.8; stroke-linecap: round"/></g><g id="line2d_8"><path d="M 163.8 71.1 L 163.8 136.2" clip-path="url(#p3759465bfd)" style="fill: none; stroke: #35513f; stroke-width: 0.8; stroke-linecap: round"/></g><g id="line2d_9"><path d="M 212.2 29.8 L 212.2 164.1" clip-path="url(#p3759465bfd)" style="fill: none; stroke: #35513f; stroke-width: 0.8; stroke-linecap: round"/></g><g id="line2d_10"><path d="M 269.0 71.1 L 269.0 204.3" clip-path="url(#p3759465bfd)" style="fill: none; stroke: #35513f; stroke-width: 0.8; stroke-linecap: round"/></g><g id="line2d_11"><path d="M 292.4 143.4 L 298.2 167.2" clip-path="url(#p3759465bfd)" style="fill: none; stroke: #35513f; stroke-width: 0.8; stroke-linecap: round"/></g><g id="line2d_12"><path d="M 281.5 281.8 L 281.5 285.9 L 309.1 285.9 L 309.1 281.8" clip-path="url(#p3759465bfd)" style="fill: none; stroke: #b0241a; stroke-width: 1.1; stroke-linecap: round"/></g><g id="patch_3"><path d="M 74.5 304.5 L 74.5 5.0" style="fill: none; stroke: #35513f; stroke-linejoin: miter; stroke-linecap: square"/></g><g id="patch_4"><path d="M 74.5 304.5 L 385.0 304.5" style="fill: none; stroke: #35513f; stroke-linejoin: miter; stroke-linecap: square"/></g><g id="line2d_13"><path d="M 77.0 67.0 L 80.4 91.8 L 91.2 265.3 L 92.9 242.3 L 94.6 221.4 L 96.2 202.8 L 97.9 186.2 L 99.6 171.7 L 101.2 159.3 L 102.9 148.8 L 104.6 140.2 L 106.3 133.4 L 107.9 128.4 L 109.6 125.1 L 111.3 123.3 L 112.9 122.8 L 117.9 122.8 L 138.8 265.3 L 141.3 265.3 L 142.8 244.9 L 144.4 226.5 L 145.9 210.0 L 147.5 195.4 L 149.0 182.6 L 150.6 171.6 L 152.1 162.3 L 153.6 154.7 L 155.2 148.7 L 156.7 144.3 L 158.3 141.3 L 159.8 139.7 L 161.3 139.3 L 166.3 139.3 L 185.5 265.3 L 191.4 265.3 L 192.8 249.4 L 194.2 235.1 L 195.6 222.2 L 197.0 210.8 L 198.4 200.9 L 199.9 192.3 L 201.3 185.1 L 202.7 179.1 L 204.1 174.5 L 205.5 171.1 L 206.9 168.8 L 208.3 167.5 L 209.7 167.2 L 214.8 167.2 L 234.8 205.4 L 237.3 265.3 L 237.3 265.3 L 238.4 260.7 L 239.6 265.3 L 240.8 260.7 L 241.9 265.3 L 243.1 260.7 L 244.2 265.3 L 245.4 260.7 L 246.6 265.3 L 247.7 260.7 L 248.9 265.3 L 250.0 260.7 L 251.2 265.3 L 252.4 260.7 L 253.5 265.3 L 254.7 260.7 L 255.8 265.3 L 257.0 260.7 L 258.1 265.3 L 266.5 207.4 L 273.2 207.4 L 279.8 265.3 L 281.5 265.3 L 286.5 211.6 L 291.5 211.6 L 295.7 170.3 L 300.7 170.3 L 304.1 108.3 L 307.4 108.3 L 309.1 265.3 L 311.6 265.3 L 315.7 211.6 L 320.7 211.6 L 324.9 265.3 L 327.4 265.3 L 331.6 211.6 L 336.6 211.6 L 340.8 265.3 L 343.3 265.3 L 347.4 211.6 L 352.5 211.6 L 356.6 265.3 L 358.3 265.3 L 359.4 260.7 L 360.5 265.3 L 361.6 260.7 L 362.8 265.3 L 363.9 260.7 L 365.0 265.3 L 366.1 260.7 L 367.2 265.3 L 368.3 260.7 L 369.4 265.3 L 370.5 260.7 L 371.7 265.3 L 372.8 260.7 L 373.9 265.3 L 375.0 260.7 L 376.1 265.3 L 377.2 260.7 L 378.3 265.3 L 382.5 265.3" clip-path="url(#p3759465bfd)" style="fill: none; stroke: #8e3b46; stroke-width: 2; stroke-linecap: round"/></g><g id="line2d_14"><path d="M 307.4 108.3 L 309.1 265.3" clip-path="url(#p3759465bfd)" style="fill: none; stroke: #b0241a; stroke-width: 2.2; stroke-linecap: round"/></g><g id="patch_5"><path d="M 378.3 265.3 Q 381.3 265.3 381.9 265.3" clip-path="url(#p3759465bfd)" style="fill: none; stroke: #8e3b46; stroke-width: 2; stroke-linecap: round"/><path d="M 377.5 263.1 L 381.9 265.3 L 377.5 267.5 z" clip-path="url(#p3759465bfd)" style="fill: #8e3b46; stroke: #8e3b46; stroke-width: 2; stroke-linecap: round"/></g><g id="line2d_15"><path d="M 308.9 256.0" clip-path="url(#p3759465bfd)" style="fill: none; stroke: #b0241a; stroke-width: 1.8; stroke-linecap: round"/><defs><path id="m9bab81717a" d="M -0 4 L 4 -4 L -4 -4 z" style="stroke: #b0241a; stroke-linejoin: miter"/></defs><g clip-path="url(#p3759465bfd)"><use xlink:href="#m9bab81717a" x="308.942245" y="256.022938" style="fill: #b0241a; stroke: #b0241a; stroke-linejoin: miter"/></g></g><g id="text_3"><g style="fill: #35513f" transform="translate(64.818237 53.335147) scale(0.115 -0.115)"><defs><path id="AnekLatin-Regular-4c" d="M 1014 0 L 483 0 L 483 4090 L 1014 4090 L 1014 0 z M 768 451 L 2925 451 L 2925 0 L 768 0 L 768 451 z" transform="scale(0.015625)"/></defs><use xlink:href="#AnekLatin-Regular-4c"/></g></g><g id="text_4"><g style="fill: #35513f" transform="translate(47.311284 127.689795) scale(0.115 -0.115)"><defs><path id="AnekLatin-Regular-41" d="M 157 0 L 1437 4090 L 2275 4090 L 3558 0 L 3021 0 L 1898 3731 L 1818 3731 L 694 0 L 157 0 z M 925 1206 L 925 1648 L 2787 1648 L 2787 1206 L 925 1206 z" transform="scale(0.015625)"/><path id="AnekLatin-Regular-20" transform="scale(0.015625)"/><path id="AnekLatin-Regular-2b" d="M 1827 643 L 1379 643 L 1379 3338 L 1827 3338 L 1827 643 z M 333 1779 L 333 2202 L 2874 2202 L 2874 1779 L 333 1779 z" transform="scale(0.015625)"/><path id="AnekLatin-Regular-43" d="M 1850 -74 Q 1091 -74 712 352 Q 333 778 333 1562 L 333 2531 Q 333 3315 710 3739 Q 1088 4163 1843 4163 Q 2086 4163 2286 4118 Q 2486 4074 2643 4003 Q 2800 3933 2909 3856 L 2954 3363 Q 2765 3498 2510 3598 Q 2256 3699 1914 3699 Q 1398 3699 1136 3393 Q 874 3088 874 2525 L 874 1581 Q 874 1021 1139 712 Q 1405 403 1933 403 Q 2272 403 2533 502 Q 2794 602 2986 746 L 2941 240 Q 2832 163 2672 89 Q 2512 16 2305 -29 Q 2099 -74 1850 -74 z" transform="scale(0.015625)"/></defs><use xlink:href="#AnekLatin-Regular-41"/><use xlink:href="#AnekLatin-Regular-20" transform="translate(58.050003 0)"/><use xlink:href="#AnekLatin-Regular-2b" transform="translate(79.100006 0)"/><use xlink:href="#AnekLatin-Regular-20" transform="translate(129.150009 0)"/><use xlink:href="#AnekLatin-Regular-43" transform="translate(150.200012 0)"/></g></g><g id="text_5"><g style="fill: #35513f" transform="translate(30.959722 170.030637) scale(0.115 -0.115)"><defs><path id="AnekLatin-Regular-46" d="M 483 0 L 483 4090 L 1014 4090 L 1014 0 L 483 0 z M 784 1712 L 784 2157 L 2893 2157 L 2893 1712 L 784 1712 z M 637 3645 L 637 4090 L 2941 4090 L 2941 3645 L 637 3645 z" transform="scale(0.015625)"/></defs><use xlink:href="#AnekLatin-Regular-41"/><use xlink:href="#AnekLatin-Regular-20" transform="translate(58.050003 0)"/><use xlink:href="#AnekLatin-Regular-2b" transform="translate(79.100006 0)"/><use xlink:href="#AnekLatin-Regular-20" transform="translate(129.150009 0)"/><use xlink:href="#AnekLatin-Regular-46" transform="translate(150.200012 0)"/><use xlink:href="#AnekLatin-Regular-20" transform="translate(200.250015 0)"/><use xlink:href="#AnekLatin-Regular-2b" transform="translate(221.300018 0)"/><use xlink:href="#AnekLatin-Regular-20" transform="translate(271.350021 0)"/><use xlink:href="#AnekLatin-Regular-43" transform="translate(292.400024 0)"/></g></g><g id="text_6"><g style="fill: #35513f" transform="translate(48.231284 210.306071) scale(0.115 -0.115)"><use xlink:href="#AnekLatin-Regular-46"/><use xlink:href="#AnekLatin-Regular-20" transform="translate(50.050003 0)"/><use xlink:href="#AnekLatin-Regular-2b" transform="translate(71.100006 0)"/><use xlink:href="#AnekLatin-Regular-20" transform="translate(121.150009 0)"/><use xlink:href="#AnekLatin-Regular-43" transform="translate(142.200012 0)"/></g></g><g id="text_7"><g style="fill: #35513f" transform="translate(57.884097 241.287175) scale(0.115 -0.115)"><defs><path id="AnekLatin-Regular-4d" d="M 416 0 L 573 4090 L 1395 4090 L 2365 1133 L 2410 1133 L 3379 4090 L 4205 4090 L 4362 0 L 3846 0 L 3789 1725 L 3734 3536 L 3677 3536 L 2666 470 L 2112 470 L 1101 3536 L 1043 3536 L 986 1722 L 931 0 L 416 0 z" transform="scale(0.015625)"/><path id="AnekLatin-Regular-73" d="M 1398 -70 Q 1021 -70 739 11 Q 458 93 272 189 L 224 669 Q 458 547 738 457 Q 1018 368 1373 368 Q 1734 368 1916 483 Q 2099 598 2099 826 L 2099 861 Q 2099 1008 2030 1104 Q 1962 1200 1782 1273 Q 1603 1347 1274 1421 Q 880 1507 653 1624 Q 426 1741 328 1913 Q 230 2086 230 2336 L 230 2365 Q 230 2774 515 2985 Q 800 3197 1373 3197 Q 1741 3197 2011 3113 Q 2282 3030 2454 2928 L 2502 2490 Q 2294 2611 2025 2691 Q 1757 2771 1421 2771 Q 1178 2771 1027 2721 Q 877 2672 809 2581 Q 742 2490 742 2362 L 742 2336 Q 742 2195 809 2097 Q 877 2000 1051 1928 Q 1226 1856 1536 1789 Q 1936 1709 2171 1597 Q 2406 1485 2508 1313 Q 2611 1142 2611 874 L 2611 819 Q 2611 378 2304 154 Q 1997 -70 1398 -70 z" transform="scale(0.015625)"/></defs><use xlink:href="#AnekLatin-Regular-4d" transform="translate(0 0.09375)"/><use xlink:href="#AnekLatin-Regular-73" transform="translate(75.503954 -14.545312) scale(0.7)"/></g></g><g id="text_8"><g style="fill: #35513f" transform="translate(57.695425 268.137464) scale(0.115 -0.115)"><defs><path id="AnekLatin-Regular-52" d="M 2867 0 L 2752 838 Q 2720 1075 2643 1249 Q 2566 1424 2408 1523 Q 2250 1622 1958 1622 L 848 1626 L 848 2045 L 2035 2048 Q 2454 2048 2633 2254 Q 2813 2461 2813 2816 L 2813 2912 Q 2813 3264 2630 3457 Q 2448 3651 2022 3651 L 832 3651 L 832 4090 L 2093 4090 Q 2752 4090 3051 3800 Q 3350 3510 3350 3002 L 3350 2893 Q 3350 2493 3161 2238 Q 2973 1984 2534 1930 L 2534 1866 L 2307 1946 Q 2662 1920 2856 1790 Q 3050 1661 3139 1437 Q 3229 1213 3277 899 L 3414 0 L 2867 0 z M 483 0 L 483 4090 L 1005 4090 L 1005 1904 L 1008 1702 L 1008 0 L 483 0 z" transform="scale(0.015625)"/><path id="AnekLatin-Regular-54" d="M 1434 0 L 1434 4003 L 1965 4003 L 1965 0 L 1434 0 z M 208 3645 L 208 4090 L 3190 4090 L 3190 3645 L 208 3645 z" transform="scale(0.015625)"/></defs><use xlink:href="#AnekLatin-Regular-52"/><use xlink:href="#AnekLatin-Regular-54" transform="translate(57.550003 0)"/></g></g><g id="text_9"><g style="fill: #0d2418" transform="translate(78.764903 25.639226) scale(0.115 -0.115)"><defs><path id="AnekLatin-Regular-6f" d="M 1664 -80 Q 992 -80 645 283 Q 298 646 298 1328 L 298 1805 Q 298 2483 646 2844 Q 995 3206 1664 3206 Q 2336 3206 2683 2844 Q 3030 2483 3030 1805 L 3030 1328 Q 3030 646 2683 283 Q 2336 -80 1664 -80 z M 1664 342 Q 2080 342 2296 588 Q 2512 835 2512 1299 L 2512 1834 Q 2512 2294 2296 2539 Q 2080 2784 1664 2784 Q 1251 2784 1033 2539 Q 816 2294 816 1834 L 816 1299 Q 816 835 1033 588 Q 1251 342 1664 342 z" transform="scale(0.015625)"/><path id="AnekLatin-Regular-6c" d="M 438 0 L 438 4240 L 954 4240 L 954 0 L 438 0 z" transform="scale(0.015625)"/><path id="AnekLatin-Regular-69" d="M 432 0 L 432 3123 L 950 3123 L 950 0 L 432 0 z M 691 3635 Q 531 3635 452 3720 Q 374 3805 374 3952 L 374 3968 Q 374 4118 452 4201 Q 531 4285 691 4285 Q 851 4285 931 4201 Q 1011 4118 1011 3968 L 1011 3952 Q 1011 3802 931 3718 Q 851 3635 691 3635 z" transform="scale(0.015625)"/><path id="AnekLatin-Regular-64" d="M 1453 -67 Q 890 -67 595 281 Q 301 630 301 1299 L 301 1814 Q 301 2486 598 2840 Q 896 3194 1475 3194 Q 1763 3194 1974 3096 Q 2186 2998 2317 2822 Q 2448 2646 2493 2406 L 2662 2406 L 2509 1930 Q 2499 2205 2385 2392 Q 2272 2579 2078 2675 Q 1885 2771 1635 2771 Q 1238 2771 1028 2540 Q 819 2310 819 1862 L 819 1267 Q 819 826 1028 595 Q 1238 365 1635 365 Q 1872 365 2054 456 Q 2237 547 2357 708 Q 2477 870 2522 1075 L 2650 704 L 2496 704 Q 2451 493 2324 317 Q 2198 141 1985 37 Q 1773 -67 1453 -67 z M 2496 0 L 2518 755 L 2509 922 L 2509 2227 L 2512 2336 L 2499 3222 L 2499 4240 L 3014 4240 L 3014 0 L 2496 0 z" transform="scale(0.015625)"/><path id="AnekLatin-Regular-66" d="M 1472 4326 Q 1712 4326 1902 4283 Q 2093 4240 2253 4176 L 2304 3770 Q 2147 3827 1988 3860 Q 1830 3894 1632 3894 Q 1392 3894 1246 3832 Q 1101 3770 1038 3656 Q 976 3542 976 3382 L 976 3366 Q 976 3254 1005 3153 Q 1034 3053 1069 2970 L 720 2957 L 720 3021 Q 621 3098 545 3235 Q 470 3373 470 3555 L 470 3571 Q 470 3914 713 4120 Q 957 4326 1472 4326 z M 576 0 L 576 2845 L 1091 2845 L 1091 0 L 576 0 z M 61 2592 L 61 3005 L 774 3002 L 986 3005 L 2291 3005 L 2243 2592 L 61 2592 z" transform="scale(0.015625)"/><path id="AnekLatin-Regular-63" d="M 1626 -70 Q 954 -70 626 293 Q 298 656 298 1322 L 298 1808 Q 298 2477 627 2837 Q 957 3197 1626 3197 Q 1824 3197 1987 3160 Q 2150 3123 2280 3064 Q 2410 3005 2499 2941 L 2544 2490 Q 2394 2605 2187 2685 Q 1981 2765 1702 2765 Q 1254 2765 1035 2517 Q 816 2269 816 1795 L 816 1334 Q 816 870 1035 620 Q 1254 371 1702 371 Q 1990 371 2200 451 Q 2410 531 2573 646 L 2525 189 Q 2384 93 2157 11 Q 1930 -70 1626 -70 z" transform="scale(0.015625)"/><path id="AnekLatin-Regular-61" d="M 2275 0 L 2298 758 L 2278 838 L 2278 1834 L 2282 2016 Q 2282 2397 2088 2579 Q 1894 2762 1475 2762 Q 1139 2762 859 2666 Q 579 2570 362 2442 L 410 2883 Q 531 2957 699 3029 Q 867 3101 1083 3149 Q 1299 3197 1558 3197 Q 1894 3197 2129 3115 Q 2365 3034 2510 2880 Q 2656 2726 2723 2508 Q 2790 2291 2790 2022 L 2790 0 L 2275 0 z M 1200 -67 Q 736 -67 488 158 Q 240 384 240 803 L 240 896 Q 240 1328 507 1541 Q 774 1754 1357 1837 L 2346 1978 L 2374 1600 L 1421 1462 Q 1062 1411 908 1288 Q 755 1165 755 925 L 755 874 Q 755 627 907 496 Q 1059 365 1363 365 Q 1632 365 1824 457 Q 2016 550 2134 707 Q 2253 864 2294 1056 L 2374 704 L 2275 704 Q 2230 499 2107 323 Q 1984 147 1763 40 Q 1542 -67 1200 -67 z" transform="scale(0.015625)"/><path id="AnekLatin-Regular-74" d="M 1558 -64 Q 1197 -64 976 45 Q 755 154 656 374 Q 557 595 557 925 L 557 2896 L 1069 2896 L 1069 986 Q 1069 678 1209 532 Q 1350 387 1683 387 Q 1872 387 2046 428 Q 2221 470 2374 547 L 2326 102 Q 2176 26 1974 -19 Q 1773 -64 1558 -64 z M 45 2662 L 45 3078 L 2342 3078 L 2294 2662 L 45 2662 z M 560 3027 L 557 3904 L 1078 3971 L 1056 3027 L 560 3027 z" transform="scale(0.015625)"/><path id="AnekLatin-Regular-6e" d="M 2512 0 L 2512 1942 Q 2512 2195 2443 2377 Q 2374 2560 2219 2661 Q 2064 2762 1795 2762 Q 1549 2762 1368 2669 Q 1187 2576 1075 2417 Q 963 2259 918 2058 L 826 2426 L 938 2426 Q 989 2637 1117 2811 Q 1245 2986 1461 3090 Q 1677 3194 1990 3194 Q 2362 3194 2590 3053 Q 2819 2912 2924 2648 Q 3030 2384 3030 2000 L 3030 0 L 2512 0 z M 422 0 L 422 3123 L 941 3123 L 918 2374 L 941 2346 L 941 0 L 422 0 z" transform="scale(0.015625)"/><path id="AnekLatin-Regular-2f" d="M 102 -768 L 2077 4291 L 2560 4291 L 586 -768 L 102 -768 z" transform="scale(0.015625)"/><path id="AnekLatin-Regular-67" d="M 1638 934 Q 1002 934 661 1212 Q 320 1491 320 2010 L 320 2090 Q 320 2413 453 2653 Q 586 2893 877 3029 Q 1168 3165 1638 3178 L 3232 3229 L 3232 2819 L 2291 2851 L 2288 2829 Q 2509 2784 2649 2675 Q 2790 2566 2859 2403 Q 2928 2240 2928 2022 L 2928 1952 Q 2928 1456 2601 1195 Q 2275 934 1638 934 z M 1616 -787 L 1690 -787 Q 1978 -787 2184 -744 Q 2390 -701 2502 -608 Q 2614 -515 2614 -362 L 2614 -349 Q 2614 -170 2484 -75 Q 2355 19 2042 48 L 1158 128 L 1306 134 Q 1126 109 990 51 Q 854 -6 777 -100 Q 701 -195 701 -336 L 701 -342 Q 701 -506 813 -605 Q 925 -704 1129 -745 Q 1334 -787 1616 -787 z M 1587 -1200 Q 1165 -1200 859 -1128 Q 554 -1056 386 -894 Q 218 -733 218 -461 L 218 -448 Q 218 -256 309 -128 Q 400 0 555 73 Q 710 147 902 173 L 899 192 Q 637 237 512 347 Q 387 458 387 634 L 387 637 Q 387 758 443 844 Q 499 931 612 982 Q 726 1034 902 1046 L 902 1110 L 1498 960 L 1254 966 Q 1037 963 953 913 Q 870 864 870 765 L 870 762 Q 870 656 988 601 Q 1107 547 1392 515 L 2150 438 Q 2646 387 2873 200 Q 3101 13 3101 -352 L 3101 -368 Q 3101 -659 2928 -844 Q 2755 -1030 2438 -1115 Q 2122 -1200 1680 -1200 L 1587 -1200 z M 1632 1318 Q 1901 1318 2078 1396 Q 2256 1475 2347 1633 Q 2438 1792 2438 2022 L 2438 2099 Q 2438 2323 2350 2480 Q 2262 2637 2086 2718 Q 1910 2800 1645 2800 L 1626 2800 Q 1338 2800 1157 2712 Q 976 2624 894 2465 Q 813 2307 813 2096 L 813 2022 Q 813 1792 904 1635 Q 995 1478 1177 1398 Q 1360 1318 1632 1318 z" transform="scale(0.015625)"/></defs><use xlink:href="#AnekLatin-Regular-73"/><use xlink:href="#AnekLatin-Regular-6f" transform="translate(44.100006 0)"/><use xlink:href="#AnekLatin-Regular-6c" transform="translate(96.100006 0)"/><use xlink:href="#AnekLatin-Regular-69" transform="translate(117.850006 0)"/><use xlink:href="#AnekLatin-Regular-64" transform="translate(139.5 0)"/><use xlink:href="#AnekLatin-Regular-69" transform="translate(193.200012 0)"/><use xlink:href="#AnekLatin-Regular-66" transform="translate(214.850006 0)"/><use xlink:href="#AnekLatin-Regular-69" transform="translate(252.400009 0)"/><use xlink:href="#AnekLatin-Regular-63" transform="translate(274.050003 0)"/><use xlink:href="#AnekLatin-Regular-61" transform="translate(317.450012 0)"/><use xlink:href="#AnekLatin-Regular-74" transform="translate(366.850021 0)"/><use xlink:href="#AnekLatin-Regular-69" transform="translate(406.400024 0)"/><use xlink:href="#AnekLatin-Regular-6f" transform="translate(428.050018 0)"/><use xlink:href="#AnekLatin-Regular-6e" transform="translate(480.050018 0)"/><use xlink:href="#AnekLatin-Regular-20" transform="translate(533.350021 0)"/><use xlink:href="#AnekLatin-Regular-2f" transform="translate(554.400024 0)"/><use xlink:href="#AnekLatin-Regular-20" transform="translate(596.000031 0)"/><use xlink:href="#AnekLatin-Regular-63" transform="translate(617.050034 0)"/><use xlink:href="#AnekLatin-Regular-61" transform="translate(660.450043 0)"/><use xlink:href="#AnekLatin-Regular-73" transform="translate(709.850052 0)"/><use xlink:href="#AnekLatin-Regular-74" transform="translate(753.950058 0)"/><use xlink:href="#AnekLatin-Regular-69" transform="translate(793.500061 0)"/><use xlink:href="#AnekLatin-Regular-6e" transform="translate(815.150055 0)"/><use xlink:href="#AnekLatin-Regular-67" transform="translate(868.450058 0)"/></g></g><g id="text_10"><g style="fill: #0d2418" transform="translate(115.486452 46.293295) scale(0.115 -0.115)"><defs><path id="AnekLatin-Regular-72" d="M 915 1910 L 797 2310 L 925 2317 Q 1027 2714 1276 2942 Q 1526 3171 1939 3171 Q 2042 3171 2123 3155 Q 2205 3139 2269 3117 L 2301 2614 Q 2221 2640 2123 2656 Q 2026 2672 1907 2672 Q 1555 2672 1294 2477 Q 1034 2282 915 1910 z M 422 0 L 422 3123 L 928 3123 L 902 2202 L 941 2163 L 941 0 L 422 0 z" transform="scale(0.015625)"/><path id="AnekLatin-Regular-3a" d="M 640 -61 Q 477 -61 397 30 Q 317 122 317 288 L 317 320 Q 317 483 397 572 Q 477 662 640 662 Q 803 662 884 572 Q 966 483 966 320 L 966 288 Q 966 122 884 30 Q 803 -61 640 -61 z M 640 2211 Q 477 2211 397 2304 Q 317 2397 317 2560 L 317 2592 Q 317 2758 397 2848 Q 477 2938 640 2938 Q 803 2938 884 2848 Q 966 2758 966 2592 L 966 2560 Q 966 2397 884 2304 Q 803 2211 640 2211 z" transform="scale(0.015625)"/><path id="AnekLatin-Regular-62" d="M 1962 -67 Q 1674 -67 1461 29 Q 1248 125 1117 304 Q 986 483 941 720 L 768 720 L 925 1206 Q 941 925 1057 737 Q 1174 550 1369 457 Q 1565 365 1811 365 Q 2202 365 2408 595 Q 2614 826 2614 1280 L 2614 1866 Q 2614 2310 2406 2540 Q 2198 2771 1802 2771 Q 1565 2771 1382 2678 Q 1200 2586 1080 2426 Q 960 2266 915 2061 L 797 2422 L 944 2422 Q 992 2637 1115 2811 Q 1238 2986 1452 3090 Q 1667 3194 1984 3194 Q 2547 3194 2841 2843 Q 3136 2493 3136 1827 L 3136 1309 Q 3136 637 2837 285 Q 2538 -67 1962 -67 z M 422 0 L 422 4240 L 938 4240 L 938 3222 L 922 2326 L 925 2227 L 925 922 L 918 755 L 941 0 L 422 0 z" transform="scale(0.015625)"/><path id="AnekLatin-Regular-65" d="M 1734 -70 Q 1021 -70 659 278 Q 298 627 298 1277 L 298 1834 Q 298 2493 634 2849 Q 970 3206 1616 3206 Q 2051 3206 2342 3044 Q 2634 2883 2781 2585 Q 2928 2288 2928 1875 L 2928 1760 Q 2928 1658 2920 1555 Q 2912 1453 2899 1354 L 2422 1354 Q 2429 1507 2430 1644 Q 2432 1782 2432 1898 Q 2432 2182 2341 2379 Q 2250 2576 2069 2680 Q 1888 2784 1616 2784 Q 1213 2784 1011 2550 Q 810 2317 810 1882 L 810 1584 L 813 1520 L 813 1222 Q 813 1027 870 870 Q 928 714 1051 600 Q 1174 486 1364 427 Q 1555 368 1818 368 Q 2122 368 2384 448 Q 2646 528 2877 666 L 2829 218 Q 2621 86 2345 8 Q 2070 -70 1734 -70 z M 570 1354 L 570 1744 L 2790 1744 L 2790 1354 L 570 1354 z" transform="scale(0.015625)"/><path id="AnekLatin-Regular-6b" d="M 2451 0 L 1216 1456 L 886 1456 L 886 1859 L 1216 1859 L 2400 3123 L 3014 3123 L 1597 1616 L 1597 1741 L 3072 0 L 2451 0 z M 422 0 L 422 4240 L 938 4240 L 938 0 L 422 0 z" transform="scale(0.015625)"/><path id="AnekLatin-Regular-75" d="M 899 3123 L 899 1181 Q 899 934 968 750 Q 1037 566 1193 465 Q 1350 365 1616 365 Q 1866 365 2045 456 Q 2224 547 2337 707 Q 2451 867 2493 1069 L 2586 701 L 2474 701 Q 2426 490 2298 315 Q 2170 141 1954 37 Q 1738 -67 1421 -67 Q 1053 -67 824 72 Q 595 211 489 478 Q 384 746 384 1123 L 384 3123 L 899 3123 z M 2989 3123 L 2989 0 L 2470 0 L 2493 749 L 2470 781 L 2470 3123 L 2989 3123 z" transform="scale(0.015625)"/><path id="AnekLatin-Regular-70" d="M 1962 -67 Q 1674 -67 1462 29 Q 1251 125 1120 304 Q 989 483 944 720 L 774 720 L 925 1206 Q 938 925 1051 737 Q 1165 550 1360 457 Q 1555 365 1802 365 Q 2195 365 2404 595 Q 2614 826 2614 1270 L 2614 1869 Q 2614 2310 2406 2540 Q 2198 2771 1802 2771 Q 1565 2771 1382 2678 Q 1200 2586 1080 2426 Q 960 2266 915 2061 L 787 2422 L 938 2422 Q 989 2637 1112 2811 Q 1235 2986 1451 3090 Q 1667 3194 1984 3194 Q 2547 3194 2841 2843 Q 3136 2493 3136 1827 L 3136 1309 Q 3136 637 2840 285 Q 2544 -67 1962 -67 z M 422 -1101 L 422 3123 L 941 3123 L 918 2371 L 925 2211 L 925 896 L 922 790 L 938 -86 L 938 -1101 L 422 -1101 z" transform="scale(0.015625)"/></defs><use xlink:href="#AnekLatin-Regular-66"/><use xlink:href="#AnekLatin-Regular-6f" transform="translate(37.550003 0)"/><use xlink:href="#AnekLatin-Regular-72" transform="translate(89.550003 0)"/><use xlink:href="#AnekLatin-Regular-67" transform="translate(126.850006 0)"/><use xlink:href="#AnekLatin-Regular-69" transform="translate(178.100006 0)"/><use xlink:href="#AnekLatin-Regular-6e" transform="translate(199.75 0)"/><use xlink:href="#AnekLatin-Regular-67" transform="translate(253.050003 0)"/><use xlink:href="#AnekLatin-Regular-20" transform="translate(304.300003 0)"/><use xlink:href="#AnekLatin-Regular-2f" transform="translate(325.350006 0)"/><use xlink:href="#AnekLatin-Regular-20" transform="translate(366.950012 0)"/><use xlink:href="#AnekLatin-Regular-72" transform="translate(388.000015 0)"/><use xlink:href="#AnekLatin-Regular-6f" transform="translate(425.300018 0)"/><use xlink:href="#AnekLatin-Regular-6c" transform="translate(477.300018 0)"/><use xlink:href="#AnekLatin-Regular-6c" transform="translate(499.050018 0)"/><use xlink:href="#AnekLatin-Regular-69" transform="translate(520.800018 0)"/><use xlink:href="#AnekLatin-Regular-6e" transform="translate(542.450012 0)"/><use xlink:href="#AnekLatin-Regular-67" transform="translate(595.750015 0)"/><use xlink:href="#AnekLatin-Regular-3a" transform="translate(647.000015 0)"/><use xlink:href="#AnekLatin-Regular-20" transform="translate(667.000015 0)"/><use xlink:href="#AnekLatin-Regular-62" transform="translate(688.050018 0)"/><use xlink:href="#AnekLatin-Regular-72" transform="translate(741.750031 0)"/><use xlink:href="#AnekLatin-Regular-65" transform="translate(779.050034 0)"/><use xlink:href="#AnekLatin-Regular-61" transform="translate(829.000046 0)"/><use xlink:href="#AnekLatin-Regular-6b" transform="translate(878.400055 0)"/><use xlink:href="#AnekLatin-Regular-20" transform="translate(927.850067 0)"/><use xlink:href="#AnekLatin-Regular-75" transform="translate(948.90007 0)"/><use xlink:href="#AnekLatin-Regular-70" transform="translate(1002.200073 0)"/><use xlink:href="#AnekLatin-Regular-20" transform="translate(1055.900085 0)"/><use xlink:href="#AnekLatin-Regular-63" transform="translate(1076.950089 0)"/><use xlink:href="#AnekLatin-Regular-61" transform="translate(1120.350098 0)"/><use xlink:href="#AnekLatin-Regular-73" transform="translate(1169.750107 0)"/><use xlink:href="#AnekLatin-Regular-74" transform="translate(1213.850113 0)"/><use xlink:href="#AnekLatin-Regular-20" transform="translate(1253.400116 0)"/><use xlink:href="#AnekLatin-Regular-63" transform="translate(1274.450119 0)"/><use xlink:href="#AnekLatin-Regular-61" transform="translate(1317.850128 0)"/><use xlink:href="#AnekLatin-Regular-72" transform="translate(1367.250137 0)"/><use xlink:href="#AnekLatin-Regular-62" transform="translate(1404.55014 0)"/><use xlink:href="#AnekLatin-Regular-69" transform="translate(1458.250153 0)"/><use xlink:href="#AnekLatin-Regular-64" transform="translate(1479.900146 0)"/><use xlink:href="#AnekLatin-Regular-65" transform="translate(1533.600159 0)"/><use xlink:href="#AnekLatin-Regular-73" transform="translate(1583.550171 0)"/></g></g><g id="text_11"><g style="fill: #0d2418" transform="translate(163.892129 66.947364) scale(0.115 -0.115)"><defs><path id="AnekLatin-Regular-6d" d="M 4323 0 L 4323 1955 Q 4323 2202 4260 2382 Q 4198 2563 4056 2662 Q 3914 2762 3674 2762 Q 3446 2762 3280 2669 Q 3114 2576 3011 2421 Q 2909 2266 2867 2067 L 2787 2435 L 2851 2435 Q 2902 2637 3024 2809 Q 3146 2982 3354 3088 Q 3562 3194 3869 3194 Q 4218 3194 4430 3056 Q 4643 2918 4742 2654 Q 4842 2390 4842 2013 L 4842 0 L 4323 0 z M 422 0 L 422 3123 L 941 3123 L 918 2374 L 941 2342 L 941 0 L 422 0 z M 2374 0 L 2374 1955 Q 2374 2202 2312 2382 Q 2250 2563 2109 2662 Q 1968 2762 1728 2762 Q 1498 2762 1331 2669 Q 1165 2576 1062 2417 Q 960 2259 918 2058 L 822 2426 L 938 2426 Q 986 2637 1104 2811 Q 1222 2986 1425 3090 Q 1629 3194 1920 3194 Q 2352 3194 2577 2970 Q 2803 2746 2861 2317 Q 2877 2253 2883 2177 Q 2890 2102 2890 2029 L 2890 0 L 2374 0 z" transform="scale(0.015625)"/><path id="AnekLatin-Regular-2c" d="M 861 867 Q 870 806 881 708 Q 893 611 893 499 Q 893 115 785 -211 Q 678 -538 419 -842 L 61 -726 Q 227 -461 307 -169 Q 387 122 387 477 Q 387 582 380 676 Q 374 771 362 867 L 861 867 z" transform="scale(0.015625)"/></defs><use xlink:href="#AnekLatin-Regular-6e"/><use xlink:href="#AnekLatin-Regular-6f" transform="translate(53.300003 0)"/><use xlink:href="#AnekLatin-Regular-72" transform="translate(105.300003 0)"/><use xlink:href="#AnekLatin-Regular-6d" transform="translate(142.600006 0)"/><use xlink:href="#AnekLatin-Regular-61" transform="translate(224.200012 0)"/><use xlink:href="#AnekLatin-Regular-6c" transform="translate(273.600021 0)"/><use xlink:href="#AnekLatin-Regular-69" transform="translate(295.350021 0)"/><use xlink:href="#AnekLatin-Regular-73" transform="translate(317.000015 0)"/><use xlink:href="#AnekLatin-Regular-69" transform="translate(361.100021 0)"/><use xlink:href="#AnekLatin-Regular-6e" transform="translate(382.750015 0)"/><use xlink:href="#AnekLatin-Regular-67" transform="translate(436.050018 0)"/><use xlink:href="#AnekLatin-Regular-2c" transform="translate(487.300018 0)"/><use xlink:href="#AnekLatin-Regular-20" transform="translate(506.100021 0)"/><use xlink:href="#AnekLatin-Regular-61" transform="translate(527.150024 0)"/><use xlink:href="#AnekLatin-Regular-69" transform="translate(576.550034 0)"/><use xlink:href="#AnekLatin-Regular-72" transform="translate(598.200027 0)"/><use xlink:href="#AnekLatin-Regular-20" transform="translate(635.500031 0)"/><use xlink:href="#AnekLatin-Regular-63" transform="translate(656.550034 0)"/><use xlink:href="#AnekLatin-Regular-6f" transform="translate(699.950043 0)"/><use xlink:href="#AnekLatin-Regular-6f" transform="translate(751.950043 0)"/><use xlink:href="#AnekLatin-Regular-6c" transform="translate(803.950043 0)"/></g></g><g id="text_12"><g style="fill: #0d2418" transform="translate(212.297806 25.639226) scale(0.115 -0.115)"><defs><path id="AnekLatin-Regular-2248" d="M 2390 957 Q 2208 957 2035 1014 Q 1862 1072 1700 1145 Q 1539 1219 1387 1276 Q 1235 1334 1098 1334 Q 931 1334 859 1233 Q 787 1133 787 944 L 787 890 L 400 890 L 400 1002 Q 400 1363 552 1566 Q 704 1770 1066 1770 Q 1248 1770 1419 1712 Q 1590 1654 1753 1579 Q 1917 1504 2067 1448 Q 2218 1392 2358 1392 Q 2528 1392 2597 1491 Q 2666 1590 2666 1779 L 2666 1834 L 3056 1834 L 3056 1722 Q 3056 1357 2902 1157 Q 2749 957 2390 957 z M 2390 2237 Q 2208 2237 2035 2294 Q 1862 2352 1700 2425 Q 1539 2499 1387 2556 Q 1235 2614 1098 2614 Q 931 2614 859 2513 Q 787 2413 787 2224 L 787 2170 L 400 2170 L 400 2282 Q 400 2643 552 2846 Q 704 3050 1066 3050 Q 1248 3050 1419 2992 Q 1590 2934 1753 2859 Q 1917 2784 2067 2728 Q 2218 2672 2358 2672 Q 2528 2672 2597 2771 Q 2666 2870 2666 3059 L 2666 3114 L 3056 3114 L 3056 3002 Q 3056 2637 2902 2437 Q 2749 2237 2390 2237 z" transform="scale(0.015625)"/><path id="AnekLatin-Regular-31" d="M 1146 0 L 1146 3546 L 1104 3546 L 157 2982 L 173 3501 L 1149 4090 L 1677 4090 L 1677 0 L 1146 0 z" transform="scale(0.015625)"/><path id="AnekLatin-Regular-30" d="M 1811 -77 Q 1082 -77 712 332 Q 342 742 342 1514 L 342 2576 Q 342 3347 710 3756 Q 1078 4166 1811 4166 Q 2541 4166 2910 3756 Q 3280 3347 3280 2576 L 3280 1514 Q 3280 742 2910 332 Q 2541 -77 1811 -77 z M 1811 368 Q 2285 368 2513 657 Q 2742 947 2742 1491 L 2742 2595 Q 2742 3142 2513 3432 Q 2285 3722 1811 3722 Q 1338 3722 1109 3432 Q 880 3142 880 2595 L 880 1491 Q 880 947 1109 657 Q 1338 368 1811 368 z" transform="scale(0.015625)"/><path id="AnekLatin-Regular-b0" d="M 1046 2515 Q 672 2515 469 2731 Q 266 2947 266 3325 L 266 3363 Q 266 3738 469 3952 Q 672 4166 1046 4166 Q 1424 4166 1627 3952 Q 1830 3738 1830 3363 L 1830 3325 Q 1830 2947 1627 2731 Q 1424 2515 1046 2515 z M 1046 2861 Q 1242 2861 1339 2982 Q 1437 3104 1437 3322 L 1437 3363 Q 1437 3581 1339 3702 Q 1242 3824 1046 3824 Q 858 3824 757 3702 Q 656 3581 656 3363 L 656 3322 Q 656 3104 757 2982 Q 858 2861 1046 2861 z" transform="scale(0.015625)"/><path id="AnekLatin-Regular-68" d="M 2512 0 L 2512 1942 Q 2512 2195 2443 2377 Q 2374 2560 2219 2661 Q 2064 2762 1795 2762 Q 1549 2762 1369 2669 Q 1190 2576 1080 2417 Q 970 2259 925 2058 L 810 2426 L 944 2426 Q 992 2637 1120 2811 Q 1248 2986 1464 3090 Q 1680 3194 1990 3194 Q 2362 3194 2590 3053 Q 2819 2912 2924 2648 Q 3030 2384 3030 2000 L 3030 0 L 2512 0 z M 422 0 L 422 4240 L 938 4240 L 938 3222 L 922 2326 L 941 2285 L 941 0 L 422 0 z" transform="scale(0.015625)"/></defs><use xlink:href="#AnekLatin-Regular-61"/><use xlink:href="#AnekLatin-Regular-6e" transform="translate(49.400009 0)"/><use xlink:href="#AnekLatin-Regular-6e" transform="translate(102.700012 0)"/><use xlink:href="#AnekLatin-Regular-65" transform="translate(156.000015 0)"/><use xlink:href="#AnekLatin-Regular-61" transform="translate(205.950027 0)"/><use xlink:href="#AnekLatin-Regular-6c" transform="translate(255.350037 0)"/><use xlink:href="#AnekLatin-Regular-69" transform="translate(277.100037 0)"/><use xlink:href="#AnekLatin-Regular-6e" transform="translate(298.750031 0)"/><use xlink:href="#AnekLatin-Regular-67" transform="translate(352.050034 0)"/><use xlink:href="#AnekLatin-Regular-2c" transform="translate(403.300034 0)"/><use xlink:href="#AnekLatin-Regular-20" transform="translate(422.100037 0)"/><use xlink:href="#AnekLatin-Regular-2248" transform="translate(443.15004 0)"/><use xlink:href="#AnekLatin-Regular-20" transform="translate(497.15004 0)"/><use xlink:href="#AnekLatin-Regular-31" transform="translate(518.200043 0)"/><use xlink:href="#AnekLatin-Regular-30" transform="translate(551.800049 0)"/><use xlink:href="#AnekLatin-Regular-20" transform="translate(608.400055 0)"/><use xlink:href="#AnekLatin-Regular-b0" transform="translate(629.450058 0)"/><use xlink:href="#AnekLatin-Regular-43" transform="translate(662.150055 0)"/><use xlink:href="#AnekLatin-Regular-2f" transform="translate(712.900055 0)"/><use xlink:href="#AnekLatin-Regular-68" transform="translate(754.500061 0)"/><use xlink:href="#AnekLatin-Regular-3a" transform="translate(807.800064 0)"/><use xlink:href="#AnekLatin-Regular-20" transform="translate(827.800064 0)"/><use xlink:href="#AnekLatin-Regular-73" transform="translate(848.850067 0)"/><use xlink:href="#AnekLatin-Regular-70" transform="translate(892.950073 0)"/><use xlink:href="#AnekLatin-Regular-68" transform="translate(946.650085 0)"/><use xlink:href="#AnekLatin-Regular-65" transform="translate(999.950089 0)"/><use xlink:href="#AnekLatin-Regular-72" transform="translate(1049.900101 0)"/><use xlink:href="#AnekLatin-Regular-6f" transform="translate(1087.200104 0)"/><use xlink:href="#AnekLatin-Regular-69" transform="translate(1139.200104 0)"/><use xlink:href="#AnekLatin-Regular-64" transform="translate(1160.850098 0)"/><use xlink:href="#AnekLatin-Regular-69" transform="translate(1214.55011 0)"/><use xlink:href="#AnekLatin-Regular-73" transform="translate(1236.200104 0)"/><use xlink:href="#AnekLatin-Regular-65" transform="translate(1280.30011 0)"/><use xlink:href="#AnekLatin-Regular-64" transform="translate(1330.250122 0)"/></g></g><g id="text_13"><g style="fill: #0d2418" transform="translate(269.04929 67.125254) scale(0.115 -0.115)"><defs><path id="AnekLatin-Regular-35" d="M 1606 -70 Q 1203 -70 912 18 Q 621 106 458 192 L 403 704 Q 544 624 721 555 Q 899 486 1108 443 Q 1318 400 1558 400 Q 1894 400 2105 494 Q 2317 589 2414 773 Q 2512 957 2512 1213 L 2512 1414 Q 2512 1776 2333 1977 Q 2154 2179 1770 2179 Q 1462 2179 1244 2049 Q 1027 1920 883 1693 L 419 1773 L 419 4090 L 2928 4090 L 2928 3638 L 931 3638 L 931 2659 L 922 2074 L 938 2077 Q 1066 2310 1312 2464 Q 1558 2618 1949 2618 Q 2499 2618 2769 2304 Q 3040 1990 3040 1430 L 3040 1206 Q 3040 816 2888 528 Q 2736 240 2419 85 Q 2102 -70 1606 -70 z" transform="scale(0.015625)"/><path id="AnekLatin-Regular-2013" d="M 394 1466 L 394 1891 L 2934 1891 L 2934 1466 L 394 1466 z" transform="scale(0.015625)"/><path id="AnekLatin-Regular-36" d="M 1792 -77 Q 1328 -77 1000 104 Q 672 285 499 643 Q 326 1002 326 1530 L 326 2506 Q 326 3293 715 3726 Q 1104 4160 1862 4160 Q 2240 4160 2501 4080 Q 2762 4000 2941 3907 L 2995 3424 Q 2858 3504 2706 3566 Q 2554 3629 2370 3664 Q 2186 3699 1946 3699 Q 1395 3699 1124 3392 Q 854 3085 854 2490 L 854 1472 Q 854 1104 966 857 Q 1078 611 1289 489 Q 1501 368 1802 368 Q 2230 368 2435 597 Q 2640 826 2640 1184 L 2640 1376 Q 2640 1629 2561 1809 Q 2483 1990 2310 2089 Q 2138 2189 1859 2189 Q 1597 2189 1390 2093 Q 1184 1997 1041 1819 Q 899 1642 829 1398 L 778 1846 L 870 1846 Q 938 2064 1080 2238 Q 1222 2413 1452 2513 Q 1683 2614 2010 2614 Q 2586 2614 2875 2291 Q 3165 1968 3165 1386 L 3165 1178 Q 3165 611 2819 267 Q 2474 -77 1792 -77 z" transform="scale(0.015625)"/><path id="AnekLatin-Regular-32" d="M 224 0 L 224 506 L 1245 1507 Q 1533 1792 1736 2019 Q 1939 2246 2048 2464 Q 2157 2682 2157 2928 L 2157 2960 Q 2157 3194 2067 3360 Q 1978 3526 1795 3612 Q 1613 3699 1325 3699 Q 1005 3699 729 3596 Q 454 3494 240 3360 L 291 3840 Q 413 3917 579 3990 Q 746 4064 957 4112 Q 1168 4160 1427 4160 Q 2061 4160 2377 3865 Q 2694 3571 2694 3024 L 2694 2979 Q 2694 2656 2579 2393 Q 2464 2131 2243 1870 Q 2022 1610 1712 1302 L 880 480 L 880 355 L 662 451 L 2758 451 L 2758 0 L 224 0 z" transform="scale(0.015625)"/></defs><use xlink:href="#AnekLatin-Regular-73"/><use xlink:href="#AnekLatin-Regular-74" transform="translate(44.100006 0)"/><use xlink:href="#AnekLatin-Regular-72" transform="translate(83.650009 0)"/><use xlink:href="#AnekLatin-Regular-65" transform="translate(120.950012 0)"/><use xlink:href="#AnekLatin-Regular-73" transform="translate(170.900024 0)"/><use xlink:href="#AnekLatin-Regular-73" transform="translate(215.000031 0)"/><use xlink:href="#AnekLatin-Regular-20" transform="translate(259.100037 0)"/><use xlink:href="#AnekLatin-Regular-72" transform="translate(280.15004 0)"/><use xlink:href="#AnekLatin-Regular-65" transform="translate(317.450043 0)"/><use xlink:href="#AnekLatin-Regular-6c" transform="translate(367.400055 0)"/><use xlink:href="#AnekLatin-Regular-69" transform="translate(389.150055 0)"/><use xlink:href="#AnekLatin-Regular-65" transform="translate(410.800049 0)"/><use xlink:href="#AnekLatin-Regular-66" transform="translate(460.750061 0)"/><use xlink:href="#AnekLatin-Regular-2c" transform="translate(498.300064 0)"/><use xlink:href="#AnekLatin-Regular-20" transform="translate(517.100067 0)"/><use xlink:href="#AnekLatin-Regular-35" transform="translate(538.15007 0)"/><use xlink:href="#AnekLatin-Regular-35" transform="translate(590.250076 0)"/><use xlink:href="#AnekLatin-Regular-30" transform="translate(642.350082 0)"/><use xlink:href="#AnekLatin-Regular-2013" transform="translate(698.950089 0)"/><use xlink:href="#AnekLatin-Regular-36" transform="translate(750.900101 0)"/><use xlink:href="#AnekLatin-Regular-32" transform="translate(804.950104 0)"/><use xlink:href="#AnekLatin-Regular-30" transform="translate(851.900101 0)"/><use xlink:href="#AnekLatin-Regular-20" transform="translate(908.500107 0)"/><use xlink:href="#AnekLatin-Regular-b0" transform="translate(929.55011 0)"/><use xlink:href="#AnekLatin-Regular-43" transform="translate(962.250107 0)"/></g></g><g id="text_14"><g style="fill: #0d2418" transform="translate(310.778323 111.16654) scale(0.115 -0.115)"><use xlink:href="#AnekLatin-Regular-61"/><use xlink:href="#AnekLatin-Regular-75" transform="translate(49.400009 0)"/><use xlink:href="#AnekLatin-Regular-73" transform="translate(102.700012 0)"/><use xlink:href="#AnekLatin-Regular-74" transform="translate(146.800018 0)"/><use xlink:href="#AnekLatin-Regular-65" transform="translate(186.350021 0)"/><use xlink:href="#AnekLatin-Regular-6e" transform="translate(236.300034 0)"/><use xlink:href="#AnekLatin-Regular-69" transform="translate(289.600037 0)"/><use xlink:href="#AnekLatin-Regular-74" transform="translate(311.250031 0)"/><use xlink:href="#AnekLatin-Regular-69" transform="translate(350.800034 0)"/><use xlink:href="#AnekLatin-Regular-73" transform="translate(372.450027 0)"/><use xlink:href="#AnekLatin-Regular-65" transform="translate(416.550034 0)"/></g></g><g id="text_15"><g style="fill: #0d2418" transform="translate(242.433741 140.082237) scale(0.115 -0.115)"><defs><path id="AnekLatin-Regular-d7" d="M 2746 1030 L 2442 758 L 346 2941 L 646 3213 L 2746 1030 z M 326 1030 L 2426 3213 L 2726 2941 L 630 758 L 326 1030 z" transform="scale(0.015625)"/></defs><use xlink:href="#AnekLatin-Regular-70"/><use xlink:href="#AnekLatin-Regular-72" transform="translate(53.700012 0)"/><use xlink:href="#AnekLatin-Regular-65" transform="translate(91.000015 0)"/><use xlink:href="#AnekLatin-Regular-68" transform="translate(140.950027 0)"/><use xlink:href="#AnekLatin-Regular-65" transform="translate(194.250031 0)"/><use xlink:href="#AnekLatin-Regular-61" transform="translate(244.200043 0)"/><use xlink:href="#AnekLatin-Regular-74" transform="translate(293.600052 0)"/><use xlink:href="#AnekLatin-Regular-20" transform="translate(333.150055 0)"/><use xlink:href="#AnekLatin-Regular-d7" transform="translate(354.200058 0)"/><use xlink:href="#AnekLatin-Regular-32" transform="translate(402.200058 0)"/></g></g><g id="text_16"><g style="fill: #0d2418" transform="translate(313.282065 193.782816) scale(0.115 -0.115)"><defs><path id="AnekLatin-Regular-33" d="M 1430 -70 Q 1171 -70 952 -30 Q 733 10 566 69 Q 400 128 291 182 L 240 701 Q 454 579 748 488 Q 1043 397 1389 397 Q 1722 397 1925 483 Q 2128 570 2221 730 Q 2314 890 2314 1117 L 2314 1194 Q 2314 1424 2229 1574 Q 2144 1725 1952 1800 Q 1760 1875 1437 1878 L 762 1891 L 762 2310 L 1446 2323 Q 1757 2330 1942 2410 Q 2128 2490 2208 2635 Q 2288 2781 2288 2982 L 2288 3037 Q 2288 3366 2091 3537 Q 1894 3709 1427 3709 Q 1078 3709 780 3614 Q 483 3520 262 3398 L 310 3862 Q 499 3978 801 4069 Q 1104 4160 1514 4160 Q 2189 4160 2507 3885 Q 2826 3610 2826 3117 L 2826 3046 Q 2826 2800 2744 2611 Q 2662 2422 2489 2305 Q 2317 2189 2038 2150 L 2035 2077 L 2022 2134 Q 2467 2070 2664 1841 Q 2861 1613 2861 1200 L 2861 1085 Q 2861 544 2513 237 Q 2166 -70 1430 -70 z" transform="scale(0.015625)"/></defs><use xlink:href="#AnekLatin-Regular-74"/><use xlink:href="#AnekLatin-Regular-65" transform="translate(39.550003 0)"/><use xlink:href="#AnekLatin-Regular-6d" transform="translate(89.500015 0)"/><use xlink:href="#AnekLatin-Regular-70" transform="translate(171.100021 0)"/><use xlink:href="#AnekLatin-Regular-65" transform="translate(224.800034 0)"/><use xlink:href="#AnekLatin-Regular-72" transform="translate(274.750046 0)"/><use xlink:href="#AnekLatin-Regular-20" transform="translate(312.050049 0)"/><use xlink:href="#AnekLatin-Regular-32" transform="translate(333.100052 0)"/><use xlink:href="#AnekLatin-Regular-20" transform="translate(380.050049 0)"/><use xlink:href="#AnekLatin-Regular-74" transform="translate(401.100052 0)"/><use xlink:href="#AnekLatin-Regular-6f" transform="translate(440.650055 0)"/><use xlink:href="#AnekLatin-Regular-20" transform="translate(492.650055 0)"/><use xlink:href="#AnekLatin-Regular-33" transform="translate(513.700058 0)"/><use xlink:href="#AnekLatin-Regular-d7" transform="translate(562.850067 0)"/></g></g><g id="text_17"><g style="fill: #0d2418" transform="translate(223.191528 291.841128) scale(0.115 -0.115)"><use xlink:href="#AnekLatin-Regular-6d"/><use xlink:href="#AnekLatin-Regular-61" transform="translate(81.600006 0)"/><use xlink:href="#AnekLatin-Regular-63" transform="translate(131.000015 0)"/><use xlink:href="#AnekLatin-Regular-68" transform="translate(174.400024 0)"/><use xlink:href="#AnekLatin-Regular-69" transform="translate(227.700027 0)"/><use xlink:href="#AnekLatin-Regular-6e" transform="translate(249.350021 0)"/><use xlink:href="#AnekLatin-Regular-69" transform="translate(302.650024 0)"/><use xlink:href="#AnekLatin-Regular-6e" transform="translate(324.300018 0)"/><use xlink:href="#AnekLatin-Regular-67" transform="translate(377.600021 0)"/></g></g><g id="text_18"><g style="fill: #0d2418" transform="translate(341.351067 291.877964) scale(0.115 -0.115)"><use xlink:href="#AnekLatin-Regular-66"/><use xlink:href="#AnekLatin-Regular-69" transform="translate(37.550003 0)"/><use xlink:href="#AnekLatin-Regular-6e" transform="translate(59.199997 0)"/><use xlink:href="#AnekLatin-Regular-69" transform="translate(112.5 0)"/><use xlink:href="#AnekLatin-Regular-73" transform="translate(134.149994 0)"/><use xlink:href="#AnekLatin-Regular-68" transform="translate(178.25 0)"/><use xlink:href="#AnekLatin-Regular-20" transform="translate(231.550003 0)"/><use xlink:href="#AnekLatin-Regular-67" transform="translate(252.600006 0)"/><use xlink:href="#AnekLatin-Regular-72" transform="translate(303.850006 0)"/><use xlink:href="#AnekLatin-Regular-69" transform="translate(341.150009 0)"/><use xlink:href="#AnekLatin-Regular-6e" transform="translate(362.800003 0)"/><use xlink:href="#AnekLatin-Regular-64" transform="translate(416.100006 0)"/></g></g><g id="text_19"><g style="fill: #b0241a" transform="translate(278.180318 298.085864) scale(0.115 -0.115)"><use xlink:href="#AnekLatin-Regular-68"/><use xlink:href="#AnekLatin-Regular-61" transform="translate(53.300003 0)"/><use xlink:href="#AnekLatin-Regular-72" transform="translate(102.700012 0)"/><use xlink:href="#AnekLatin-Regular-64" transform="translate(140.000015 0)"/><use xlink:href="#AnekLatin-Regular-65" transform="translate(193.700027 0)"/><use xlink:href="#AnekLatin-Regular-6e" transform="translate(243.65004 0)"/></g></g></g></g><defs><clipPath id="p3759465bfd"><rect x="74.592" y="5.076" width="310.464" height="299.484"/></clipPath></defs></svg> 