  <svg xmlns:xlink="http://www.w3.org/1999/xlink" width="403.2pt" height="288pt" viewBox="0 0 403.2 288" xmlns="http://www.w3.org/2000/svg" version="1.1"><defs><style type="text/css">*{stroke-linejoin: round; stroke-linecap: butt}</style></defs><g id="figure_1"><g id="patch_1"><path d="M 0 288 L 403.2 288 L 403.2 0 L 0 0 L 0 288 z" style="fill: none"/></g><g id="axes_1"><g id="patch_2"><path d="M 56.4 244.8 L 391.1 244.8 L 391.1 14.4 L 56.4 14.4 L 56.4 244.8 z" style="fill: none"/></g><g id="matplotlib.axis_1"><g id="xtick_1"><g id="line2d_1"><defs><path id="m7c79c5f915" d="M 0 0 L 0 4" style="stroke: #35513f; stroke-width: 0.9"/></defs><g><use xlink:href="#m7c79c5f915" x="89.082138" y="244.8" style="fill: #35513f; stroke: #35513f; stroke-width: 0.9"/></g></g><g id="text_1"><g style="fill: #35513f" transform="translate(79.874052 259.91875) scale(0.115 -0.115)"><defs><path id="AnekLatin-Regular-32" d="M 224 0 L 224 506 L 1245 1507 Q 1533 1792 1736 2019 Q 1939 2246 2048 2464 Q 2157 2682 2157 2928 L 2157 2960 Q 2157 3194 2067 3360 Q 1978 3526 1795 3612 Q 1613 3699 1325 3699 Q 1005 3699 729 3596 Q 454 3494 240 3360 L 291 3840 Q 413 3917 579 3990 Q 746 4064 957 4112 Q 1168 4160 1427 4160 Q 2061 4160 2377 3865 Q 2694 3571 2694 3024 L 2694 2979 Q 2694 2656 2579 2393 Q 2464 2131 2243 1870 Q 2022 1610 1712 1302 L 880 480 L 880 355 L 662 451 L 2758 451 L 2758 0 L 224 0 z" transform="scale(0.015625)"/><path id="AnekLatin-Regular-30" d="M 1811 -77 Q 1082 -77 712 332 Q 342 742 342 1514 L 342 2576 Q 342 3347 710 3756 Q 1078 4166 1811 4166 Q 2541 4166 2910 3756 Q 3280 3347 3280 2576 L 3280 1514 Q 3280 742 2910 332 Q 2541 -77 1811 -77 z M 1811 368 Q 2285 368 2513 657 Q 2742 947 2742 1491 L 2742 2595 Q 2742 3142 2513 3432 Q 2285 3722 1811 3722 Q 1338 3722 1109 3432 Q 880 3142 880 2595 L 880 1491 Q 880 947 1109 657 Q 1338 368 1811 368 z" transform="scale(0.015625)"/></defs><use xlink:href="#AnekLatin-Regular-32"/><use xlink:href="#AnekLatin-Regular-30" transform="translate(46.949997 0)"/><use xlink:href="#AnekLatin-Regular-30" transform="translate(103.550003 0)"/></g></g></g><g id="xtick_2"><g id="line2d_2"><g><use xlink:href="#m7c79c5f915" x="170.500373" y="244.8" style="fill: #35513f; stroke: #35513f; stroke-width: 0.9"/></g></g><g id="text_2"><g style="fill: #35513f" transform="translate(161.165608 259.91875) scale(0.115 -0.115)"><defs><path id="AnekLatin-Regular-33" d="M 1430 -70 Q 1171 -70 952 -30 Q 733 10 566 69 Q 400 128 291 182 L 240 701 Q 454 579 748 488 Q 1043 397 1389 397 Q 1722 397 1925 483 Q 2128 570 2221 730 Q 2314 890 2314 1117 L 2314 1194 Q 2314 1424 2229 1574 Q 2144 1725 1952 1800 Q 1760 1875 1437 1878 L 762 1891 L 762 2310 L 1446 2323 Q 1757 2330 1942 2410 Q 2128 2490 2208 2635 Q 2288 2781 2288 2982 L 2288 3037 Q 2288 3366 2091 3537 Q 1894 3709 1427 3709 Q 1078 3709 780 3614 Q 483 3520 262 3398 L 310 3862 Q 499 3978 801 4069 Q 1104 4160 1514 4160 Q 2189 4160 2507 3885 Q 2826 3610 2826 3117 L 2826 3046 Q 2826 2800 2744 2611 Q 2662 2422 2489 2305 Q 2317 2189 2038 2150 L 2035 2077 L 2022 2134 Q 2467 2070 2664 1841 Q 2861 1613 2861 1200 L 2861 1085 Q 2861 544 2513 237 Q 2166 -70 1430 -70 z" transform="scale(0.015625)"/></defs><use xlink:href="#AnekLatin-Regular-33"/><use xlink:href="#AnekLatin-Regular-30" transform="translate(49.150009 0)"/><use xlink:href="#AnekLatin-Regular-30" transform="translate(105.750015 0)"/></g></g></g><g id="xtick_3"><g id="line2d_3"><g><use xlink:href="#m7c79c5f915" x="228.26753" y="244.8" style="fill: #35513f; stroke: #35513f; stroke-width: 0.9"/></g></g><g id="text_3"><g style="fill: #35513f" transform="translate(218.757569 259.91875) scale(0.115 -0.115)"><defs><path id="AnekLatin-Regular-34" d="M 2192 0 L 2192 2813 L 2208 3718 L 2122 3718 L 707 1283 L 707 1040 L 502 1238 L 3238 1238 L 3238 790 L 179 790 L 179 1322 L 1805 4090 L 2698 4090 L 2698 0 L 2192 0 z" transform="scale(0.015625)"/></defs><use xlink:href="#AnekLatin-Regular-34"/><use xlink:href="#AnekLatin-Regular-30" transform="translate(52.200012 0)"/><use xlink:href="#AnekLatin-Regular-30" transform="translate(108.800018 0)"/></g></g></g><g id="xtick_4"><g id="line2d_4"><g><use xlink:href="#m7c79c5f915" x="309.685765" y="244.8" style="fill: #35513f; stroke: #35513f; stroke-width: 0.9"/></g></g><g id="text_4"><g style="fill: #35513f" transform="translate(300.069789 259.91875) scale(0.115 -0.115)"><defs><path id="AnekLatin-Regular-36" d="M 1792 -77 Q 1328 -77 1000 104 Q 672 285 499 643 Q 326 1002 326 1530 L 326 2506 Q 326 3293 715 3726 Q 1104 4160 1862 4160 Q 2240 4160 2501 4080 Q 2762 4000 2941 3907 L 2995 3424 Q 2858 3504 2706 3566 Q 2554 3629 2370 3664 Q 2186 3699 1946 3699 Q 1395 3699 1124 3392 Q 854 3085 854 2490 L 854 1472 Q 854 1104 966 857 Q 1078 611 1289 489 Q 1501 368 1802 368 Q 2230 368 2435 597 Q 2640 826 2640 1184 L 2640 1376 Q 2640 1629 2561 1809 Q 2483 1990 2310 2089 Q 2138 2189 1859 2189 Q 1597 2189 1390 2093 Q 1184 1997 1041 1819 Q 899 1642 829 1398 L 778 1846 L 870 1846 Q 938 2064 1080 2238 Q 1222 2413 1452 2513 Q 1683 2614 2010 2614 Q 2586 2614 2875 2291 Q 3165 1968 3165 1386 L 3165 1178 Q 3165 611 2819 267 Q 2474 -77 1792 -77 z" transform="scale(0.015625)"/></defs><use xlink:href="#AnekLatin-Regular-36"/><use xlink:href="#AnekLatin-Regular-30" transform="translate(54.050003 0)"/><use xlink:href="#AnekLatin-Regular-30" transform="translate(110.650009 0)"/></g></g></g><g id="xtick_5"><g id="line2d_5"><g><use xlink:href="#m7c79c5f915" x="367.452922" y="244.8" style="fill: #35513f; stroke: #35513f; stroke-width: 0.9"/></g></g><g id="text_5"><g style="fill: #35513f" transform="translate(357.750696 259.91875) scale(0.115 -0.115)"><defs><path id="AnekLatin-Regular-38" d="M 1776 -83 Q 1386 -83 1106 -4 Q 826 74 648 222 Q 470 371 385 579 Q 301 787 301 1043 L 301 1130 Q 301 1418 400 1622 Q 499 1827 688 1953 Q 877 2080 1133 2131 L 1133 2150 Q 880 2189 704 2304 Q 528 2419 437 2604 Q 346 2790 346 3037 L 346 3123 Q 346 3610 694 3890 Q 1043 4170 1776 4170 Q 2515 4170 2864 3890 Q 3213 3610 3213 3123 L 3213 3037 Q 3213 2790 3121 2604 Q 3030 2419 2854 2304 Q 2678 2189 2426 2150 L 2426 2131 Q 2685 2077 2870 1950 Q 3056 1824 3157 1621 Q 3258 1418 3258 1130 L 3258 1043 Q 3258 790 3176 584 Q 3094 378 2916 229 Q 2739 80 2457 -1 Q 2176 -83 1776 -83 z M 1782 362 Q 2269 362 2494 562 Q 2720 762 2720 1091 L 2720 1174 Q 2720 1498 2480 1691 Q 2240 1885 1763 1923 Q 1306 1882 1070 1688 Q 835 1494 835 1174 L 835 1091 Q 835 762 1065 562 Q 1296 362 1782 362 z M 1789 2301 Q 2192 2317 2438 2494 Q 2685 2672 2685 3008 L 2685 3069 Q 2685 3376 2465 3553 Q 2246 3731 1776 3731 Q 1312 3731 1091 3553 Q 870 3376 870 3069 L 870 3008 Q 870 2784 984 2630 Q 1098 2477 1302 2395 Q 1507 2314 1789 2301 z" transform="scale(0.015625)"/></defs><use xlink:href="#AnekLatin-Regular-38"/><use xlink:href="#AnekLatin-Regular-30" transform="translate(55.550003 0)"/><use xlink:href="#AnekLatin-Regular-30" transform="translate(112.150009 0)"/></g></g></g><g id="text_6"><g style="fill: #0d2418" transform="translate(149.806 274.737109) scale(0.13 -0.13)"><defs><path id="AnekLatin-Medium-73" d="M 1408 -74 Q 1030 -74 745 4 Q 461 83 269 176 L 211 749 Q 448 630 733 542 Q 1018 454 1373 454 Q 1715 454 1880 555 Q 2045 656 2045 854 L 2045 880 Q 2045 1008 1977 1093 Q 1910 1178 1739 1245 Q 1568 1312 1254 1382 Q 861 1472 633 1593 Q 406 1715 308 1892 Q 211 2070 211 2320 L 211 2349 Q 211 2771 505 2988 Q 800 3206 1389 3206 Q 1760 3206 2035 3126 Q 2310 3046 2490 2944 L 2547 2422 Q 2333 2538 2059 2616 Q 1786 2694 1453 2694 Q 1226 2694 1088 2651 Q 950 2608 889 2529 Q 829 2451 829 2342 L 829 2320 Q 829 2202 893 2114 Q 957 2026 1121 1957 Q 1286 1888 1581 1824 Q 1978 1741 2214 1629 Q 2451 1517 2556 1342 Q 2662 1168 2662 893 L 2662 845 Q 2662 387 2348 156 Q 2035 -74 1408 -74 z" transform="scale(0.015625)"/><path id="AnekLatin-Medium-74" d="M 1562 -64 Q 1187 -64 960 49 Q 733 163 630 392 Q 528 621 528 963 L 528 2877 L 1149 2877 L 1149 1037 Q 1149 749 1280 614 Q 1411 480 1722 480 Q 1907 480 2076 518 Q 2246 557 2390 627 L 2336 96 Q 2182 19 1980 -22 Q 1779 -64 1562 -64 z M 38 2592 L 38 3091 L 2362 3091 L 2307 2592 L 38 2592 z M 534 3037 L 531 3898 L 1158 3971 L 1133 3037 L 534 3037 z" transform="scale(0.015625)"/><path id="AnekLatin-Medium-72" d="M 998 1891 L 864 2381 L 1018 2381 Q 1117 2752 1350 2965 Q 1584 3178 1987 3178 Q 2083 3178 2158 3163 Q 2234 3149 2294 3130 L 2333 2518 Q 2256 2544 2160 2558 Q 2064 2573 1952 2573 Q 1610 2573 1360 2397 Q 1110 2221 998 1891 z M 397 0 L 397 3130 L 1008 3130 L 979 2218 L 1024 2173 L 1024 0 L 397 0 z" transform="scale(0.015625)"/><path id="AnekLatin-Medium-65" d="M 1770 -74 Q 1021 -74 648 283 Q 275 640 275 1312 L 275 1824 Q 275 2486 622 2849 Q 970 3213 1635 3213 Q 2086 3213 2387 3048 Q 2688 2883 2838 2582 Q 2989 2282 2989 1869 L 2989 1750 Q 2989 1642 2979 1530 Q 2970 1418 2954 1315 L 2378 1315 Q 2384 1482 2385 1629 Q 2387 1776 2387 1898 Q 2387 2157 2304 2336 Q 2221 2515 2054 2609 Q 1888 2704 1635 2704 Q 1261 2704 1078 2491 Q 896 2278 896 1885 L 896 1590 L 899 1517 L 899 1238 Q 899 1062 952 918 Q 1005 774 1121 670 Q 1238 566 1424 510 Q 1610 454 1875 454 Q 2176 454 2440 531 Q 2704 608 2938 736 L 2880 202 Q 2669 77 2389 1 Q 2109 -74 1770 -74 z M 608 1315 L 608 1786 L 2826 1786 L 2826 1315 L 608 1315 z" transform="scale(0.015625)"/><path id="AnekLatin-Medium-6e" d="M 2470 0 L 2470 1933 Q 2470 2160 2408 2326 Q 2346 2493 2203 2585 Q 2061 2678 1814 2678 Q 1587 2678 1420 2595 Q 1254 2512 1150 2371 Q 1046 2230 1002 2051 L 899 2486 L 1034 2486 Q 1088 2685 1213 2846 Q 1338 3008 1546 3104 Q 1754 3200 2061 3200 Q 2429 3200 2656 3061 Q 2883 2922 2990 2656 Q 3098 2390 3098 2003 L 3098 0 L 2470 0 z M 397 0 L 397 3130 L 1024 3130 L 998 2397 L 1024 2358 L 1024 0 L 397 0 z" transform="scale(0.015625)"/><path id="AnekLatin-Medium-67" d="M 1654 947 Q 995 947 643 1228 Q 291 1510 291 2032 L 291 2083 Q 291 2413 428 2654 Q 566 2896 868 3032 Q 1171 3168 1661 3184 L 3286 3238 L 3286 2749 L 2416 2787 L 2416 2752 Q 2602 2704 2725 2603 Q 2848 2502 2912 2352 Q 2976 2202 2976 1997 L 2976 1962 Q 2976 1469 2641 1208 Q 2307 947 1654 947 z M 1629 -707 L 1709 -707 Q 1981 -707 2169 -668 Q 2358 -630 2459 -547 Q 2560 -464 2560 -326 L 2560 -317 Q 2560 -154 2445 -72 Q 2330 10 2045 35 L 1142 122 L 1299 128 Q 1146 102 1029 49 Q 912 -3 846 -88 Q 781 -173 781 -298 L 781 -304 Q 781 -451 881 -540 Q 982 -630 1172 -668 Q 1363 -707 1629 -707 z M 1590 -1206 Q 1158 -1206 846 -1131 Q 534 -1056 366 -891 Q 198 -726 198 -454 L 198 -442 Q 198 -259 280 -134 Q 362 -10 504 65 Q 646 141 822 166 L 822 198 Q 589 246 475 356 Q 362 467 362 643 L 362 646 Q 362 768 416 856 Q 470 944 580 997 Q 691 1050 858 1066 L 858 1136 L 1517 976 L 1277 986 Q 1088 982 1016 937 Q 944 893 944 810 L 944 806 Q 944 710 1051 664 Q 1158 618 1414 589 L 2176 506 Q 2682 451 2915 259 Q 3149 67 3149 -323 L 3149 -339 Q 3149 -640 2974 -832 Q 2800 -1024 2475 -1115 Q 2150 -1206 1696 -1206 L 1590 -1206 z M 1645 1408 Q 1891 1408 2056 1480 Q 2221 1552 2304 1696 Q 2387 1840 2387 2048 L 2387 2096 Q 2387 2301 2305 2441 Q 2224 2582 2062 2656 Q 1901 2730 1654 2730 L 1638 2730 Q 1373 2730 1206 2651 Q 1040 2573 965 2430 Q 890 2288 890 2093 L 890 2048 Q 890 1840 973 1696 Q 1056 1552 1224 1480 Q 1392 1408 1645 1408 z" transform="scale(0.015625)"/><path id="AnekLatin-Medium-68" d="M 2470 0 L 2470 1933 Q 2470 2160 2408 2326 Q 2346 2493 2203 2585 Q 2061 2678 1814 2678 Q 1587 2678 1422 2595 Q 1258 2512 1155 2371 Q 1053 2230 1008 2051 L 883 2486 L 1040 2486 Q 1094 2685 1219 2846 Q 1344 3008 1552 3104 Q 1760 3200 2061 3200 Q 2429 3200 2656 3061 Q 2883 2922 2990 2656 Q 3098 2390 3098 2003 L 3098 0 L 2470 0 z M 397 0 L 397 4237 L 1021 4237 L 1021 3238 L 1005 2336 L 1024 2291 L 1024 0 L 397 0 z" transform="scale(0.015625)"/><path id="AnekLatin-Medium-20" transform="scale(0.015625)"/><path id="STIXNonUnicode-Regular-e1a8" d="M 3469 2445 L 2362 2445 Q 2976 1990 2976 1280 Q 2976 1082 2893 861 Q 2810 640 2653 425 Q 2496 211 2217 73 Q 1939 -64 1587 -64 Q 973 -64 576 355 Q 179 774 179 1427 Q 179 1811 320 2112 Q 461 2413 678 2576 Q 896 2739 1129 2819 Q 1363 2899 1581 2899 L 3469 2899 L 3469 2445 z M 2470 1274 Q 2470 1690 2185 1987 Q 1901 2285 1536 2445 Q 1139 2438 912 2166 Q 685 1894 685 1459 Q 685 998 941 694 Q 1197 390 1594 390 Q 2022 390 2246 662 Q 2470 934 2470 1274 z" transform="scale(0.015625)"/><path id="AnekLatin-Medium-66" d="M 1462 4326 Q 1706 4326 1902 4284 Q 2099 4243 2259 4179 L 2320 3693 Q 2170 3744 2014 3776 Q 1859 3808 1667 3808 Q 1440 3808 1304 3750 Q 1168 3693 1109 3589 Q 1050 3485 1050 3341 L 1050 3328 Q 1050 3226 1078 3133 Q 1107 3040 1142 2966 L 726 2954 L 726 3027 Q 608 3101 525 3237 Q 442 3373 442 3565 L 442 3581 Q 442 3917 691 4121 Q 941 4326 1462 4326 z M 547 0 L 547 2819 L 1171 2819 L 1171 0 L 547 0 z M 54 2502 L 54 3002 L 787 2998 L 1043 3002 L 2307 3002 L 2253 2502 L 54 2502 z" transform="scale(0.015625)"/><path id="AnekLatin-Medium-28" d="M 1021 1946 L 1021 1603 Q 1021 1130 1101 715 Q 1181 301 1350 -68 Q 1520 -438 1782 -781 L 1130 -781 Q 883 -461 724 -102 Q 566 256 491 672 Q 416 1088 416 1584 L 416 1962 Q 416 2454 493 2868 Q 570 3283 730 3643 Q 890 4003 1136 4323 L 1782 4323 Q 1520 3984 1350 3614 Q 1181 3245 1101 2832 Q 1021 2419 1021 1946 z" transform="scale(0.015625)"/><path id="AnekLatin-Medium-4d" d="M 390 0 L 538 4090 L 1514 4090 L 2394 1286 L 2435 1286 L 3315 4090 L 4291 4090 L 4438 0 L 3814 0 L 3766 1635 L 3722 3414 L 3670 3414 L 2736 474 L 2093 474 L 1158 3414 L 1107 3414 L 1059 1632 L 1014 0 L 390 0 z" transform="scale(0.015625)"/><path id="AnekLatin-Medium-50" d="M 877 1312 L 877 1843 L 2006 1843 Q 2390 1843 2564 2033 Q 2739 2224 2739 2563 L 2739 2842 Q 2739 3190 2566 3376 Q 2394 3562 2013 3562 L 874 3562 L 874 4090 L 2026 4090 Q 2730 4090 3054 3765 Q 3379 3440 3379 2858 L 3379 2547 Q 3379 1965 3052 1638 Q 2726 1312 2022 1312 L 877 1312 z M 454 0 L 454 4090 L 1085 4090 L 1085 1686 L 1088 1398 L 1088 0 L 454 0 z" transform="scale(0.015625)"/><path id="AnekLatin-Medium-61" d="M 2237 0 L 2262 742 L 2240 838 L 2240 1824 L 2243 1981 Q 2243 2342 2059 2512 Q 1875 2682 1469 2682 Q 1139 2682 857 2589 Q 576 2496 349 2374 L 406 2899 Q 534 2973 707 3043 Q 880 3114 1097 3158 Q 1315 3203 1574 3203 Q 1930 3203 2176 3118 Q 2422 3034 2572 2874 Q 2723 2714 2792 2490 Q 2861 2266 2861 1990 L 2861 0 L 2237 0 z M 1178 -70 Q 714 -70 467 158 Q 221 387 221 810 L 221 906 Q 221 1354 497 1570 Q 774 1786 1370 1869 L 2310 2003 L 2346 1549 L 1443 1421 Q 1120 1376 982 1265 Q 845 1155 845 941 L 845 896 Q 845 682 977 566 Q 1110 451 1382 451 Q 1632 451 1811 534 Q 1990 618 2102 757 Q 2214 896 2256 1066 L 2342 646 L 2227 646 Q 2176 454 2057 291 Q 1939 128 1726 29 Q 1514 -70 1178 -70 z" transform="scale(0.015625)"/><path id="AnekLatin-Medium-2c" d="M 944 909 Q 954 845 965 747 Q 976 650 976 538 Q 976 147 864 -185 Q 752 -518 486 -829 L 48 -701 Q 208 -435 286 -140 Q 365 154 365 512 Q 365 618 360 714 Q 355 810 342 909 L 944 909 z" transform="scale(0.015625)"/><path id="AnekLatin-Medium-6c" d="M 410 0 L 410 4237 L 1037 4237 L 1037 0 L 410 0 z" transform="scale(0.015625)"/><path id="AnekLatin-Medium-6f" d="M 1683 -80 Q 992 -80 633 288 Q 275 656 275 1347 L 275 1792 Q 275 2480 633 2846 Q 992 3213 1683 3213 Q 2374 3213 2731 2846 Q 3088 2480 3088 1792 L 3088 1347 Q 3088 656 2731 288 Q 2374 -80 1683 -80 z M 1683 429 Q 2064 429 2262 656 Q 2461 883 2461 1309 L 2461 1830 Q 2461 2253 2262 2478 Q 2064 2704 1683 2704 Q 1302 2704 1104 2478 Q 906 2253 906 1830 L 906 1309 Q 906 883 1104 656 Q 1302 429 1683 429 z" transform="scale(0.015625)"/><path id="AnekLatin-Medium-63" d="M 1648 -74 Q 950 -74 612 296 Q 275 666 275 1341 L 275 1792 Q 275 2470 614 2838 Q 954 3206 1648 3206 Q 1840 3206 2001 3171 Q 2163 3136 2294 3080 Q 2426 3024 2518 2963 L 2573 2426 Q 2419 2534 2217 2609 Q 2016 2685 1747 2685 Q 1318 2685 1112 2453 Q 906 2221 906 1779 L 906 1357 Q 906 925 1112 691 Q 1318 458 1747 458 Q 2019 458 2227 533 Q 2435 608 2602 717 L 2547 173 Q 2400 80 2171 3 Q 1942 -74 1648 -74 z" transform="scale(0.015625)"/><path id="AnekLatin-Medium-29" d="M 896 1946 Q 896 2419 816 2832 Q 736 3245 568 3614 Q 400 3984 134 4323 L 781 4323 Q 1027 4003 1187 3643 Q 1347 3283 1424 2868 Q 1501 2454 1501 1962 L 1501 1584 Q 1501 1088 1425 672 Q 1350 256 1193 -102 Q 1037 -461 787 -781 L 134 -781 Q 400 -438 568 -68 Q 736 301 816 715 Q 896 1130 896 1603 L 896 1946 z" transform="scale(0.015625)"/></defs><use xlink:href="#AnekLatin-Medium-73" transform="translate(0 0.453125)"/><use xlink:href="#AnekLatin-Medium-74" transform="translate(44.600006 0.453125)"/><use xlink:href="#AnekLatin-Medium-72" transform="translate(84.150009 0.453125)"/><use xlink:href="#AnekLatin-Medium-65" transform="translate(121.850006 0.453125)"/><use xlink:href="#AnekLatin-Medium-6e" transform="translate(172.450012 0.453125)"/><use xlink:href="#AnekLatin-Medium-67" transform="translate(226.450012 0.453125)"/><use xlink:href="#AnekLatin-Medium-74" transform="translate(278.200012 0.453125)"/><use xlink:href="#AnekLatin-Medium-68" transform="translate(317.750015 0.453125)"/><use xlink:href="#AnekLatin-Medium-20" transform="translate(371.750015 0.453125)"/><use xlink:href="#STIXNonUnicode-Regular-e1a8" transform="translate(392.550018 0.453125)"/><use xlink:href="#AnekLatin-Medium-66" transform="translate(446.005869 -14.21875) scale(0.7)"/><use xlink:href="#AnekLatin-Medium-20" transform="translate(474.701181 0.453125)"/><use xlink:href="#AnekLatin-Medium-28" transform="translate(495.501184 0.453125)"/><use xlink:href="#AnekLatin-Medium-4d" transform="translate(525.35119 0.453125)"/><use xlink:href="#AnekLatin-Medium-50" transform="translate(600.801202 0.453125)"/><use xlink:href="#AnekLatin-Medium-61" transform="translate(657.501215 0.453125)"/><use xlink:href="#AnekLatin-Medium-2c" transform="translate(707.601221 0.453125)"/><use xlink:href="#AnekLatin-Medium-20" transform="translate(727.451212 0.453125)"/><use xlink:href="#AnekLatin-Medium-6c" transform="translate(748.251215 0.453125)"/><use xlink:href="#AnekLatin-Medium-6f" transform="translate(770.851221 0.453125)"/><use xlink:href="#AnekLatin-Medium-67" transform="translate(823.401224 0.453125)"/><use xlink:href="#AnekLatin-Medium-20" transform="translate(875.151224 0.453125)"/><use xlink:href="#AnekLatin-Medium-73" transform="translate(895.951227 0.453125)"/><use xlink:href="#AnekLatin-Medium-63" transform="translate(940.551233 0.453125)"/><use xlink:href="#AnekLatin-Medium-61" transform="translate(984.201242 0.453125)"/><use xlink:href="#AnekLatin-Medium-6c" transform="translate(1034.301248 0.453125)"/><use xlink:href="#AnekLatin-Medium-65" transform="translate(1056.901254 0.453125)"/><use xlink:href="#AnekLatin-Medium-29" transform="translate(1107.50126 0.453125)"/></g></g></g><g id="matplotlib.axis_2"><g id="ytick_1"><g id="line2d_6"><defs><path id="mfe64a6cef3" d="M 0 0 L -4 0" style="stroke: #35513f; stroke-width: 0.9"/></defs><g><use xlink:href="#mfe64a6cef3" x="56.448" y="235.2" style="fill: #35513f; stroke: #35513f; stroke-width: 0.9"/></g></g><g id="text_7"><g style="fill: #35513f" transform="translate(37.678 239.009375) scale(0.115 -0.115)"><defs><path id="AnekLatin-Regular-2212" d="M 333 1776 L 333 2202 L 2797 2202 L 2797 1776 L 333 1776 z" transform="scale(0.015625)"/></defs><use xlink:href="#AnekLatin-Regular-2212"/><use xlink:href="#AnekLatin-Regular-33" transform="translate(48.850006 0)"/></g></g></g><g id="ytick_2"><g id="line2d_7"><g><use xlink:href="#mfe64a6cef3" x="56.448" y="187.2" style="fill: #35513f; stroke: #35513f; stroke-width: 0.9"/></g></g><g id="text_8"><g style="fill: #35513f" transform="translate(37.931359 191.009375) scale(0.115 -0.115)"><use xlink:href="#AnekLatin-Regular-2212"/><use xlink:href="#AnekLatin-Regular-32" transform="translate(48.850006 0)"/></g></g></g><g id="ytick_3"><g id="line2d_8"><g><use xlink:href="#mfe64a6cef3" x="56.448" y="139.2" style="fill: #35513f; stroke: #35513f; stroke-width: 0.9"/></g></g><g id="text_9"><g style="fill: #35513f" transform="translate(39.467687 143.009375) scale(0.115 -0.115)"><defs><path id="AnekLatin-Regular-31" d="M 1146 0 L 1146 3546 L 1104 3546 L 157 2982 L 173 3501 L 1149 4090 L 1677 4090 L 1677 0 L 1146 0 z" transform="scale(0.015625)"/></defs><use xlink:href="#AnekLatin-Regular-2212"/><use xlink:href="#AnekLatin-Regular-31" transform="translate(48.850006 0)"/></g></g></g><g id="ytick_4"><g id="line2d_9"><g><use xlink:href="#mfe64a6cef3" x="56.448" y="91.2" style="fill: #35513f; stroke: #35513f; stroke-width: 0.9"/></g></g><g id="text_10"><g style="fill: #35513f" transform="translate(42.439719 95.009375) scale(0.115 -0.115)"><use xlink:href="#AnekLatin-Regular-30"/></g></g></g><g id="ytick_5"><g id="line2d_10"><g><use xlink:href="#mfe64a6cef3" x="56.448" y="43.2" style="fill: #35513f; stroke: #35513f; stroke-width: 0.9"/></g></g><g id="text_11"><g style="fill: #35513f" transform="translate(45.084719 47.009375) scale(0.115 -0.115)"><use xlink:href="#AnekLatin-Regular-31"/></g></g></g><g id="text_12"><g style="fill: #0d2418" transform="translate(31.441594 155.73) rotate(-90) scale(0.13 -0.13)"><defs><path id="AnekLatin-Medium-31" d="M 1107 0 L 1107 3427 L 1062 3427 L 144 2912 L 160 3533 L 1133 4090 L 1747 4090 L 1747 0 L 1107 0 z" transform="scale(0.015625)"/><path id="AnekLatin-Medium-2f" d="M 67 -774 L 2074 4298 L 2653 4298 L 650 -774 L 67 -774 z" transform="scale(0.015625)"/></defs><use xlink:href="#AnekLatin-Medium-6c" transform="translate(0 0.453125)"/><use xlink:href="#AnekLatin-Medium-6e" transform="translate(22.600006 0.453125)"/><use xlink:href="#AnekLatin-Medium-20" transform="translate(76.600006 0.453125)"/><use xlink:href="#AnekLatin-Medium-6c" transform="translate(97.400009 0.453125)"/><use xlink:href="#AnekLatin-Medium-6e" transform="translate(120.000015 0.453125)"/><use xlink:href="#AnekLatin-Medium-28" transform="translate(174.000015 0.453125)"/><use xlink:href="#AnekLatin-Medium-31" transform="translate(203.850021 0.453125)"/><use xlink:href="#AnekLatin-Medium-2f" transform="translate(238.100021 0.453125)"/><use xlink:href="#AnekLatin-Medium-50" transform="translate(280.600021 0.453125)"/><use xlink:href="#AnekLatin-Medium-73" transform="translate(338.155893 -14.21875) scale(0.7)"/><use xlink:href="#AnekLatin-Medium-29" transform="translate(371.82121 0.453125)"/></g></g></g><g id="line2d_11"><path d="M 280.1 289 L 281.8 277.6 L 288.6 231.9 L 295.4 186.2 L 302.3 140.5 L 309.1 94.8 L 315.9 49.0 L 322.8 3.3 L 323.4 -1" clip-path="url(#p336123d9b0)" style="fill: none; stroke-dasharray: 8,4.8; stroke-dashoffset: 0; stroke: #0d2418; stroke-width: 1.6"/></g><g id="patch_3"><path d="M 56.4 244.8 L 56.4 14.4" style="fill: none; stroke: #35513f; stroke-linejoin: miter; stroke-linecap: square"/></g><g id="patch_4"><path d="M 56.4 244.8 L 391.1 244.8" style="fill: none; stroke: #35513f; stroke-linejoin: miter; stroke-linecap: square"/></g><g id="line2d_12"><path d="M 87.7 289 L 90.5 282.2 L 97.4 265.8 L 104.2 249.5 L 111.0 233.2 L 117.9 216.8 L 124.7 200.5 L 131.5 184.2 L 138.4 167.9 L 145.2 151.5 L 152.0 135.2 L 158.8 118.9 L 165.7 102.6 L 172.5 86.2 L 179.3 69.9 L 186.2 53.6 L 193.0 37.3 L 199.8 20.9 L 206.7 4.6 L 209.0 -1" clip-path="url(#p336123d9b0)" style="fill: none; stroke: #35513f; stroke-width: 2.2; stroke-linecap: round"/></g><g id="line2d_13"><path d="M 226.9 289 L 227.1 288.3 L 234.0 272.0 L 240.8 255.7 L 247.6 239.4 L 254.5 223.0 L 261.3 206.7 L 268.1 190.4 L 274.9 174.1 L 281.8 157.7 L 288.6 141.4 L 295.4 125.1 L 302.3 108.8 L 309.1 92.4 L 315.9 76.1 L 322.8 59.8 L 329.6 43.5 L 336.4 27.1 L 343.2 10.8 L 348.2 -1" clip-path="url(#p336123d9b0)" style="fill: none; stroke: #1f6f78; stroke-width: 2.2; stroke-linecap: round"/></g><g id="line2d_14"><defs><path id="med0bc60fb9" d="M 0 3.2 C 0.8 3.2 1.6 2.9 2.2 2.2 C 2.9 1.6 3.2 0.8 3.2 0 C 3.2 -0.8 2.9 -1.6 2.2 -2.2 C 1.6 -2.9 0.8 -3.2 0 -3.2 C -0.8 -3.2 -1.6 -2.9 -2.2 -2.2 C -2.9 -1.6 -3.2 -0.8 -3.2 0 C -3.2 0.8 -2.9 1.6 -2.2 2.2 C -1.6 2.9 -0.8 3.2 0 3.2 z" style="stroke: #35513f"/></defs><g clip-path="url(#p336123d9b0)"><use xlink:href="#med0bc60fb9" x="123.299463" y="204.029695" style="fill: #35513f; stroke: #35513f"/><use xlink:href="#med0bc60fb9" x="138.249752" y="168.292322" style="fill: #35513f; stroke: #35513f"/><use xlink:href="#med0bc60fb9" x="147.523032" y="146.125348" style="fill: #35513f; stroke: #35513f"/><use xlink:href="#med0bc60fb9" x="154.55456" y="129.317089" style="fill: #35513f; stroke: #35513f"/><use xlink:href="#med0bc60fb9" x="160.447193" y="115.231259" style="fill: #35513f; stroke: #35513f"/><use xlink:href="#med0bc60fb9" x="165.727771" y="102.608494" style="fill: #35513f; stroke: #35513f"/><use xlink:href="#med0bc60fb9" x="170.731981" y="90.646361" style="fill: #35513f; stroke: #35513f"/><use xlink:href="#med0bc60fb9" x="175.757624" y="78.632997" style="fill: #35513f; stroke: #35513f"/><use xlink:href="#med0bc60fb9" x="181.211504" y="65.595967" style="fill: #35513f; stroke: #35513f"/><use xlink:href="#med0bc60fb9" x="188.06235" y="49.219614" style="fill: #35513f; stroke: #35513f"/></g></g><g id="line2d_15"><defs><path id="mbbeccf095d" d="M 0 3.2 C 0.8 3.2 1.6 2.9 2.2 2.2 C 2.9 1.6 3.2 0.8 3.2 0 C 3.2 -0.8 2.9 -1.6 2.2 -2.2 C 1.6 -2.9 0.8 -3.2 0 -3.2 C -0.8 -3.2 -1.6 -2.9 -2.2 -2.2 C -2.9 -1.6 -3.2 -0.8 -3.2 0 C -3.2 0.8 -2.9 1.6 -2.2 2.2 C -1.6 2.9 -0.8 3.2 0 3.2 z" style="stroke: #1f6f78"/></defs><g clip-path="url(#p336123d9b0)"><use xlink:href="#mbbeccf095d" x="262.484855" y="204.029695" style="fill: #1f6f78; stroke: #1f6f78"/><use xlink:href="#mbbeccf095d" x="277.435144" y="168.292322" style="fill: #1f6f78; stroke: #1f6f78"/><use xlink:href="#mbbeccf095d" x="286.708424" y="146.125348" style="fill: #1f6f78; stroke: #1f6f78"/><use xlink:href="#mbbeccf095d" x="293.739952" y="129.317089" style="fill: #1f6f78; stroke: #1f6f78"/><use xlink:href="#mbbeccf095d" x="299.632585" y="115.231259" style="fill: #1f6f78; stroke: #1f6f78"/><use xlink:href="#mbbeccf095d" x="304.913163" y="102.608494" style="fill: #1f6f78; stroke: #1f6f78"/><use xlink:href="#mbbeccf095d" x="309.917373" y="90.646361" style="fill: #1f6f78; stroke: #1f6f78"/><use xlink:href="#mbbeccf095d" x="314.943016" y="78.632997" style="fill: #1f6f78; stroke: #1f6f78"/><use xlink:href="#mbbeccf095d" x="320.396896" y="65.595967" style="fill: #1f6f78; stroke: #1f6f78"/><use xlink:href="#mbbeccf095d" x="327.247741" y="49.219614" style="fill: #1f6f78; stroke: #1f6f78"/></g></g><g id="patch_5"><path d="M 144.2 168.2 Q 207.8 168.2 269.9 168.2" clip-path="url(#p336123d9b0)" style="fill: none; stroke: #b0241a; stroke-width: 1.3; stroke-linecap: round"/><path d="M 265.5 166.0 L 269.9 168.2 L 265.5 170.4 z" clip-path="url(#p336123d9b0)" style="fill: #b0241a; stroke: #b0241a; stroke-width: 1.3; stroke-linecap: round"/></g><g id="patch_6"><path d="M 171.7 102.6 Q 235.3 102.6 297.4 102.6" clip-path="url(#p336123d9b0)" style="fill: none; stroke: #b0241a; stroke-width: 1.3; stroke-linecap: round"/><path d="M 293.0 100.4 L 297.4 102.6 L 293.0 104.8 z" clip-path="url(#p336123d9b0)" style="fill: #b0241a; stroke: #b0241a; stroke-width: 1.3; stroke-linecap: round"/></g><g id="patch_7"><path d="M 187.2 65.5 Q 250.8 65.5 312.9 65.5" clip-path="url(#p336123d9b0)" style="fill: none; stroke: #b0241a; stroke-width: 1.3; stroke-linecap: round"/><path d="M 308.5 63.3 L 312.9 65.5 L 308.5 67.7 z" clip-path="url(#p336123d9b0)" style="fill: #b0241a; stroke: #b0241a; stroke-width: 1.3; stroke-linecap: round"/></g><g id="text_13"><g id="patch_8"><path d="M 75.4 56.5 L 112.6 56.5 Q 114.0 56.5 114.0 55.1 L 114.0 36.0 Q 114.0 34.6 112.6 34.6 L 75.4 34.6 Q 74.0 34.6 74.0 36.0 L 74.0 55.1 Q 74.0 56.5 75.4 56.5 z" style="fill: #e6f1e2; opacity: 0.88"/></g><g style="fill: #35513f" transform="translate(87.600466 43.621641) scale(0.115 -0.115)"><defs><path id="AnekLatin-Regular-4b" d="M 2870 0 L 1437 1878 L 970 1878 L 970 2301 L 1437 2301 L 2851 4090 L 3456 4090 L 1837 2051 L 1834 2182 L 3498 0 L 2870 0 z M 483 0 L 483 4090 L 1011 4090 L 1011 0 L 483 0 z" transform="scale(0.015625)"/><path id="AnekLatin-Regular-49" d="M 1021 0 L 490 0 L 490 4090 L 1021 4090 L 1021 0 z" transform="scale(0.015625)"/><path id="AnekLatin-Regular-43" d="M 1850 -74 Q 1091 -74 712 352 Q 333 778 333 1562 L 333 2531 Q 333 3315 710 3739 Q 1088 4163 1843 4163 Q 2086 4163 2286 4118 Q 2486 4074 2643 4003 Q 2800 3933 2909 3856 L 2954 3363 Q 2765 3498 2510 3598 Q 2256 3699 1914 3699 Q 1398 3699 1136 3393 Q 874 3088 874 2525 L 874 1581 Q 874 1021 1139 712 Q 1405 403 1933 403 Q 2272 403 2533 502 Q 2794 602 2986 746 L 2941 240 Q 2832 163 2672 89 Q 2512 16 2305 -29 Q 2099 -74 1850 -74 z" transform="scale(0.015625)"/></defs><use xlink:href="#AnekLatin-Regular-4b" transform="translate(0 0.09375)"/><use xlink:href="#AnekLatin-Regular-49" transform="translate(57.503954 -14.545312) scale(0.7)"/><use xlink:href="#AnekLatin-Regular-43" transform="translate(74.023959 -14.545312) scale(0.7)"/></g><g style="fill: #35513f" transform="translate(75.40238 53.21875) scale(0.115 -0.115)"><defs><path id="AnekLatin-Regular-73" d="M 1398 -70 Q 1021 -70 739 11 Q 458 93 272 189 L 224 669 Q 458 547 738 457 Q 1018 368 1373 368 Q 1734 368 1916 483 Q 2099 598 2099 826 L 2099 861 Q 2099 1008 2030 1104 Q 1962 1200 1782 1273 Q 1603 1347 1274 1421 Q 880 1507 653 1624 Q 426 1741 328 1913 Q 230 2086 230 2336 L 230 2365 Q 230 2774 515 2985 Q 800 3197 1373 3197 Q 1741 3197 2011 3113 Q 2282 3030 2454 2928 L 2502 2490 Q 2294 2611 2025 2691 Q 1757 2771 1421 2771 Q 1178 2771 1027 2721 Q 877 2672 809 2581 Q 742 2490 742 2362 L 742 2336 Q 742 2195 809 2097 Q 877 2000 1051 1928 Q 1226 1856 1536 1789 Q 1936 1709 2171 1597 Q 2406 1485 2508 1313 Q 2611 1142 2611 874 L 2611 819 Q 2611 378 2304 154 Q 1997 -70 1398 -70 z" transform="scale(0.015625)"/><path id="AnekLatin-Regular-6c" d="M 438 0 L 438 4240 L 954 4240 L 954 0 L 438 0 z" transform="scale(0.015625)"/><path id="AnekLatin-Regular-6f" d="M 1664 -80 Q 992 -80 645 283 Q 298 646 298 1328 L 298 1805 Q 298 2483 646 2844 Q 995 3206 1664 3206 Q 2336 3206 2683 2844 Q 3030 2483 3030 1805 L 3030 1328 Q 3030 646 2683 283 Q 2336 -80 1664 -80 z M 1664 342 Q 2080 342 2296 588 Q 2512 835 2512 1299 L 2512 1834 Q 2512 2294 2296 2539 Q 2080 2784 1664 2784 Q 1251 2784 1033 2539 Q 816 2294 816 1834 L 816 1299 Q 816 835 1033 588 Q 1251 342 1664 342 z" transform="scale(0.015625)"/><path id="AnekLatin-Regular-70" d="M 1962 -67 Q 1674 -67 1462 29 Q 1251 125 1120 304 Q 989 483 944 720 L 774 720 L 925 1206 Q 938 925 1051 737 Q 1165 550 1360 457 Q 1555 365 1802 365 Q 2195 365 2404 595 Q 2614 826 2614 1270 L 2614 1869 Q 2614 2310 2406 2540 Q 2198 2771 1802 2771 Q 1565 2771 1382 2678 Q 1200 2586 1080 2426 Q 960 2266 915 2061 L 787 2422 L 938 2422 Q 989 2637 1112 2811 Q 1235 2986 1451 3090 Q 1667 3194 1984 3194 Q 2547 3194 2841 2843 Q 3136 2493 3136 1827 L 3136 1309 Q 3136 637 2840 285 Q 2544 -67 1962 -67 z M 422 -1101 L 422 3123 L 941 3123 L 918 2371 L 925 2211 L 925 896 L 922 790 L 938 -86 L 938 -1101 L 422 -1101 z" transform="scale(0.015625)"/><path id="AnekLatin-Regular-65" d="M 1734 -70 Q 1021 -70 659 278 Q 298 627 298 1277 L 298 1834 Q 298 2493 634 2849 Q 970 3206 1616 3206 Q 2051 3206 2342 3044 Q 2634 2883 2781 2585 Q 2928 2288 2928 1875 L 2928 1760 Q 2928 1658 2920 1555 Q 2912 1453 2899 1354 L 2422 1354 Q 2429 1507 2430 1644 Q 2432 1782 2432 1898 Q 2432 2182 2341 2379 Q 2250 2576 2069 2680 Q 1888 2784 1616 2784 Q 1213 2784 1011 2550 Q 810 2317 810 1882 L 810 1584 L 813 1520 L 813 1222 Q 813 1027 870 870 Q 928 714 1051 600 Q 1174 486 1364 427 Q 1555 368 1818 368 Q 2122 368 2384 448 Q 2646 528 2877 666 L 2829 218 Q 2621 86 2345 8 Q 2070 -70 1734 -70 z M 570 1354 L 570 1744 L 2790 1744 L 2790 1354 L 570 1354 z" transform="scale(0.015625)"/><path id="AnekLatin-Regular-20" transform="scale(0.015625)"/><path id="AnekLatin-Regular-6d" d="M 4323 0 L 4323 1955 Q 4323 2202 4260 2382 Q 4198 2563 4056 2662 Q 3914 2762 3674 2762 Q 3446 2762 3280 2669 Q 3114 2576 3011 2421 Q 2909 2266 2867 2067 L 2787 2435 L 2851 2435 Q 2902 2637 3024 2809 Q 3146 2982 3354 3088 Q 3562 3194 3869 3194 Q 4218 3194 4430 3056 Q 4643 2918 4742 2654 Q 4842 2390 4842 2013 L 4842 0 L 4323 0 z M 422 0 L 422 3123 L 941 3123 L 918 2374 L 941 2342 L 941 0 L 422 0 z M 2374 0 L 2374 1955 Q 2374 2202 2312 2382 Q 2250 2563 2109 2662 Q 1968 2762 1728 2762 Q 1498 2762 1331 2669 Q 1165 2576 1062 2417 Q 960 2259 918 2058 L 822 2426 L 938 2426 Q 986 2637 1104 2811 Q 1222 2986 1425 3090 Q 1629 3194 1920 3194 Q 2352 3194 2577 2970 Q 2803 2746 2861 2317 Q 2877 2253 2883 2177 Q 2890 2102 2890 2029 L 2890 0 L 2374 0 z" transform="scale(0.015625)"/></defs><use xlink:href="#AnekLatin-Regular-73"/><use xlink:href="#AnekLatin-Regular-6c" transform="translate(44.100006 0)"/><use xlink:href="#AnekLatin-Regular-6f" transform="translate(65.850006 0)"/><use xlink:href="#AnekLatin-Regular-70" transform="translate(117.850006 0)"/><use xlink:href="#AnekLatin-Regular-65" transform="translate(171.550018 0)"/><use xlink:href="#AnekLatin-Regular-20" transform="translate(221.500031 0)"/><use xlink:href="#AnekLatin-Regular-6d" transform="translate(242.550034 0)"/></g></g><g id="text_14"><g id="patch_9"><path d="M 322.5 155.3 L 402.2 155.3 Q 403.5 155.3 403.5 154.0 L 403.5 124.3 Q 403.5 123.0 402.2 123.0 L 322.5 123.0 Q 321.1 123.0 321.1 124.3 L 321.1 154.0 Q 321.1 155.3 322.5 155.3 z" style="fill: #e6f1e2; opacity: 0.88"/></g><g style="fill: #1f6f78" transform="translate(322.521554 132.073594) scale(0.115 -0.115)"><defs><path id="AnekLatin-Regular-2c" d="M 861 867 Q 870 806 881 708 Q 893 611 893 499 Q 893 115 785 -211 Q 678 -538 419 -842 L 61 -726 Q 227 -461 307 -169 Q 387 122 387 477 Q 387 582 380 676 Q 374 771 362 867 L 861 867 z" transform="scale(0.015625)"/><path id="AnekLatin-Regular-61" d="M 2275 0 L 2298 758 L 2278 838 L 2278 1834 L 2282 2016 Q 2282 2397 2088 2579 Q 1894 2762 1475 2762 Q 1139 2762 859 2666 Q 579 2570 362 2442 L 410 2883 Q 531 2957 699 3029 Q 867 3101 1083 3149 Q 1299 3197 1558 3197 Q 1894 3197 2129 3115 Q 2365 3034 2510 2880 Q 2656 2726 2723 2508 Q 2790 2291 2790 2022 L 2790 0 L 2275 0 z M 1200 -67 Q 736 -67 488 158 Q 240 384 240 803 L 240 896 Q 240 1328 507 1541 Q 774 1754 1357 1837 L 2346 1978 L 2374 1600 L 1421 1462 Q 1062 1411 908 1288 Q 755 1165 755 925 L 755 874 Q 755 627 907 496 Q 1059 365 1363 365 Q 1632 365 1824 457 Q 2016 550 2134 707 Q 2253 864 2294 1056 L 2374 704 L 2275 704 Q 2230 499 2107 323 Q 1984 147 1763 40 Q 1542 -67 1200 -67 z" transform="scale(0.015625)"/><path id="AnekLatin-Regular-66" d="M 1472 4326 Q 1712 4326 1902 4283 Q 2093 4240 2253 4176 L 2304 3770 Q 2147 3827 1988 3860 Q 1830 3894 1632 3894 Q 1392 3894 1246 3832 Q 1101 3770 1038 3656 Q 976 3542 976 3382 L 976 3366 Q 976 3254 1005 3153 Q 1034 3053 1069 2970 L 720 2957 L 720 3021 Q 621 3098 545 3235 Q 470 3373 470 3555 L 470 3571 Q 470 3914 713 4120 Q 957 4326 1472 4326 z M 576 0 L 576 2845 L 1091 2845 L 1091 0 L 576 0 z M 61 2592 L 61 3005 L 774 3002 L 986 3005 L 2291 3005 L 2243 2592 L 61 2592 z" transform="scale(0.015625)"/><path id="AnekLatin-Regular-77" d="M 947 0 L 179 3123 L 714 3123 L 1328 378 L 1389 378 L 2029 3040 L 2762 3040 L 3402 378 L 3459 378 L 4080 3123 L 4611 3123 L 3843 0 L 3050 0 L 2522 2221 L 2419 2666 L 2371 2666 L 2272 2221 L 1744 0 L 947 0 z" transform="scale(0.015625)"/><path id="AnekLatin-Regular-3a" d="M 640 -61 Q 477 -61 397 30 Q 317 122 317 288 L 317 320 Q 317 483 397 572 Q 477 662 640 662 Q 803 662 884 572 Q 966 483 966 320 L 966 288 Q 966 122 884 30 Q 803 -61 640 -61 z M 640 2211 Q 477 2211 397 2304 Q 317 2397 317 2560 L 317 2592 Q 317 2758 397 2848 Q 477 2938 640 2938 Q 803 2938 884 2848 Q 966 2758 966 2592 L 966 2560 Q 966 2397 884 2304 Q 803 2211 640 2211 z" transform="scale(0.015625)"/></defs><use xlink:href="#AnekLatin-Regular-32" transform="translate(0 0.40625)"/><use xlink:href="#AnekLatin-Regular-4b" transform="translate(46.949997 0.40625)"/><use xlink:href="#AnekLatin-Regular-49" transform="translate(104.453951 -14.232812) scale(0.7)"/><use xlink:href="#AnekLatin-Regular-43" transform="translate(120.973956 -14.232812) scale(0.7)"/><use xlink:href="#AnekLatin-Regular-2c" transform="translate(158.938799 0.40625)"/><use xlink:href="#AnekLatin-Regular-20" transform="translate(177.738802 0.40625)"/><use xlink:href="#AnekLatin-Regular-73" transform="translate(198.788806 0.40625)"/><use xlink:href="#AnekLatin-Regular-61" transform="translate(242.888812 0.40625)"/><use xlink:href="#AnekLatin-Regular-6d" transform="translate(292.288821 0.40625)"/><use xlink:href="#AnekLatin-Regular-65" transform="translate(373.888827 0.40625)"/><use xlink:href="#AnekLatin-Regular-20" transform="translate(423.838839 0.40625)"/><use xlink:href="#AnekLatin-Regular-66" transform="translate(444.888842 0.40625)"/><use xlink:href="#AnekLatin-Regular-6c" transform="translate(482.438845 0.40625)"/><use xlink:href="#AnekLatin-Regular-61" transform="translate(504.188845 0.40625)"/><use xlink:href="#AnekLatin-Regular-77" transform="translate(553.588854 0.40625)"/><use xlink:href="#AnekLatin-Regular-73" transform="translate(628.43886 0.40625)"/><use xlink:href="#AnekLatin-Regular-3a" transform="translate(672.538867 0.40625)"/></g><g style="fill: #1f6f78" transform="translate(328.499757 142.051641) scale(0.115 -0.115)"><use xlink:href="#AnekLatin-Regular-73"/><use xlink:href="#AnekLatin-Regular-61" transform="translate(44.100006 0)"/><use xlink:href="#AnekLatin-Regular-6d" transform="translate(93.500015 0)"/><use xlink:href="#AnekLatin-Regular-65" transform="translate(175.100021 0)"/><use xlink:href="#AnekLatin-Regular-20" transform="translate(225.050034 0)"/><use xlink:href="#AnekLatin-Regular-73" transform="translate(246.100037 0)"/><use xlink:href="#AnekLatin-Regular-6c" transform="translate(290.200043 0)"/><use xlink:href="#AnekLatin-Regular-6f" transform="translate(311.950043 0)"/><use xlink:href="#AnekLatin-Regular-70" transform="translate(363.950043 0)"/><use xlink:href="#AnekLatin-Regular-65" transform="translate(417.650055 0)"/><use xlink:href="#AnekLatin-Regular-20" transform="translate(467.600067 0)"/><use xlink:href="#AnekLatin-Regular-6d" transform="translate(488.65007 0)"/><use xlink:href="#AnekLatin-Regular-2c" transform="translate(570.250076 0)"/></g><g style="fill: #1f6f78" transform="translate(336.206554 152.029688) scale(0.115 -0.115)"><defs><path id="AnekLatin-Regular-64" d="M 1453 -67 Q 890 -67 595 281 Q 301 630 301 1299 L 301 1814 Q 301 2486 598 2840 Q 896 3194 1475 3194 Q 1763 3194 1974 3096 Q 2186 2998 2317 2822 Q 2448 2646 2493 2406 L 2662 2406 L 2509 1930 Q 2499 2205 2385 2392 Q 2272 2579 2078 2675 Q 1885 2771 1635 2771 Q 1238 2771 1028 2540 Q 819 2310 819 1862 L 819 1267 Q 819 826 1028 595 Q 1238 365 1635 365 Q 1872 365 2054 456 Q 2237 547 2357 708 Q 2477 870 2522 1075 L 2650 704 L 2496 704 Q 2451 493 2324 317 Q 2198 141 1985 37 Q 1773 -67 1453 -67 z M 2496 0 L 2518 755 L 2509 922 L 2509 2227 L 2512 2336 L 2499 3222 L 2499 4240 L 3014 4240 L 3014 0 L 2496 0 z" transform="scale(0.015625)"/><path id="AnekLatin-Regular-75" d="M 899 3123 L 899 1181 Q 899 934 968 750 Q 1037 566 1193 465 Q 1350 365 1616 365 Q 1866 365 2045 456 Q 2224 547 2337 707 Q 2451 867 2493 1069 L 2586 701 L 2474 701 Q 2426 490 2298 315 Q 2170 141 1954 37 Q 1738 -67 1421 -67 Q 1053 -67 824 72 Q 595 211 489 478 Q 384 746 384 1123 L 384 3123 L 899 3123 z M 2989 3123 L 2989 0 L 2470 0 L 2493 749 L 2470 781 L 2470 3123 L 2989 3123 z" transform="scale(0.015625)"/><path id="AnekLatin-Regular-62" d="M 1962 -67 Q 1674 -67 1461 29 Q 1248 125 1117 304 Q 986 483 941 720 L 768 720 L 925 1206 Q 941 925 1057 737 Q 1174 550 1369 457 Q 1565 365 1811 365 Q 2202 365 2408 595 Q 2614 826 2614 1280 L 2614 1866 Q 2614 2310 2406 2540 Q 2198 2771 1802 2771 Q 1565 2771 1382 2678 Q 1200 2586 1080 2426 Q 960 2266 915 2061 L 797 2422 L 944 2422 Q 992 2637 1115 2811 Q 1238 2986 1452 3090 Q 1667 3194 1984 3194 Q 2547 3194 2841 2843 Q 3136 2493 3136 1827 L 3136 1309 Q 3136 637 2837 285 Q 2538 -67 1962 -67 z M 422 0 L 422 4240 L 938 4240 L 938 3222 L 922 2326 L 925 2227 L 925 922 L 918 755 L 941 0 L 422 0 z" transform="scale(0.015625)"/></defs><use xlink:href="#STIXNonUnicode-Regular-e1a8" transform="translate(0 0.75)"/><use xlink:href="#AnekLatin-Regular-30" transform="translate(53.453936 -13.889062) scale(0.7)"/><use xlink:href="#AnekLatin-Regular-20" transform="translate(95.513784 0.75)"/><use xlink:href="#AnekLatin-Regular-64" transform="translate(116.563787 0.75)"/><use xlink:href="#AnekLatin-Regular-6f" transform="translate(170.263799 0.75)"/><use xlink:href="#AnekLatin-Regular-75" transform="translate(222.263799 0.75)"/><use xlink:href="#AnekLatin-Regular-62" transform="translate(275.563802 0.75)"/><use xlink:href="#AnekLatin-Regular-6c" transform="translate(329.263815 0.75)"/><use xlink:href="#AnekLatin-Regular-65" transform="translate(351.013815 0.75)"/><use xlink:href="#AnekLatin-Regular-64" transform="translate(400.963827 0.75)"/></g></g><g id="text_15"><g id="patch_10"><path d="M 153.8 198.3 L 254.7 198.3 Q 256.1 198.3 256.1 196.9 L 256.1 187.0 Q 256.1 185.6 254.7 185.6 L 153.8 185.6 Q 152.4 185.6 152.4 187.0 L 152.4 196.9 Q 152.4 198.3 153.8 198.3 z" style="fill: #e6f1e2; opacity: 0.88"/></g><g style="fill: #b0241a" transform="translate(153.817454 194.875) scale(0.115 -0.115)"><defs><path id="AnekLatin-Regular-76" d="M 1619 355 L 2483 3123 L 3021 3123 L 2006 0 L 1155 0 L 141 3123 L 678 3123 L 1542 355 L 1619 355 z" transform="scale(0.015625)"/><path id="AnekLatin-Regular-72" d="M 915 1910 L 797 2310 L 925 2317 Q 1027 2714 1276 2942 Q 1526 3171 1939 3171 Q 2042 3171 2123 3155 Q 2205 3139 2269 3117 L 2301 2614 Q 2221 2640 2123 2656 Q 2026 2672 1907 2672 Q 1555 2672 1294 2477 Q 1034 2282 915 1910 z M 422 0 L 422 3123 L 928 3123 L 902 2202 L 941 2163 L 941 0 L 422 0 z" transform="scale(0.015625)"/><path id="AnekLatin-Regular-79" d="M 1827 483 L 1555 365 L 2490 3123 L 3024 3123 L 1555 -1101 L 1030 -1101 L 1523 326 L 1750 128 L 1162 128 L 141 3123 L 678 3123 L 1530 483 L 1827 483 z" transform="scale(0.015625)"/><path id="AnekLatin-Regular-d7" d="M 2746 1030 L 2442 758 L 346 2941 L 646 3213 L 2746 1030 z M 326 1030 L 2426 3213 L 2726 2941 L 630 758 L 326 1030 z" transform="scale(0.015625)"/><path id="AnekLatin-Regular-68" d="M 2512 0 L 2512 1942 Q 2512 2195 2443 2377 Q 2374 2560 2219 2661 Q 2064 2762 1795 2762 Q 1549 2762 1369 2669 Q 1190 2576 1080 2417 Q 970 2259 925 2058 L 810 2426 L 944 2426 Q 992 2637 1120 2811 Q 1248 2986 1464 3090 Q 1680 3194 1990 3194 Q 2362 3194 2590 3053 Q 2819 2912 2924 2648 Q 3030 2384 3030 2000 L 3030 0 L 2512 0 z M 422 0 L 422 4240 L 938 4240 L 938 3222 L 922 2326 L 941 2285 L 941 0 L 422 0 z" transform="scale(0.015625)"/><path id="AnekLatin-Regular-69" d="M 432 0 L 432 3123 L 950 3123 L 950 0 L 432 0 z M 691 3635 Q 531 3635 452 3720 Q 374 3805 374 3952 L 374 3968 Q 374 4118 452 4201 Q 531 4285 691 4285 Q 851 4285 931 4201 Q 1011 4118 1011 3968 L 1011 3952 Q 1011 3802 931 3718 Q 851 3635 691 3635 z" transform="scale(0.015625)"/><path id="AnekLatin-Regular-74" d="M 1558 -64 Q 1197 -64 976 45 Q 755 154 656 374 Q 557 595 557 925 L 557 2896 L 1069 2896 L 1069 986 Q 1069 678 1209 532 Q 1350 387 1683 387 Q 1872 387 2046 428 Q 2221 470 2374 547 L 2326 102 Q 2176 26 1974 -19 Q 1773 -64 1558 -64 z M 45 2662 L 45 3078 L 2342 3078 L 2294 2662 L 45 2662 z M 560 3027 L 557 3904 L 1078 3971 L 1056 3027 L 560 3027 z" transform="scale(0.015625)"/><path id="AnekLatin-Regular-6e" d="M 2512 0 L 2512 1942 Q 2512 2195 2443 2377 Q 2374 2560 2219 2661 Q 2064 2762 1795 2762 Q 1549 2762 1368 2669 Q 1187 2576 1075 2417 Q 963 2259 918 2058 L 826 2426 L 938 2426 Q 989 2637 1117 2811 Q 1245 2986 1461 3090 Q 1677 3194 1990 3194 Q 2362 3194 2590 3053 Q 2819 2912 2924 2648 Q 3030 2384 3030 2000 L 3030 0 L 2512 0 z M 422 0 L 422 3123 L 941 3123 L 918 2374 L 941 2346 L 941 0 L 422 0 z" transform="scale(0.015625)"/></defs><use xlink:href="#AnekLatin-Regular-65" transform="translate(0 0.40625)"/><use xlink:href="#AnekLatin-Regular-76" transform="translate(49.950012 0.40625)"/><use xlink:href="#AnekLatin-Regular-65" transform="translate(99.350021 0.40625)"/><use xlink:href="#AnekLatin-Regular-72" transform="translate(149.300034 0.40625)"/><use xlink:href="#AnekLatin-Regular-79" transform="translate(186.600037 0.40625)"/><use xlink:href="#AnekLatin-Regular-20" transform="translate(236.000046 0.40625)"/><use xlink:href="#STIXNonUnicode-Regular-e1a8" transform="translate(257.050049 0.40625)"/><use xlink:href="#AnekLatin-Regular-66" transform="translate(310.503985 -14.232812) scale(0.7)"/><use xlink:href="#AnekLatin-Regular-20" transform="translate(339.228831 0.40625)"/><use xlink:href="#AnekLatin-Regular-d7" transform="translate(360.278834 0.40625)"/><use xlink:href="#AnekLatin-Regular-20" transform="translate(408.278834 0.40625)"/><use xlink:href="#AnekLatin-Regular-32" transform="translate(429.328837 0.40625)"/><use xlink:href="#AnekLatin-Regular-3a" transform="translate(476.278834 0.40625)"/><use xlink:href="#AnekLatin-Regular-20" transform="translate(496.278834 0.40625)"/><use xlink:href="#AnekLatin-Regular-73" transform="translate(517.328837 0.40625)"/><use xlink:href="#AnekLatin-Regular-68" transform="translate(561.428843 0.40625)"/><use xlink:href="#AnekLatin-Regular-69" transform="translate(614.728846 0.40625)"/><use xlink:href="#AnekLatin-Regular-66" transform="translate(636.37884 0.40625)"/><use xlink:href="#AnekLatin-Regular-74" transform="translate(673.928843 0.40625)"/><use xlink:href="#AnekLatin-Regular-20" transform="translate(713.478846 0.40625)"/><use xlink:href="#AnekLatin-Regular-6c" transform="translate(734.528849 0.40625)"/><use xlink:href="#AnekLatin-Regular-6e" transform="translate(756.278849 0.40625)"/><use xlink:href="#AnekLatin-Regular-20" transform="translate(809.578852 0.40625)"/><use xlink:href="#AnekLatin-Regular-32" transform="translate(830.628855 0.40625)"/></g></g><g id="patch_11"><path d="M 319.3 214.9 Q 306.7 212.1 294.0 209.2" style="fill: none; stroke: #0d2418; stroke-width: 0.9; stroke-linecap: round"/></g><g id="text_16"><g id="patch_12"><path d="M 322.6 234.6 L 388.8 234.6 Q 390.1 234.6 390.1 233.3 L 390.1 213.0 Q 390.1 211.7 388.8 211.7 L 322.6 211.7 Q 321.3 211.7 321.3 213.0 L 321.3 233.3 Q 321.3 234.6 322.6 234.6 z" style="fill: #e6f1e2; opacity: 0.88"/></g><g style="fill: #0d2418" transform="translate(322.645234 220.401016) scale(0.11 -0.11)"><defs><path id="AnekLatin-Regular-67" d="M 1638 934 Q 1002 934 661 1212 Q 320 1491 320 2010 L 320 2090 Q 320 2413 453 2653 Q 586 2893 877 3029 Q 1168 3165 1638 3178 L 3232 3229 L 3232 2819 L 2291 2851 L 2288 2829 Q 2509 2784 2649 2675 Q 2790 2566 2859 2403 Q 2928 2240 2928 2022 L 2928 1952 Q 2928 1456 2601 1195 Q 2275 934 1638 934 z M 1616 -787 L 1690 -787 Q 1978 -787 2184 -744 Q 2390 -701 2502 -608 Q 2614 -515 2614 -362 L 2614 -349 Q 2614 -170 2484 -75 Q 2355 19 2042 48 L 1158 128 L 1306 134 Q 1126 109 990 51 Q 854 -6 777 -100 Q 701 -195 701 -336 L 701 -342 Q 701 -506 813 -605 Q 925 -704 1129 -745 Q 1334 -787 1616 -787 z M 1587 -1200 Q 1165 -1200 859 -1128 Q 554 -1056 386 -894 Q 218 -733 218 -461 L 218 -448 Q 218 -256 309 -128 Q 400 0 555 73 Q 710 147 902 173 L 899 192 Q 637 237 512 347 Q 387 458 387 634 L 387 637 Q 387 758 443 844 Q 499 931 612 982 Q 726 1034 902 1046 L 902 1110 L 1498 960 L 1254 966 Q 1037 963 953 913 Q 870 864 870 765 L 870 762 Q 870 656 988 601 Q 1107 547 1392 515 L 2150 438 Q 2646 387 2873 200 Q 3101 13 3101 -352 L 3101 -368 Q 3101 -659 2928 -844 Q 2755 -1030 2438 -1115 Q 2122 -1200 1680 -1200 L 1587 -1200 z M 1632 1318 Q 1901 1318 2078 1396 Q 2256 1475 2347 1633 Q 2438 1792 2438 2022 L 2438 2099 Q 2438 2323 2350 2480 Q 2262 2637 2086 2718 Q 1910 2800 1645 2800 L 1626 2800 Q 1338 2800 1157 2712 Q 976 2624 894 2465 Q 813 2307 813 2096 L 813 2022 Q 813 1792 904 1635 Q 995 1478 1177 1398 Q 1360 1318 1632 1318 z" transform="scale(0.015625)"/><path id="AnekLatin-Regular-52" d="M 2867 0 L 2752 838 Q 2720 1075 2643 1249 Q 2566 1424 2408 1523 Q 2250 1622 1958 1622 L 848 1626 L 848 2045 L 2035 2048 Q 2454 2048 2633 2254 Q 2813 2461 2813 2816 L 2813 2912 Q 2813 3264 2630 3457 Q 2448 3651 2022 3651 L 832 3651 L 832 4090 L 2093 4090 Q 2752 4090 3051 3800 Q 3350 3510 3350 3002 L 3350 2893 Q 3350 2493 3161 2238 Q 2973 1984 2534 1930 L 2534 1866 L 2307 1946 Q 2662 1920 2856 1790 Q 3050 1661 3139 1437 Q 3229 1213 3277 899 L 3414 0 L 2867 0 z M 483 0 L 483 4090 L 1005 4090 L 1005 1904 L 1008 1702 L 1008 0 L 483 0 z" transform="scale(0.015625)"/><path id="AnekLatin-Regular-2d" d="M 394 1466 L 394 1891 L 2211 1891 L 2211 1466 L 394 1466 z" transform="scale(0.015625)"/><path id="AnekLatin-Regular-63" d="M 1626 -70 Q 954 -70 626 293 Q 298 656 298 1322 L 298 1808 Q 298 2477 627 2837 Q 957 3197 1626 3197 Q 1824 3197 1987 3160 Q 2150 3123 2280 3064 Q 2410 3005 2499 2941 L 2544 2490 Q 2394 2605 2187 2685 Q 1981 2765 1702 2765 Q 1254 2765 1035 2517 Q 816 2269 816 1795 L 816 1334 Q 816 870 1035 620 Q 1254 371 1702 371 Q 1990 371 2200 451 Q 2410 531 2573 646 L 2525 189 Q 2384 93 2157 11 Q 1930 -70 1626 -70 z" transform="scale(0.015625)"/></defs><use xlink:href="#AnekLatin-Regular-72"/><use xlink:href="#AnekLatin-Regular-69" transform="translate(37.300003 0)"/><use xlink:href="#AnekLatin-Regular-73" transform="translate(58.949997 0)"/><use xlink:href="#AnekLatin-Regular-69" transform="translate(103.050003 0)"/><use xlink:href="#AnekLatin-Regular-6e" transform="translate(124.699997 0)"/><use xlink:href="#AnekLatin-Regular-67" transform="translate(178 0)"/><use xlink:href="#AnekLatin-Regular-20" transform="translate(229.25 0)"/><use xlink:href="#AnekLatin-Regular-52" transform="translate(250.300003 0)"/><use xlink:href="#AnekLatin-Regular-2d" transform="translate(307.850006 0)"/><use xlink:href="#AnekLatin-Regular-63" transform="translate(348.550003 0)"/><use xlink:href="#AnekLatin-Regular-75" transform="translate(391.950012 0)"/><use xlink:href="#AnekLatin-Regular-72" transform="translate(445.250015 0)"/><use xlink:href="#AnekLatin-Regular-76" transform="translate(482.550018 0)"/><use xlink:href="#AnekLatin-Regular-65" transform="translate(531.950027 0)"/><use xlink:href="#AnekLatin-Regular-3a" transform="translate(581.90004 0)"/></g><g style="fill: #0d2418" transform="translate(322.645234 231.301328) scale(0.11 -0.11)"><use xlink:href="#AnekLatin-Regular-68"/><use xlink:href="#AnekLatin-Regular-69" transform="translate(53.300003 0)"/><use xlink:href="#AnekLatin-Regular-67" transform="translate(74.949997 0)"/><use xlink:href="#AnekLatin-Regular-68" transform="translate(126.199997 0)"/><use xlink:href="#AnekLatin-Regular-65" transform="translate(179.5 0)"/><use xlink:href="#AnekLatin-Regular-72" transform="translate(229.450012 0)"/><use xlink:href="#AnekLatin-Regular-20" transform="translate(266.750015 0)"/><use xlink:href="#AnekLatin-Regular-6d" transform="translate(287.800018 0)"/></g></g></g></g><defs><clipPath id="p336123d9b0"><rect x="56.448" y="14.4" width="334.656" height="230.4"/></clipPath></defs></svg> 