  <svg xmlns:xlink="http://www.w3.org/1999/xlink" width="403.2pt" height="205.2pt" viewBox="0 0 403.2 205.2" xmlns="http://www.w3.org/2000/svg" version="1.1"><defs><style type="text/css">*{stroke-linejoin: round; stroke-linecap: butt}</style></defs><g id="figure_1"><g id="patch_1"><path d="M 0 205.2 L 403.2 205.2 L 403.2 0 L 0 0 L 0 205.2 z" style="fill: none"/></g><g id="axes_1"><g id="line2d_1"><path d="M 7.0 104.8 L 192.8 104.8" clip-path="url(#p1be2630034)" style="fill: none; stroke-dasharray: 4.4,3.3; stroke-dashoffset: 0; stroke: #7c8f80; stroke-width: 1.1"/></g><g id="patch_2"><path d="M 54.9 159.3 C 57.5 159.3 59.9 158.3 61.7 156.5 C 63.5 154.7 64.5 152.3 64.5 149.7 C 64.5 147.2 63.5 144.7 61.7 142.9 C 59.9 141.1 57.5 140.1 54.9 140.1 C 52.4 140.1 49.9 141.1 48.2 142.9 C 46.4 144.7 45.3 147.2 45.3 149.7 C 45.3 152.3 46.4 154.7 48.2 156.5 C 49.9 158.3 52.4 159.3 54.9 159.3 z" clip-path="url(#p1be2630034)" style="fill: #e6f1e2; stroke: #35513f; stroke-width: 1.2; stroke-linejoin: miter"/></g><g id="patch_3"><path d="M 114.9 159.3 C 117.4 159.3 119.9 158.3 121.7 156.5 C 123.5 154.7 124.5 152.3 124.5 149.7 C 124.5 147.2 123.5 144.7 121.7 142.9 C 119.9 141.1 117.4 140.1 114.9 140.1 C 112.3 140.1 109.9 141.1 108.1 142.9 C 106.3 144.7 105.3 147.2 105.3 149.7 C 105.3 152.3 106.3 154.7 108.1 156.5 C 109.9 158.3 112.3 159.3 114.9 159.3 z" clip-path="url(#p1be2630034)" style="fill: #e6f1e2; stroke: #35513f; stroke-width: 1.2; stroke-linejoin: miter"/></g><g id="patch_4"><path d="M 174.8 159.3 C 177.4 159.3 179.8 158.3 181.6 156.5 C 183.4 154.7 184.4 152.3 184.4 149.7 C 184.4 147.2 183.4 144.7 181.6 142.9 C 179.8 141.1 177.4 140.1 174.8 140.1 C 172.3 140.1 169.8 141.1 168.0 142.9 C 166.2 144.7 165.2 147.2 165.2 149.7 C 165.2 152.3 166.2 154.7 168.0 156.5 C 169.8 158.3 172.3 159.3 174.8 159.3 z" clip-path="url(#p1be2630034)" style="fill: #e6f1e2; stroke: #35513f; stroke-width: 1.2; stroke-linejoin: miter"/></g><g id="patch_5"><path d="M 25.0 129.3 C 27.5 129.3 29.9 128.3 31.7 126.5 C 33.5 124.7 34.6 122.3 34.6 119.7 C 34.6 117.2 33.5 114.8 31.7 113.0 C 29.9 111.2 27.5 110.2 25.0 110.2 C 22.4 110.2 20.0 111.2 18.2 113.0 C 16.4 114.8 15.4 117.2 15.4 119.7 C 15.4 122.3 16.4 124.7 18.2 126.5 C 20.0 128.3 22.4 129.3 25.0 129.3 z" clip-path="url(#p1be2630034)" style="fill: #e6f1e2; stroke: #35513f; stroke-width: 1.2; stroke-linejoin: miter"/></g><g id="patch_6"><path d="M 84.9 129.3 C 87.4 129.3 89.9 128.3 91.7 126.5 C 93.5 124.7 94.5 122.3 94.5 119.7 C 94.5 117.2 93.5 114.8 91.7 113.0 C 89.9 111.2 87.4 110.2 84.9 110.2 C 82.4 110.2 79.9 111.2 78.1 113.0 C 76.3 114.8 75.3 117.2 75.3 119.7 C 75.3 122.3 76.3 124.7 78.1 126.5 C 79.9 128.3 82.4 129.3 84.9 129.3 z" clip-path="url(#p1be2630034)" style="fill: #e6f1e2; stroke: #35513f; stroke-width: 1.2; stroke-linejoin: miter"/></g><g id="patch_7"><path d="M 144.8 129.3 C 147.4 129.3 149.8 128.3 151.6 126.5 C 153.4 124.7 154.4 122.3 154.4 119.7 C 154.4 117.2 153.4 114.8 151.6 113.0 C 149.8 111.2 147.4 110.2 144.8 110.2 C 142.3 110.2 139.9 111.2 138.1 113.0 C 136.3 114.8 135.3 117.2 135.3 119.7 C 135.3 122.3 136.3 124.7 138.1 126.5 C 139.9 128.3 142.3 129.3 144.8 129.3 z" clip-path="url(#p1be2630034)" style="fill: #e6f1e2; stroke: #35513f; stroke-width: 1.2; stroke-linejoin: miter"/></g><g id="patch_8"><path d="M 25.0 99.4 C 27.5 99.4 29.9 98.4 31.7 96.6 C 33.5 94.8 34.6 92.3 34.6 89.8 C 34.6 87.2 33.5 84.8 31.7 83.0 C 29.9 81.2 27.5 80.2 25.0 80.2 C 22.4 80.2 20.0 81.2 18.2 83.0 C 16.4 84.8 15.4 87.2 15.4 89.8 C 15.4 92.3 16.4 94.8 18.2 96.6 C 20.0 98.4 22.4 99.4 25.0 99.4 z" clip-path="url(#p1be2630034)" style="fill: #e6f1e2; stroke: #35513f; stroke-width: 1.2; stroke-linejoin: miter"/></g><g id="patch_9"><path d="M 84.9 99.4 C 87.4 99.4 89.9 98.4 91.7 96.6 C 93.5 94.8 94.5 92.3 94.5 89.8 C 94.5 87.2 93.5 84.8 91.7 83.0 C 89.9 81.2 87.4 80.2 84.9 80.2 C 82.4 80.2 79.9 81.2 78.1 83.0 C 76.3 84.8 75.3 87.2 75.3 89.8 C 75.3 92.3 76.3 94.8 78.1 96.6 C 79.9 98.4 82.4 99.4 84.9 99.4 z" clip-path="url(#p1be2630034)" style="fill: #e6f1e2; stroke: #35513f; stroke-width: 1.2; stroke-linejoin: miter"/></g><g id="patch_10"><path d="M 144.8 99.4 C 147.4 99.4 149.8 98.4 151.6 96.6 C 153.4 94.8 154.4 92.3 154.4 89.8 C 154.4 87.2 153.4 84.8 151.6 83.0 C 149.8 81.2 147.4 80.2 144.8 80.2 C 142.3 80.2 139.9 81.2 138.1 83.0 C 136.3 84.8 135.3 87.2 135.3 89.8 C 135.3 92.3 136.3 94.8 138.1 96.6 C 139.9 98.4 142.3 99.4 144.8 99.4 z" clip-path="url(#p1be2630034)" style="fill: #e6f1e2; stroke: #35513f; stroke-width: 1.2; stroke-linejoin: miter"/></g><g id="patch_11"><path d="M 54.9 69.4 C 57.5 69.4 59.9 68.4 61.7 66.6 C 63.5 64.8 64.5 62.4 64.5 59.8 C 64.5 57.3 63.5 54.8 61.7 53.0 C 59.9 51.2 57.5 50.2 54.9 50.2 C 52.4 50.2 49.9 51.2 48.2 53.0 C 46.4 54.8 45.3 57.3 45.3 59.8 C 45.3 62.4 46.4 64.8 48.2 66.6 C 49.9 68.4 52.4 69.4 54.9 69.4 z" clip-path="url(#p1be2630034)" style="fill: #e6f1e2; stroke: #35513f; stroke-width: 1.2; stroke-linejoin: miter"/></g><g id="patch_12"><path d="M 114.9 69.4 C 117.4 69.4 119.9 68.4 121.7 66.6 C 123.5 64.8 124.5 62.4 124.5 59.8 C 124.5 57.3 123.5 54.8 121.7 53.0 C 119.9 51.2 117.4 50.2 114.9 50.2 C 112.3 50.2 109.9 51.2 108.1 53.0 C 106.3 54.8 105.3 57.3 105.3 59.8 C 105.3 62.4 106.3 64.8 108.1 66.6 C 109.9 68.4 112.3 69.4 114.9 69.4 z" clip-path="url(#p1be2630034)" style="fill: #e6f1e2; stroke: #35513f; stroke-width: 1.2; stroke-linejoin: miter"/></g><g id="patch_13"><path d="M 174.8 69.4 C 177.4 69.4 179.8 68.4 181.6 66.6 C 183.4 64.8 184.4 62.4 184.4 59.8 C 184.4 57.3 183.4 54.8 181.6 53.0 C 179.8 51.2 177.4 50.2 174.8 50.2 C 172.3 50.2 169.8 51.2 168.0 53.0 C 166.2 54.8 165.2 57.3 165.2 59.8 C 165.2 62.4 166.2 64.8 168.0 66.6 C 169.8 68.4 172.3 69.4 174.8 69.4 z" clip-path="url(#p1be2630034)" style="fill: #e6f1e2; stroke: #35513f; stroke-width: 1.2; stroke-linejoin: miter"/></g><g id="text_1"><g style="fill: #35513f" transform="translate(38.738796 31.742272) scale(0.12 -0.12)"><defs><path id="AnekLatin-Regular-7b" d="M 1981 4253 L 1981 3869 Q 1907 3894 1814 3912 Q 1722 3930 1610 3930 Q 1373 3930 1267 3814 Q 1162 3699 1162 3437 Q 1162 3322 1173 3152 Q 1184 2982 1195 2808 Q 1206 2634 1206 2499 Q 1206 2304 1158 2155 Q 1110 2006 992 1916 Q 874 1827 659 1795 L 659 1741 L 640 1773 Q 864 1747 987 1654 Q 1110 1562 1158 1410 Q 1206 1258 1206 1056 Q 1206 922 1195 746 Q 1184 570 1173 400 Q 1162 230 1162 109 Q 1162 -154 1267 -270 Q 1373 -387 1616 -387 Q 1725 -387 1816 -368 Q 1907 -349 1981 -323 L 1981 -710 Q 1875 -742 1750 -764 Q 1626 -787 1485 -787 Q 1066 -787 867 -585 Q 669 -384 669 58 Q 669 195 680 376 Q 691 557 704 731 Q 717 906 717 1030 Q 717 1194 672 1307 Q 627 1421 518 1483 Q 410 1546 211 1562 L 211 2003 Q 410 2016 518 2077 Q 627 2138 672 2250 Q 717 2362 717 2525 Q 717 2650 704 2824 Q 691 2998 680 3176 Q 669 3354 669 3488 Q 669 3930 867 4130 Q 1066 4330 1485 4330 Q 1626 4330 1750 4309 Q 1875 4288 1981 4253 z" transform="scale(0.015625)"/><path id="AnekLatin-Regular-31" d="M 1146 0 L 1146 3546 L 1104 3546 L 157 2982 L 173 3501 L 1149 4090 L 1677 4090 L 1677 0 L 1146 0 z" transform="scale(0.015625)"/><path id="AnekLatin-Regular-30" d="M 1811 -77 Q 1082 -77 712 332 Q 342 742 342 1514 L 342 2576 Q 342 3347 710 3756 Q 1078 4166 1811 4166 Q 2541 4166 2910 3756 Q 3280 3347 3280 2576 L 3280 1514 Q 3280 742 2910 332 Q 2541 -77 1811 -77 z M 1811 368 Q 2285 368 2513 657 Q 2742 947 2742 1491 L 2742 2595 Q 2742 3142 2513 3432 Q 2285 3722 1811 3722 Q 1338 3722 1109 3432 Q 880 3142 880 2595 L 880 1491 Q 880 947 1109 657 Q 1338 368 1811 368 z" transform="scale(0.015625)"/><path id="AnekLatin-Regular-7d" d="M 179 4253 Q 285 4288 411 4309 Q 538 4330 675 4330 Q 1094 4330 1292 4130 Q 1491 3930 1491 3488 Q 1491 3354 1480 3176 Q 1469 2998 1457 2824 Q 1446 2650 1446 2525 Q 1446 2362 1489 2250 Q 1533 2138 1643 2077 Q 1754 2016 1949 2003 L 1949 1562 Q 1754 1546 1643 1483 Q 1533 1421 1489 1307 Q 1446 1194 1446 1030 Q 1446 906 1457 731 Q 1469 557 1480 376 Q 1491 195 1491 58 Q 1491 -384 1292 -585 Q 1094 -787 675 -787 Q 538 -787 411 -764 Q 285 -742 179 -710 L 179 -323 Q 253 -349 344 -368 Q 435 -387 544 -387 Q 787 -387 892 -270 Q 998 -154 998 109 Q 998 230 987 400 Q 976 570 965 746 Q 954 922 954 1056 Q 954 1258 1003 1410 Q 1053 1562 1176 1654 Q 1299 1747 1523 1773 L 1501 1741 L 1501 1795 Q 1290 1827 1170 1916 Q 1050 2006 1002 2155 Q 954 2304 954 2499 Q 954 2634 965 2808 Q 976 2982 987 3152 Q 998 3322 998 3437 Q 998 3699 894 3814 Q 790 3930 550 3930 Q 442 3930 347 3912 Q 253 3894 179 3869 L 179 4253 z" transform="scale(0.015625)"/><path id="STIXGeneral-Regular-27e8" d="M 2144 4563 L 915 1606 L 2138 -1363 L 1805 -1363 L 493 1542 L 493 1670 L 1811 4563 L 2144 4563 z" transform="scale(0.015625)"/><path id="STIXGeneral-Regular-27e9" d="M 2067 1536 L 749 -1363 L 416 -1363 L 1645 1600 L 422 4563 L 755 4563 L 2067 1664 L 2067 1536 z" transform="scale(0.015625)"/><path id="AnekLatin-Regular-20" transform="scale(0.015625)"/><path id="AnekLatin-Regular-73" d="M 1398 -70 Q 1021 -70 739 11 Q 458 93 272 189 L 224 669 Q 458 547 738 457 Q 1018 368 1373 368 Q 1734 368 1916 483 Q 2099 598 2099 826 L 2099 861 Q 2099 1008 2030 1104 Q 1962 1200 1782 1273 Q 1603 1347 1274 1421 Q 880 1507 653 1624 Q 426 1741 328 1913 Q 230 2086 230 2336 L 230 2365 Q 230 2774 515 2985 Q 800 3197 1373 3197 Q 1741 3197 2011 3113 Q 2282 3030 2454 2928 L 2502 2490 Q 2294 2611 2025 2691 Q 1757 2771 1421 2771 Q 1178 2771 1027 2721 Q 877 2672 809 2581 Q 742 2490 742 2362 L 742 2336 Q 742 2195 809 2097 Q 877 2000 1051 1928 Q 1226 1856 1536 1789 Q 1936 1709 2171 1597 Q 2406 1485 2508 1313 Q 2611 1142 2611 874 L 2611 819 Q 2611 378 2304 154 Q 1997 -70 1398 -70 z" transform="scale(0.015625)"/><path id="AnekLatin-Regular-6c" d="M 438 0 L 438 4240 L 954 4240 L 954 0 L 438 0 z" transform="scale(0.015625)"/><path id="AnekLatin-Regular-69" d="M 432 0 L 432 3123 L 950 3123 L 950 0 L 432 0 z M 691 3635 Q 531 3635 452 3720 Q 374 3805 374 3952 L 374 3968 Q 374 4118 452 4201 Q 531 4285 691 4285 Q 851 4285 931 4201 Q 1011 4118 1011 3968 L 1011 3952 Q 1011 3802 931 3718 Q 851 3635 691 3635 z" transform="scale(0.015625)"/><path id="AnekLatin-Regular-70" d="M 1962 -67 Q 1674 -67 1462 29 Q 1251 125 1120 304 Q 989 483 944 720 L 774 720 L 925 1206 Q 938 925 1051 737 Q 1165 550 1360 457 Q 1555 365 1802 365 Q 2195 365 2404 595 Q 2614 826 2614 1270 L 2614 1869 Q 2614 2310 2406 2540 Q 2198 2771 1802 2771 Q 1565 2771 1382 2678 Q 1200 2586 1080 2426 Q 960 2266 915 2061 L 787 2422 L 938 2422 Q 989 2637 1112 2811 Q 1235 2986 1451 3090 Q 1667 3194 1984 3194 Q 2547 3194 2841 2843 Q 3136 2493 3136 1827 L 3136 1309 Q 3136 637 2840 285 Q 2544 -67 1962 -67 z M 422 -1101 L 422 3123 L 941 3123 L 918 2371 L 925 2211 L 925 896 L 922 790 L 938 -86 L 938 -1101 L 422 -1101 z" transform="scale(0.015625)"/><path id="AnekLatin-Regular-2c" d="M 861 867 Q 870 806 881 708 Q 893 611 893 499 Q 893 115 785 -211 Q 678 -538 419 -842 L 61 -726 Q 227 -461 307 -169 Q 387 122 387 477 Q 387 582 380 676 Q 374 771 362 867 L 861 867 z" transform="scale(0.015625)"/><path id="AnekLatin-Regular-68" d="M 2512 0 L 2512 1942 Q 2512 2195 2443 2377 Q 2374 2560 2219 2661 Q 2064 2762 1795 2762 Q 1549 2762 1369 2669 Q 1190 2576 1080 2417 Q 970 2259 925 2058 L 810 2426 L 944 2426 Q 992 2637 1120 2811 Q 1248 2986 1464 3090 Q 1680 3194 1990 3194 Q 2362 3194 2590 3053 Q 2819 2912 2924 2648 Q 3030 2384 3030 2000 L 3030 0 L 2512 0 z M 422 0 L 422 4240 L 938 4240 L 938 3222 L 922 2326 L 941 2285 L 941 0 L 422 0 z" transform="scale(0.015625)"/><path id="AnekLatin-Regular-61" d="M 2275 0 L 2298 758 L 2278 838 L 2278 1834 L 2282 2016 Q 2282 2397 2088 2579 Q 1894 2762 1475 2762 Q 1139 2762 859 2666 Q 579 2570 362 2442 L 410 2883 Q 531 2957 699 3029 Q 867 3101 1083 3149 Q 1299 3197 1558 3197 Q 1894 3197 2129 3115 Q 2365 3034 2510 2880 Q 2656 2726 2723 2508 Q 2790 2291 2790 2022 L 2790 0 L 2275 0 z M 1200 -67 Q 736 -67 488 158 Q 240 384 240 803 L 240 896 Q 240 1328 507 1541 Q 774 1754 1357 1837 L 2346 1978 L 2374 1600 L 1421 1462 Q 1062 1411 908 1288 Q 755 1165 755 925 L 755 874 Q 755 627 907 496 Q 1059 365 1363 365 Q 1632 365 1824 457 Q 2016 550 2134 707 Q 2253 864 2294 1056 L 2374 704 L 2275 704 Q 2230 499 2107 323 Q 1984 147 1763 40 Q 1542 -67 1200 -67 z" transform="scale(0.015625)"/><path id="AnekLatin-Regular-66" d="M 1472 4326 Q 1712 4326 1902 4283 Q 2093 4240 2253 4176 L 2304 3770 Q 2147 3827 1988 3860 Q 1830 3894 1632 3894 Q 1392 3894 1246 3832 Q 1101 3770 1038 3656 Q 976 3542 976 3382 L 976 3366 Q 976 3254 1005 3153 Q 1034 3053 1069 2970 L 720 2957 L 720 3021 Q 621 3098 545 3235 Q 470 3373 470 3555 L 470 3571 Q 470 3914 713 4120 Q 957 4326 1472 4326 z M 576 0 L 576 2845 L 1091 2845 L 1091 0 L 576 0 z M 61 2592 L 61 3005 L 774 3002 L 986 3005 L 2291 3005 L 2243 2592 L 61 2592 z" transform="scale(0.015625)"/><path id="AnekLatin-Regular-2d" d="M 394 1466 L 394 1891 L 2211 1891 L 2211 1466 L 394 1466 z" transform="scale(0.015625)"/><path id="AnekLatin-Regular-77" d="M 947 0 L 179 3123 L 714 3123 L 1328 378 L 1389 378 L 2029 3040 L 2762 3040 L 3402 378 L 3459 378 L 4080 3123 L 4611 3123 L 3843 0 L 3050 0 L 2522 2221 L 2419 2666 L 2371 2666 L 2272 2221 L 1744 0 L 947 0 z" transform="scale(0.015625)"/><path id="AnekLatin-Regular-79" d="M 1827 483 L 1555 365 L 2490 3123 L 3024 3123 L 1555 -1101 L 1030 -1101 L 1523 326 L 1750 128 L 1162 128 L 141 3123 L 678 3123 L 1530 483 L 1827 483 z" transform="scale(0.015625)"/></defs><use xlink:href="#AnekLatin-Regular-7b" transform="translate(0 0.703125)"/><use xlink:href="#AnekLatin-Regular-31" transform="translate(33.75 0.703125)"/><use xlink:href="#AnekLatin-Regular-30" transform="translate(67.350006 0.703125)"/><use xlink:href="#AnekLatin-Regular-30" transform="translate(123.950012 0.703125)"/><use xlink:href="#AnekLatin-Regular-7d" transform="translate(180.550018 0.703125)"/><use xlink:href="#STIXGeneral-Regular-27e8" transform="translate(214.300018 0.703125)"/><use xlink:href="#AnekLatin-Regular-31" transform="translate(254.300003 0.703125)"/><use xlink:href="#AnekLatin-Regular-30" transform="translate(287.900009 0.703125)"/><use xlink:href="#AnekLatin-Regular-30" transform="translate(344.500015 0.703125)"/><use xlink:href="#STIXGeneral-Regular-27e9" transform="translate(401.100021 0.703125)"/><use xlink:href="#AnekLatin-Regular-20" transform="translate(441.100006 0.703125)"/><use xlink:href="#AnekLatin-Regular-73" transform="translate(462.150009 0.703125)"/><use xlink:href="#AnekLatin-Regular-6c" transform="translate(506.250015 0.703125)"/><use xlink:href="#AnekLatin-Regular-69" transform="translate(528.000015 0.703125)"/><use xlink:href="#AnekLatin-Regular-70" transform="translate(549.650009 0.703125)"/><use xlink:href="#AnekLatin-Regular-2c" transform="translate(603.350021 0.703125)"/><use xlink:href="#AnekLatin-Regular-20" transform="translate(622.150024 0.703125)"/><use xlink:href="#AnekLatin-Regular-68" transform="translate(643.200027 0.703125)"/><use xlink:href="#AnekLatin-Regular-61" transform="translate(696.500031 0.703125)"/><use xlink:href="#AnekLatin-Regular-6c" transform="translate(745.90004 0.703125)"/><use xlink:href="#AnekLatin-Regular-66" transform="translate(767.65004 0.703125)"/><use xlink:href="#AnekLatin-Regular-2d" transform="translate(805.200043 0.703125)"/><use xlink:href="#AnekLatin-Regular-77" transform="translate(845.90004 0.703125)"/><use xlink:href="#AnekLatin-Regular-61" transform="translate(920.750046 0.703125)"/><use xlink:href="#AnekLatin-Regular-79" transform="translate(970.150055 0.703125)"/></g></g><g id="patch_14"><path d="M 25.0 155.7 C 26.6 155.7 28.1 155.1 29.2 154.0 C 30.3 152.8 31.0 151.3 31.0 149.7 C 31.0 148.1 30.3 146.6 29.2 145.5 C 28.1 144.4 26.6 143.7 25.0 143.7 C 23.4 143.7 21.8 144.4 20.7 145.5 C 19.6 146.6 19.0 148.1 19.0 149.7 C 19.0 151.3 19.6 152.8 20.7 154.0 C 21.8 155.1 23.4 155.7 25.0 155.7 z" clip-path="url(#p1be2630034)" style="fill: #1f6f78; stroke: #1f6f78; stroke-linejoin: miter"/></g><g id="patch_15"><path d="M 84.9 155.7 C 86.5 155.7 88.0 155.1 89.1 154.0 C 90.3 152.8 90.9 151.3 90.9 149.7 C 90.9 148.1 90.3 146.6 89.1 145.5 C 88.0 144.4 86.5 143.7 84.9 143.7 C 83.3 143.7 81.8 144.4 80.7 145.5 C 79.5 146.6 78.9 148.1 78.9 149.7 C 78.9 151.3 79.5 152.8 80.7 154.0 C 81.8 155.1 83.3 155.7 84.9 155.7 z" clip-path="url(#p1be2630034)" style="fill: #1f6f78; stroke: #1f6f78; stroke-linejoin: miter"/></g><g id="patch_16"><path d="M 144.8 155.7 C 146.4 155.7 148.0 155.1 149.1 154.0 C 150.2 152.8 150.8 151.3 150.8 149.7 C 150.8 148.1 150.2 146.6 149.1 145.5 C 148.0 144.4 146.4 143.7 144.8 143.7 C 143.3 143.7 141.7 144.4 140.6 145.5 C 139.5 146.6 138.9 148.1 138.9 149.7 C 138.9 151.3 139.5 152.8 140.6 154.0 C 141.7 155.1 143.3 155.7 144.8 155.7 z" clip-path="url(#p1be2630034)" style="fill: #1f6f78; stroke: #1f6f78; stroke-linejoin: miter"/></g><g id="patch_17"><path d="M 54.9 125.7 C 56.5 125.7 58.0 125.1 59.2 124.0 C 60.3 122.9 60.9 121.3 60.9 119.7 C 60.9 118.2 60.3 116.6 59.2 115.5 C 58.0 114.4 56.5 113.8 54.9 113.8 C 53.3 113.8 51.8 114.4 50.7 115.5 C 49.6 116.6 48.9 118.2 48.9 119.7 C 48.9 121.3 49.6 122.9 50.7 124.0 C 51.8 125.1 53.3 125.7 54.9 125.7 z" clip-path="url(#p1be2630034)" style="fill: #1f6f78; stroke: #1f6f78; stroke-linejoin: miter"/></g><g id="patch_18"><path d="M 114.9 125.7 C 116.5 125.7 118.0 125.1 119.1 124.0 C 120.2 122.9 120.9 121.3 120.9 119.7 C 120.9 118.2 120.2 116.6 119.1 115.5 C 118.0 114.4 116.5 113.8 114.9 113.8 C 113.3 113.8 111.8 114.4 110.6 115.5 C 109.5 116.6 108.9 118.2 108.9 119.7 C 108.9 121.3 109.5 122.9 110.6 124.0 C 111.8 125.1 113.3 125.7 114.9 125.7 z" clip-path="url(#p1be2630034)" style="fill: #1f6f78; stroke: #1f6f78; stroke-linejoin: miter"/></g><g id="patch_19"><path d="M 174.8 125.7 C 176.4 125.7 177.9 125.1 179.1 124.0 C 180.2 122.9 180.8 121.3 180.8 119.7 C 180.8 118.2 180.2 116.6 179.1 115.5 C 177.9 114.4 176.4 113.8 174.8 113.8 C 173.2 113.8 171.7 114.4 170.6 115.5 C 169.5 116.6 168.8 118.2 168.8 119.7 C 168.8 121.3 169.5 122.9 170.6 124.0 C 171.7 125.1 173.2 125.7 174.8 125.7 z" clip-path="url(#p1be2630034)" style="fill: #1f6f78; stroke: #1f6f78; stroke-linejoin: miter"/></g><g id="patch_20"><path d="M 54.9 95.8 C 56.5 95.8 58.0 95.1 59.2 94.0 C 60.3 92.9 60.9 91.4 60.9 89.8 C 60.9 88.2 60.3 86.7 59.2 85.5 C 58.0 84.4 56.5 83.8 54.9 83.8 C 53.3 83.8 51.8 84.4 50.7 85.5 C 49.6 86.7 48.9 88.2 48.9 89.8 C 48.9 91.4 49.6 92.9 50.7 94.0 C 51.8 95.1 53.3 95.8 54.9 95.8 z" clip-path="url(#p1be2630034)" style="fill: #1f6f78; stroke: #1f6f78; stroke-linejoin: miter"/></g><g id="patch_21"><path d="M 114.9 95.8 C 116.5 95.8 118.0 95.1 119.1 94.0 C 120.2 92.9 120.9 91.4 120.9 89.8 C 120.9 88.2 120.2 86.7 119.1 85.5 C 118.0 84.4 116.5 83.8 114.9 83.8 C 113.3 83.8 111.8 84.4 110.6 85.5 C 109.5 86.7 108.9 88.2 108.9 89.8 C 108.9 91.4 109.5 92.9 110.6 94.0 C 111.8 95.1 113.3 95.8 114.9 95.8 z" clip-path="url(#p1be2630034)" style="fill: #1f6f78; stroke: #1f6f78; stroke-linejoin: miter"/></g><g id="patch_22"><path d="M 174.8 95.8 C 176.4 95.8 177.9 95.1 179.1 94.0 C 180.2 92.9 180.8 91.4 180.8 89.8 C 180.8 88.2 180.2 86.7 179.1 85.5 C 177.9 84.4 176.4 83.8 174.8 83.8 C 173.2 83.8 171.7 84.4 170.6 85.5 C 169.5 86.7 168.8 88.2 168.8 89.8 C 168.8 91.4 169.5 92.9 170.6 94.0 C 171.7 95.1 173.2 95.8 174.8 95.8 z" clip-path="url(#p1be2630034)" style="fill: #1f6f78; stroke: #1f6f78; stroke-linejoin: miter"/></g><g id="patch_23"><path d="M 25.0 65.8 C 26.6 65.8 28.1 65.2 29.2 64.0 C 30.3 62.9 31.0 61.4 31.0 59.8 C 31.0 58.2 30.3 56.7 29.2 55.6 C 28.1 54.4 26.6 53.8 25.0 53.8 C 23.4 53.8 21.8 54.4 20.7 55.6 C 19.6 56.7 19.0 58.2 19.0 59.8 C 19.0 61.4 19.6 62.9 20.7 64.0 C 21.8 65.2 23.4 65.8 25.0 65.8 z" clip-path="url(#p1be2630034)" style="fill: #1f6f78; stroke: #1f6f78; stroke-linejoin: miter"/></g><g id="patch_24"><path d="M 84.9 65.8 C 86.5 65.8 88.0 65.2 89.1 64.0 C 90.3 62.9 90.9 61.4 90.9 59.8 C 90.9 58.2 90.3 56.7 89.1 55.6 C 88.0 54.4 86.5 53.8 84.9 53.8 C 83.3 53.8 81.8 54.4 80.7 55.6 C 79.5 56.7 78.9 58.2 78.9 59.8 C 78.9 61.4 79.5 62.9 80.7 64.0 C 81.8 65.2 83.3 65.8 84.9 65.8 z" clip-path="url(#p1be2630034)" style="fill: #1f6f78; stroke: #1f6f78; stroke-linejoin: miter"/></g><g id="patch_25"><path d="M 144.8 65.8 C 146.4 65.8 148.0 65.2 149.1 64.0 C 150.2 62.9 150.8 61.4 150.8 59.8 C 150.8 58.2 150.2 56.7 149.1 55.6 C 148.0 54.4 146.4 53.8 144.8 53.8 C 143.3 53.8 141.7 54.4 140.6 55.6 C 139.5 56.7 138.9 58.2 138.9 59.8 C 138.9 61.4 139.5 62.9 140.6 64.0 C 141.7 65.2 143.3 65.8 144.8 65.8 z" clip-path="url(#p1be2630034)" style="fill: #1f6f78; stroke: #1f6f78; stroke-linejoin: miter"/></g><g id="text_2"><g style="fill: #ffffff" transform="translate(22.461612 152.22248) scale(0.1 -0.1)"><defs><path id="AnekLatin-Regular-2b" d="M 1827 643 L 1379 643 L 1379 3338 L 1827 3338 L 1827 643 z M 333 1779 L 333 2202 L 2874 2202 L 2874 1779 L 333 1779 z" transform="scale(0.015625)"/></defs><use xlink:href="#AnekLatin-Regular-2b" transform="translate(0 0.84375)"/></g></g><g id="text_3"><g style="fill: #0d2418" transform="translate(52.287485 152.467714) scale(0.11 -0.11)"><defs><path id="AnekLatin-Regular-2212" d="M 333 1776 L 333 2202 L 2797 2202 L 2797 1776 L 333 1776 z" transform="scale(0.015625)"/></defs><use xlink:href="#AnekLatin-Regular-2212" transform="translate(0 0.59375)"/></g></g><g id="text_4"><g style="fill: #ffffff" transform="translate(82.403359 152.22248) scale(0.1 -0.1)"><use xlink:href="#AnekLatin-Regular-2b" transform="translate(0 0.84375)"/></g></g><g id="text_5"><g style="fill: #0d2418" transform="translate(112.229233 152.467714) scale(0.11 -0.11)"><use xlink:href="#AnekLatin-Regular-2212" transform="translate(0 0.59375)"/></g></g><g id="text_6"><g style="fill: #ffffff" transform="translate(142.345107 152.22248) scale(0.1 -0.1)"><use xlink:href="#AnekLatin-Regular-2b" transform="translate(0 0.84375)"/></g></g><g id="text_7"><g style="fill: #0d2418" transform="translate(172.170981 152.467714) scale(0.11 -0.11)"><use xlink:href="#AnekLatin-Regular-2212" transform="translate(0 0.59375)"/></g></g><g id="text_8"><g style="fill: #0d2418" transform="translate(22.316612 122.49684) scale(0.11 -0.11)"><use xlink:href="#AnekLatin-Regular-2212" transform="translate(0 0.59375)"/></g></g><g id="text_9"><g style="fill: #ffffff" transform="translate(52.432485 122.251606) scale(0.1 -0.1)"><use xlink:href="#AnekLatin-Regular-2b" transform="translate(0 0.84375)"/></g></g><g id="text_10"><g style="fill: #0d2418" transform="translate(82.258359 122.49684) scale(0.11 -0.11)"><use xlink:href="#AnekLatin-Regular-2212" transform="translate(0 0.59375)"/></g></g><g id="text_11"><g style="fill: #ffffff" transform="translate(112.374233 122.251606) scale(0.1 -0.1)"><use xlink:href="#AnekLatin-Regular-2b" transform="translate(0 0.84375)"/></g></g><g id="text_12"><g style="fill: #0d2418" transform="translate(142.200107 122.49684) scale(0.11 -0.11)"><use xlink:href="#AnekLatin-Regular-2212" transform="translate(0 0.59375)"/></g></g><g id="text_13"><g style="fill: #ffffff" transform="translate(172.315981 122.251606) scale(0.1 -0.1)"><use xlink:href="#AnekLatin-Regular-2b" transform="translate(0 0.84375)"/></g></g><g id="text_14"><g style="fill: #0d2418" transform="translate(22.316612 92.525966) scale(0.11 -0.11)"><use xlink:href="#AnekLatin-Regular-2212" transform="translate(0 0.59375)"/></g></g><g id="text_15"><g style="fill: #ffffff" transform="translate(52.432485 92.280732) scale(0.1 -0.1)"><use xlink:href="#AnekLatin-Regular-2b" transform="translate(0 0.84375)"/></g></g><g id="text_16"><g style="fill: #0d2418" transform="translate(82.258359 92.525966) scale(0.11 -0.11)"><use xlink:href="#AnekLatin-Regular-2212" transform="translate(0 0.59375)"/></g></g><g id="text_17"><g style="fill: #ffffff" transform="translate(112.374233 92.280732) scale(0.1 -0.1)"><use xlink:href="#AnekLatin-Regular-2b" transform="translate(0 0.84375)"/></g></g><g id="text_18"><g style="fill: #0d2418" transform="translate(142.200107 92.525966) scale(0.11 -0.11)"><use xlink:href="#AnekLatin-Regular-2212" transform="translate(0 0.59375)"/></g></g><g id="text_19"><g style="fill: #ffffff" transform="translate(172.315981 92.280732) scale(0.1 -0.1)"><use xlink:href="#AnekLatin-Regular-2b" transform="translate(0 0.84375)"/></g></g><g id="text_20"><g style="fill: #ffffff" transform="translate(22.461612 62.309858) scale(0.1 -0.1)"><use xlink:href="#AnekLatin-Regular-2b" transform="translate(0 0.84375)"/></g></g><g id="text_21"><g style="fill: #0d2418" transform="translate(52.287485 62.555093) scale(0.11 -0.11)"><use xlink:href="#AnekLatin-Regular-2212" transform="translate(0 0.59375)"/></g></g><g id="text_22"><g style="fill: #ffffff" transform="translate(82.403359 62.309858) scale(0.1 -0.1)"><use xlink:href="#AnekLatin-Regular-2b" transform="translate(0 0.84375)"/></g></g><g id="text_23"><g style="fill: #0d2418" transform="translate(112.229233 62.555093) scale(0.11 -0.11)"><use xlink:href="#AnekLatin-Regular-2212" transform="translate(0 0.59375)"/></g></g><g id="text_24"><g style="fill: #ffffff" transform="translate(142.345107 62.309858) scale(0.1 -0.1)"><use xlink:href="#AnekLatin-Regular-2b" transform="translate(0 0.84375)"/></g></g><g id="text_25"><g style="fill: #0d2418" transform="translate(172.170981 62.555093) scale(0.11 -0.11)"><use xlink:href="#AnekLatin-Regular-2212" transform="translate(0 0.59375)"/></g></g><g id="patch_26"><path d="M 72.9 46.3 Q 99.9 46.3 125.2 46.3" clip-path="url(#p1be2630034)" style="fill: none; stroke: #0d2418; stroke-width: 1.5; stroke-linecap: round"/><path d="M 120.4 43.9 L 125.2 46.3 L 120.4 48.7 z" clip-path="url(#p1be2630034)" style="fill: #0d2418; stroke: #0d2418; stroke-width: 1.5; stroke-linecap: round"/></g><g id="line2d_2"><path d="M 25.0 116.2 L 25.0 93.4" clip-path="url(#p1be2630034)" style="fill: none; stroke: #b0241a; stroke-width: 1.6; stroke-linecap: round"/></g><g id="line2d_3"><path d="M 54.9 116.2 L 54.9 93.4" clip-path="url(#p1be2630034)" style="fill: none; stroke: #b0241a; stroke-width: 1.6; stroke-linecap: round"/></g><g id="line2d_4"><path d="M 84.9 116.2 L 84.9 93.4" clip-path="url(#p1be2630034)" style="fill: none; stroke: #b0241a; stroke-width: 1.6; stroke-linecap: round"/></g><g id="line2d_5"><path d="M 114.9 116.2 L 114.9 93.4" clip-path="url(#p1be2630034)" style="fill: none; stroke: #b0241a; stroke-width: 1.6; stroke-linecap: round"/></g><g id="line2d_6"><path d="M 144.8 116.2 L 144.8 93.4" clip-path="url(#p1be2630034)" style="fill: none; stroke: #b0241a; stroke-width: 1.6; stroke-linecap: round"/></g><g id="line2d_7"><path d="M 174.8 116.2 L 174.8 93.4" clip-path="url(#p1be2630034)" style="fill: none; stroke: #b0241a; stroke-width: 1.6; stroke-linecap: round"/></g><g id="text_26"><g id="patch_27"><path d="M 41.3 181.4 L 158.5 181.4 Q 159.9 181.4 159.9 180.1 L 159.9 170.3 Q 159.9 169.0 158.5 169.0 L 41.3 169.0 Q 39.9 169.0 39.9 170.3 L 39.9 180.1 Q 39.9 181.4 41.3 181.4 z" style="fill: #e6f1e2; opacity: 0.88"/></g><g style="fill: #b0241a" transform="translate(41.339109 178.132058) scale(0.115 -0.115)"><defs><path id="AnekLatin-Medium-6c" d="M 410 0 L 410 4237 L 1037 4237 L 1037 0 L 410 0 z" transform="scale(0.015625)"/><path id="AnekLatin-Medium-69" d="M 406 0 L 406 3130 L 1034 3130 L 1034 0 L 406 0 z M 720 3590 Q 534 3590 443 3684 Q 352 3779 352 3946 L 352 3958 Q 352 4125 443 4219 Q 534 4314 720 4314 Q 906 4314 997 4219 Q 1088 4125 1088 3958 L 1088 3946 Q 1088 3776 997 3683 Q 906 3590 720 3590 z" transform="scale(0.015625)"/><path id="AnekLatin-Medium-6b" d="M 2426 0 L 1277 1411 L 966 1411 L 966 1898 L 1280 1898 L 2381 3130 L 3114 3130 L 1744 1610 L 1744 1747 L 3168 0 L 2426 0 z M 397 0 L 397 4237 L 1021 4237 L 1021 0 L 397 0 z" transform="scale(0.015625)"/><path id="AnekLatin-Medium-65" d="M 1770 -74 Q 1021 -74 648 283 Q 275 640 275 1312 L 275 1824 Q 275 2486 622 2849 Q 970 3213 1635 3213 Q 2086 3213 2387 3048 Q 2688 2883 2838 2582 Q 2989 2282 2989 1869 L 2989 1750 Q 2989 1642 2979 1530 Q 2970 1418 2954 1315 L 2378 1315 Q 2384 1482 2385 1629 Q 2387 1776 2387 1898 Q 2387 2157 2304 2336 Q 2221 2515 2054 2609 Q 1888 2704 1635 2704 Q 1261 2704 1078 2491 Q 896 2278 896 1885 L 896 1590 L 899 1517 L 899 1238 Q 899 1062 952 918 Q 1005 774 1121 670 Q 1238 566 1424 510 Q 1610 454 1875 454 Q 2176 454 2440 531 Q 2704 608 2938 736 L 2880 202 Q 2669 77 2389 1 Q 2109 -74 1770 -74 z M 608 1315 L 608 1786 L 2826 1786 L 2826 1315 L 608 1315 z" transform="scale(0.015625)"/><path id="AnekLatin-Medium-20" transform="scale(0.015625)"/><path id="AnekLatin-Medium-6f" d="M 1683 -80 Q 992 -80 633 288 Q 275 656 275 1347 L 275 1792 Q 275 2480 633 2846 Q 992 3213 1683 3213 Q 2374 3213 2731 2846 Q 3088 2480 3088 1792 L 3088 1347 Q 3088 656 2731 288 Q 2374 -80 1683 -80 z M 1683 429 Q 2064 429 2262 656 Q 2461 883 2461 1309 L 2461 1830 Q 2461 2253 2262 2478 Q 2064 2704 1683 2704 Q 1302 2704 1104 2478 Q 906 2253 906 1830 L 906 1309 Q 906 883 1104 656 Q 1302 429 1683 429 z" transform="scale(0.015625)"/><path id="AnekLatin-Medium-6e" d="M 2470 0 L 2470 1933 Q 2470 2160 2408 2326 Q 2346 2493 2203 2585 Q 2061 2678 1814 2678 Q 1587 2678 1420 2595 Q 1254 2512 1150 2371 Q 1046 2230 1002 2051 L 899 2486 L 1034 2486 Q 1088 2685 1213 2846 Q 1338 3008 1546 3104 Q 1754 3200 2061 3200 Q 2429 3200 2656 3061 Q 2883 2922 2990 2656 Q 3098 2390 3098 2003 L 3098 0 L 2470 0 z M 397 0 L 397 3130 L 1024 3130 L 998 2397 L 1024 2358 L 1024 0 L 397 0 z" transform="scale(0.015625)"/><path id="AnekLatin-Medium-73" d="M 1408 -74 Q 1030 -74 745 4 Q 461 83 269 176 L 211 749 Q 448 630 733 542 Q 1018 454 1373 454 Q 1715 454 1880 555 Q 2045 656 2045 854 L 2045 880 Q 2045 1008 1977 1093 Q 1910 1178 1739 1245 Q 1568 1312 1254 1382 Q 861 1472 633 1593 Q 406 1715 308 1892 Q 211 2070 211 2320 L 211 2349 Q 211 2771 505 2988 Q 800 3206 1389 3206 Q 1760 3206 2035 3126 Q 2310 3046 2490 2944 L 2547 2422 Q 2333 2538 2059 2616 Q 1786 2694 1453 2694 Q 1226 2694 1088 2651 Q 950 2608 889 2529 Q 829 2451 829 2342 L 829 2320 Q 829 2202 893 2114 Q 957 2026 1121 1957 Q 1286 1888 1581 1824 Q 1978 1741 2214 1629 Q 2451 1517 2556 1342 Q 2662 1168 2662 893 L 2662 845 Q 2662 387 2348 156 Q 2035 -74 1408 -74 z" transform="scale(0.015625)"/><path id="AnekLatin-Medium-6d" d="M 4285 0 L 4285 1949 Q 4285 2170 4229 2334 Q 4173 2499 4043 2588 Q 3914 2678 3693 2678 Q 3482 2678 3328 2595 Q 3174 2512 3080 2371 Q 2986 2230 2944 2051 L 2861 2486 L 2934 2486 Q 2992 2675 3110 2838 Q 3229 3002 3430 3101 Q 3632 3200 3939 3200 Q 4285 3200 4499 3064 Q 4714 2928 4813 2664 Q 4912 2400 4912 2019 L 4912 0 L 4285 0 z M 397 0 L 397 3130 L 1024 3130 L 998 2397 L 1024 2358 L 1024 0 L 397 0 z M 2342 0 L 2342 1949 Q 2342 2170 2286 2334 Q 2230 2499 2100 2588 Q 1971 2678 1750 2678 Q 1539 2678 1385 2595 Q 1232 2512 1137 2371 Q 1043 2230 1002 2051 L 899 2486 L 1034 2486 Q 1085 2685 1201 2846 Q 1318 3008 1513 3104 Q 1709 3200 1994 3200 Q 2429 3200 2653 2976 Q 2877 2752 2934 2323 Q 2950 2262 2958 2185 Q 2966 2109 2966 2035 L 2966 0 L 2342 0 z" transform="scale(0.015625)"/><path id="AnekLatin-Medium-74" d="M 1562 -64 Q 1187 -64 960 49 Q 733 163 630 392 Q 528 621 528 963 L 528 2877 L 1149 2877 L 1149 1037 Q 1149 749 1280 614 Q 1411 480 1722 480 Q 1907 480 2076 518 Q 2246 557 2390 627 L 2336 96 Q 2182 19 1980 -22 Q 1779 -64 1562 -64 z M 38 2592 L 38 3091 L 2362 3091 L 2307 2592 L 38 2592 z M 534 3037 L 531 3898 L 1158 3971 L 1133 3037 L 534 3037 z" transform="scale(0.015625)"/><path id="AnekLatin-Medium-3a" d="M 669 -67 Q 477 -67 385 37 Q 294 141 294 326 L 294 358 Q 294 544 385 646 Q 477 749 669 749 Q 858 749 950 646 Q 1043 544 1043 358 L 1043 326 Q 1043 141 950 37 Q 858 -67 669 -67 z M 669 2144 Q 477 2144 385 2248 Q 294 2352 294 2538 L 294 2570 Q 294 2755 385 2857 Q 477 2960 669 2960 Q 858 2960 950 2857 Q 1043 2755 1043 2570 L 1043 2538 Q 1043 2352 950 2248 Q 858 2144 669 2144 z" transform="scale(0.015625)"/><path id="AnekLatin-Medium-72" d="M 998 1891 L 864 2381 L 1018 2381 Q 1117 2752 1350 2965 Q 1584 3178 1987 3178 Q 2083 3178 2158 3163 Q 2234 3149 2294 3130 L 2333 2518 Q 2256 2544 2160 2558 Q 2064 2573 1952 2573 Q 1610 2573 1360 2397 Q 1110 2221 998 1891 z M 397 0 L 397 3130 L 1008 3130 L 979 2218 L 1024 2173 L 1024 0 L 397 0 z" transform="scale(0.015625)"/><path id="AnekLatin-Medium-70" d="M 2026 -70 Q 1747 -70 1547 18 Q 1347 106 1222 267 Q 1098 429 1040 643 L 832 643 L 1008 1235 Q 1018 973 1120 798 Q 1222 624 1403 537 Q 1584 451 1821 451 Q 2182 451 2374 660 Q 2566 870 2566 1277 L 2566 1875 Q 2566 2275 2376 2483 Q 2186 2691 1821 2691 Q 1603 2691 1433 2608 Q 1264 2525 1153 2382 Q 1043 2240 998 2058 L 851 2486 L 1034 2486 Q 1088 2685 1206 2846 Q 1325 3008 1531 3104 Q 1738 3200 2051 3200 Q 2611 3200 2904 2848 Q 3197 2496 3197 1821 L 3197 1325 Q 3197 643 2902 286 Q 2608 -70 2026 -70 z M 397 -1101 L 397 3130 L 1024 3130 L 998 2397 L 1008 2211 L 1008 899 L 1005 778 L 1021 -109 L 1021 -1101 L 397 -1101 z" transform="scale(0.015625)"/><path id="AnekLatin-Medium-75" d="M 986 3130 L 986 1197 Q 986 973 1048 805 Q 1110 637 1254 544 Q 1398 451 1642 451 Q 1872 451 2037 534 Q 2202 618 2307 760 Q 2413 902 2454 1078 L 2557 643 L 2422 643 Q 2368 448 2243 285 Q 2118 122 1910 26 Q 1702 -70 1395 -70 Q 1030 -70 801 69 Q 573 208 465 475 Q 358 742 358 1126 L 358 3130 L 986 3130 z M 3059 3130 L 3059 0 L 2432 0 L 2458 733 L 2432 771 L 2432 3130 L 3059 3130 z" transform="scale(0.015625)"/></defs><use xlink:href="#AnekLatin-Medium-6c"/><use xlink:href="#AnekLatin-Medium-69" transform="translate(22.600006 0)"/><use xlink:href="#AnekLatin-Medium-6b" transform="translate(45.100006 0)"/><use xlink:href="#AnekLatin-Medium-65" transform="translate(95.700012 0)"/><use xlink:href="#AnekLatin-Medium-20" transform="translate(146.300018 0)"/><use xlink:href="#AnekLatin-Medium-69" transform="translate(167.100021 0)"/><use xlink:href="#AnekLatin-Medium-6f" transform="translate(189.600021 0)"/><use xlink:href="#AnekLatin-Medium-6e" transform="translate(242.150024 0)"/><use xlink:href="#AnekLatin-Medium-73" transform="translate(296.150024 0)"/><use xlink:href="#AnekLatin-Medium-20" transform="translate(340.750031 0)"/><use xlink:href="#AnekLatin-Medium-6d" transform="translate(361.550034 0)"/><use xlink:href="#AnekLatin-Medium-65" transform="translate(443.90004 0)"/><use xlink:href="#AnekLatin-Medium-65" transform="translate(494.500046 0)"/><use xlink:href="#AnekLatin-Medium-74" transform="translate(545.100052 0)"/><use xlink:href="#AnekLatin-Medium-3a" transform="translate(584.650055 0)"/><use xlink:href="#AnekLatin-Medium-20" transform="translate(605.550049 0)"/><use xlink:href="#AnekLatin-Medium-72" transform="translate(626.350052 0)"/><use xlink:href="#AnekLatin-Medium-65" transform="translate(664.050049 0)"/><use xlink:href="#AnekLatin-Medium-70" transform="translate(714.650055 0)"/><use xlink:href="#AnekLatin-Medium-75" transform="translate(768.950058 0)"/><use xlink:href="#AnekLatin-Medium-6c" transform="translate(822.950058 0)"/><use xlink:href="#AnekLatin-Medium-73" transform="translate(845.550064 0)"/><use xlink:href="#AnekLatin-Medium-69" transform="translate(890.15007 0)"/><use xlink:href="#AnekLatin-Medium-6f" transform="translate(912.65007 0)"/><use xlink:href="#AnekLatin-Medium-6e" transform="translate(965.200073 0)"/></g></g></g><g id="axes_2"><g id="line2d_8"><path d="M 210.3 110.0 L 396.1 110.0" clip-path="url(#p70dcdde7ac)" style="fill: none; stroke-dasharray: 4.4,3.3; stroke-dashoffset: 0; stroke: #7c8f80; stroke-width: 1.1"/></g><g id="patch_28"><path d="M 249.5 132.8 C 252.0 132.8 254.5 131.8 256.3 130.0 C 258.1 128.2 259.1 125.8 259.1 123.2 C 259.1 120.7 258.1 118.2 256.3 116.4 C 254.5 114.6 252.0 113.6 249.5 113.6 C 246.9 113.6 244.5 114.6 242.7 116.4 C 240.9 118.2 239.9 120.7 239.9 123.2 C 239.9 125.8 240.9 128.2 242.7 130.0 C 244.5 131.8 246.9 132.8 249.5 132.8 z" clip-path="url(#p70dcdde7ac)" style="fill: #e6f1e2; stroke: #35513f; stroke-width: 1.2; stroke-linejoin: miter"/></g><g id="patch_29"><path d="M 291.9 132.8 C 294.4 132.8 296.8 131.8 298.6 130.0 C 300.4 128.2 301.5 125.8 301.5 123.2 C 301.5 120.7 300.4 118.2 298.6 116.4 C 296.8 114.6 294.4 113.6 291.9 113.6 C 289.3 113.6 286.9 114.6 285.1 116.4 C 283.3 118.2 282.3 120.7 282.3 123.2 C 282.3 125.8 283.3 128.2 285.1 130.0 C 286.9 131.8 289.3 132.8 291.9 132.8 z" clip-path="url(#p70dcdde7ac)" style="fill: #e6f1e2; stroke: #35513f; stroke-width: 1.2; stroke-linejoin: miter"/></g><g id="patch_30"><path d="M 334.2 132.8 C 336.8 132.8 339.2 131.8 341.0 130.0 C 342.8 128.2 343.8 125.8 343.8 123.2 C 343.8 120.7 342.8 118.2 341.0 116.4 C 339.2 114.6 336.8 113.6 334.2 113.6 C 331.7 113.6 329.3 114.6 327.5 116.4 C 325.7 118.2 324.7 120.7 324.7 123.2 C 324.7 125.8 325.7 128.2 327.5 130.0 C 329.3 131.8 331.7 132.8 334.2 132.8 z" clip-path="url(#p70dcdde7ac)" style="fill: #e6f1e2; stroke: #35513f; stroke-width: 1.2; stroke-linejoin: miter"/></g><g id="patch_31"><path d="M 376.6 132.8 C 379.2 132.8 381.6 131.8 383.4 130.0 C 385.2 128.2 386.2 125.8 386.2 123.2 C 386.2 120.7 385.2 118.2 383.4 116.4 C 381.6 114.6 379.2 113.6 376.6 113.6 C 374.1 113.6 371.6 114.6 369.9 116.4 C 368.1 118.2 367.0 120.7 367.0 123.2 C 367.0 125.8 368.1 128.2 369.9 130.0 C 371.6 131.8 374.1 132.8 376.6 132.8 z" clip-path="url(#p70dcdde7ac)" style="fill: #e6f1e2; stroke: #35513f; stroke-width: 1.2; stroke-linejoin: miter"/></g><g id="patch_32"><path d="M 228.3 79.8 C 230.8 79.8 233.3 78.8 235.1 77.0 C 236.9 75.2 237.9 72.8 237.9 70.2 C 237.9 67.7 236.9 65.3 235.1 63.5 C 233.3 61.7 230.8 60.7 228.3 60.7 C 225.7 60.7 223.3 61.7 221.5 63.5 C 219.7 65.3 218.7 67.7 218.7 70.2 C 218.7 72.8 219.7 75.2 221.5 77.0 C 223.3 78.8 225.7 79.8 228.3 79.8 z" clip-path="url(#p70dcdde7ac)" style="fill: #e6f1e2; stroke: #35513f; stroke-width: 1.2; stroke-linejoin: miter"/></g><g id="patch_33"><path d="M 270.7 79.8 C 273.2 79.8 275.7 78.8 277.5 77.0 C 279.2 75.2 280.3 72.8 280.3 70.2 C 280.3 67.7 279.2 65.3 277.5 63.5 C 275.7 61.7 273.2 60.7 270.7 60.7 C 268.1 60.7 265.7 61.7 263.9 63.5 C 262.1 65.3 261.1 67.7 261.1 70.2 C 261.1 72.8 262.1 75.2 263.9 77.0 C 265.7 78.8 268.1 79.8 270.7 79.8 z" clip-path="url(#p70dcdde7ac)" style="fill: #e6f1e2; stroke: #35513f; stroke-width: 1.2; stroke-linejoin: miter"/></g><g id="patch_34"><path d="M 313.1 79.8 C 315.6 79.8 318.0 78.8 319.8 77.0 C 321.6 75.2 322.6 72.8 322.6 70.2 C 322.6 67.7 321.6 65.3 319.8 63.5 C 318.0 61.7 315.6 60.7 313.1 60.7 C 310.5 60.7 308.1 61.7 306.3 63.5 C 304.5 65.3 303.5 67.7 303.5 70.2 C 303.5 72.8 304.5 75.2 306.3 77.0 C 308.1 78.8 310.5 79.8 313.1 79.8 z" clip-path="url(#p70dcdde7ac)" style="fill: #e6f1e2; stroke: #35513f; stroke-width: 1.2; stroke-linejoin: miter"/></g><g id="patch_35"><path d="M 355.4 79.8 C 358.0 79.8 360.4 78.8 362.2 77.0 C 364.0 75.2 365.0 72.8 365.0 70.2 C 365.0 67.7 364.0 65.3 362.2 63.5 C 360.4 61.7 358.0 60.7 355.4 60.7 C 352.9 60.7 350.5 61.7 348.7 63.5 C 346.9 65.3 345.8 67.7 345.8 70.2 C 345.8 72.8 346.9 75.2 348.7 77.0 C 350.5 78.8 352.9 79.8 355.4 79.8 z" clip-path="url(#p70dcdde7ac)" style="fill: #e6f1e2; stroke: #35513f; stroke-width: 1.2; stroke-linejoin: miter"/></g><g id="text_27"><g style="fill: #35513f" transform="translate(244.821204 31.742272) scale(0.12 -0.12)"><defs><path id="STIXGeneral-Regular-304" d="M -474 3501 L -2464 3501 L -2464 3846 L -474 3846 L -474 3501 z" transform="scale(0.015625)"/></defs><use xlink:href="#AnekLatin-Regular-7b" transform="translate(0 0.203125)"/><use xlink:href="#AnekLatin-Regular-31" transform="translate(33.75 0.203125)"/><use xlink:href="#AnekLatin-Regular-31" transform="translate(67.350006 0.203125)"/><use xlink:href="#AnekLatin-Regular-30" transform="translate(100.950012 0.203125)"/><use xlink:href="#AnekLatin-Regular-7d" transform="translate(157.550018 0.203125)"/><use xlink:href="#STIXGeneral-Regular-27e8" transform="translate(191.300018 0.203125)"/><use xlink:href="#AnekLatin-Regular-31" transform="translate(231.300003 0.203125)"/><use xlink:href="#STIXGeneral-Regular-304" transform="translate(308.800011 21.90625)"/><use xlink:href="#AnekLatin-Regular-31" transform="translate(264.900009 0.203125)"/><use xlink:href="#AnekLatin-Regular-30" transform="translate(298.500015 0.203125)"/><use xlink:href="#STIXGeneral-Regular-27e9" transform="translate(355.100021 0.203125)"/><use xlink:href="#AnekLatin-Regular-20" transform="translate(395.100006 0.203125)"/><use xlink:href="#AnekLatin-Regular-73" transform="translate(416.150009 0.203125)"/><use xlink:href="#AnekLatin-Regular-6c" transform="translate(460.250015 0.203125)"/><use xlink:href="#AnekLatin-Regular-69" transform="translate(482.000015 0.203125)"/><use xlink:href="#AnekLatin-Regular-70" transform="translate(503.650009 0.203125)"/><use xlink:href="#AnekLatin-Regular-2c" transform="translate(557.350021 0.203125)"/><use xlink:href="#AnekLatin-Regular-20" transform="translate(576.150024 0.203125)"/><use xlink:href="#AnekLatin-Regular-68" transform="translate(597.200027 0.203125)"/><use xlink:href="#AnekLatin-Regular-61" transform="translate(650.500031 0.203125)"/><use xlink:href="#AnekLatin-Regular-6c" transform="translate(699.90004 0.203125)"/><use xlink:href="#AnekLatin-Regular-66" transform="translate(721.65004 0.203125)"/><use xlink:href="#AnekLatin-Regular-2d" transform="translate(759.200043 0.203125)"/><use xlink:href="#AnekLatin-Regular-77" transform="translate(799.90004 0.203125)"/><use xlink:href="#AnekLatin-Regular-61" transform="translate(874.750046 0.203125)"/><use xlink:href="#AnekLatin-Regular-79" transform="translate(924.150055 0.203125)"/></g></g><g id="patch_36"><path d="M 228.3 155.7 C 229.9 155.7 231.4 155.1 232.5 154.0 C 233.6 152.8 234.3 151.3 234.3 149.7 C 234.3 148.1 233.6 146.6 232.5 145.5 C 231.4 144.4 229.9 143.7 228.3 143.7 C 226.7 143.7 225.2 144.4 224.0 145.5 C 222.9 146.6 222.3 148.1 222.3 149.7 C 222.3 151.3 222.9 152.8 224.0 154.0 C 225.2 155.1 226.7 155.7 228.3 155.7 z" clip-path="url(#p70dcdde7ac)" style="fill: #1f6f78; stroke: #1f6f78; stroke-linejoin: miter"/></g><g id="patch_37"><path d="M 270.7 155.7 C 272.3 155.7 273.8 155.1 274.9 154.0 C 276.0 152.8 276.7 151.3 276.7 149.7 C 276.7 148.1 276.0 146.6 274.9 145.5 C 273.8 144.4 272.3 143.7 270.7 143.7 C 269.1 143.7 267.6 144.4 266.4 145.5 C 265.3 146.6 264.7 148.1 264.7 149.7 C 264.7 151.3 265.3 152.8 266.4 154.0 C 267.6 155.1 269.1 155.7 270.7 155.7 z" clip-path="url(#p70dcdde7ac)" style="fill: #1f6f78; stroke: #1f6f78; stroke-linejoin: miter"/></g><g id="patch_38"><path d="M 313.1 155.7 C 314.6 155.7 316.2 155.1 317.3 154.0 C 318.4 152.8 319.0 151.3 319.0 149.7 C 319.0 148.1 318.4 146.6 317.3 145.5 C 316.2 144.4 314.6 143.7 313.1 143.7 C 311.5 143.7 309.9 144.4 308.8 145.5 C 307.7 146.6 307.1 148.1 307.1 149.7 C 307.1 151.3 307.7 152.8 308.8 154.0 C 309.9 155.1 311.5 155.7 313.1 155.7 z" clip-path="url(#p70dcdde7ac)" style="fill: #1f6f78; stroke: #1f6f78; stroke-linejoin: miter"/></g><g id="patch_39"><path d="M 355.4 155.7 C 357.0 155.7 358.6 155.1 359.7 154.0 C 360.8 152.8 361.4 151.3 361.4 149.7 C 361.4 148.1 360.8 146.6 359.7 145.5 C 358.6 144.4 357.0 143.7 355.4 143.7 C 353.8 143.7 352.3 144.4 351.2 145.5 C 350.1 146.6 349.4 148.1 349.4 149.7 C 349.4 151.3 350.1 152.8 351.2 154.0 C 352.3 155.1 353.8 155.7 355.4 155.7 z" clip-path="url(#p70dcdde7ac)" style="fill: #1f6f78; stroke: #1f6f78; stroke-linejoin: miter"/></g><g id="patch_40"><path d="M 249.5 102.7 C 251.1 102.7 252.6 102.1 253.7 101.0 C 254.8 99.9 255.5 98.3 255.5 96.7 C 255.5 95.1 254.8 93.6 253.7 92.5 C 252.6 91.4 251.1 90.7 249.5 90.7 C 247.9 90.7 246.4 91.4 245.2 92.5 C 244.1 93.6 243.5 95.1 243.5 96.7 C 243.5 98.3 244.1 99.9 245.2 101.0 C 246.4 102.1 247.9 102.7 249.5 102.7 z" clip-path="url(#p70dcdde7ac)" style="fill: #1f6f78; stroke: #1f6f78; stroke-linejoin: miter"/></g><g id="patch_41"><path d="M 291.9 102.7 C 293.5 102.7 295.0 102.1 296.1 101.0 C 297.2 99.9 297.9 98.3 297.9 96.7 C 297.9 95.1 297.2 93.6 296.1 92.5 C 295.0 91.4 293.5 90.7 291.9 90.7 C 290.3 90.7 288.7 91.4 287.6 92.5 C 286.5 93.6 285.9 95.1 285.9 96.7 C 285.9 98.3 286.5 99.9 287.6 101.0 C 288.7 102.1 290.3 102.7 291.9 102.7 z" clip-path="url(#p70dcdde7ac)" style="fill: #1f6f78; stroke: #1f6f78; stroke-linejoin: miter"/></g><g id="patch_42"><path d="M 334.2 102.7 C 335.8 102.7 337.4 102.1 338.5 101.0 C 339.6 99.9 340.2 98.3 340.2 96.7 C 340.2 95.1 339.6 93.6 338.5 92.5 C 337.4 91.4 335.8 90.7 334.2 90.7 C 332.7 90.7 331.1 91.4 330.0 92.5 C 328.9 93.6 328.3 95.1 328.3 96.7 C 328.3 98.3 328.9 99.9 330.0 101.0 C 331.1 102.1 332.7 102.7 334.2 102.7 z" clip-path="url(#p70dcdde7ac)" style="fill: #1f6f78; stroke: #1f6f78; stroke-linejoin: miter"/></g><g id="patch_43"><path d="M 376.6 102.7 C 378.2 102.7 379.7 102.1 380.9 101.0 C 382.0 99.9 382.6 98.3 382.6 96.7 C 382.6 95.1 382.0 93.6 380.9 92.5 C 379.7 91.4 378.2 90.7 376.6 90.7 C 375.0 90.7 373.5 91.4 372.4 92.5 C 371.3 93.6 370.6 95.1 370.6 96.7 C 370.6 98.3 371.3 99.9 372.4 101.0 C 373.5 102.1 375.0 102.7 376.6 102.7 z" clip-path="url(#p70dcdde7ac)" style="fill: #1f6f78; stroke: #1f6f78; stroke-linejoin: miter"/></g><g id="text_28"><g style="fill: #ffffff" transform="translate(225.784019 152.22248) scale(0.1 -0.1)"><use xlink:href="#AnekLatin-Regular-2b" transform="translate(0 0.84375)"/></g></g><g id="text_29"><g style="fill: #ffffff" transform="translate(268.169236 152.22248) scale(0.1 -0.1)"><use xlink:href="#AnekLatin-Regular-2b" transform="translate(0 0.84375)"/></g></g><g id="text_30"><g style="fill: #ffffff" transform="translate(310.554452 152.22248) scale(0.1 -0.1)"><use xlink:href="#AnekLatin-Regular-2b" transform="translate(0 0.84375)"/></g></g><g id="text_31"><g style="fill: #ffffff" transform="translate(352.939668 152.22248) scale(0.1 -0.1)"><use xlink:href="#AnekLatin-Regular-2b" transform="translate(0 0.84375)"/></g></g><g id="text_32"><g style="fill: #0d2418" transform="translate(246.831628 125.976954) scale(0.11 -0.11)"><use xlink:href="#AnekLatin-Regular-2212" transform="translate(0 0.59375)"/></g></g><g id="text_33"><g style="fill: #0d2418" transform="translate(289.216844 125.976954) scale(0.11 -0.11)"><use xlink:href="#AnekLatin-Regular-2212" transform="translate(0 0.59375)"/></g></g><g id="text_34"><g style="fill: #0d2418" transform="translate(331.60206 125.976954) scale(0.11 -0.11)"><use xlink:href="#AnekLatin-Regular-2212" transform="translate(0 0.59375)"/></g></g><g id="text_35"><g style="fill: #0d2418" transform="translate(373.987276 125.976954) scale(0.11 -0.11)"><use xlink:href="#AnekLatin-Regular-2212" transform="translate(0 0.59375)"/></g></g><g id="text_36"><g style="fill: #ffffff" transform="translate(246.976628 99.240959) scale(0.1 -0.1)"><use xlink:href="#AnekLatin-Regular-2b" transform="translate(0 0.84375)"/></g></g><g id="text_37"><g style="fill: #ffffff" transform="translate(289.361844 99.240959) scale(0.1 -0.1)"><use xlink:href="#AnekLatin-Regular-2b" transform="translate(0 0.84375)"/></g></g><g id="text_38"><g style="fill: #ffffff" transform="translate(331.74706 99.240959) scale(0.1 -0.1)"><use xlink:href="#AnekLatin-Regular-2b" transform="translate(0 0.84375)"/></g></g><g id="text_39"><g style="fill: #ffffff" transform="translate(374.132276 99.240959) scale(0.1 -0.1)"><use xlink:href="#AnekLatin-Regular-2b" transform="translate(0 0.84375)"/></g></g><g id="text_40"><g style="fill: #0d2418" transform="translate(225.639019 72.995434) scale(0.11 -0.11)"><use xlink:href="#AnekLatin-Regular-2212" transform="translate(0 0.59375)"/></g></g><g id="text_41"><g style="fill: #0d2418" transform="translate(268.024236 72.995434) scale(0.11 -0.11)"><use xlink:href="#AnekLatin-Regular-2212" transform="translate(0 0.59375)"/></g></g><g id="text_42"><g style="fill: #0d2418" transform="translate(310.409452 72.995434) scale(0.11 -0.11)"><use xlink:href="#AnekLatin-Regular-2212" transform="translate(0 0.59375)"/></g></g><g id="text_43"><g style="fill: #0d2418" transform="translate(352.794668 72.995434) scale(0.11 -0.11)"><use xlink:href="#AnekLatin-Regular-2212" transform="translate(0 0.59375)"/></g></g><g id="patch_44"><path d="M 276.2 46.3 Q 303.2 46.3 328.5 46.3" clip-path="url(#p70dcdde7ac)" style="fill: none; stroke: #0d2418; stroke-width: 1.5; stroke-linecap: round"/><path d="M 323.7 43.9 L 328.5 46.3 L 323.7 48.7 z" clip-path="url(#p70dcdde7ac)" style="fill: #0d2418; stroke: #0d2418; stroke-width: 1.5; stroke-linecap: round"/></g><g id="text_44"><g id="patch_45"><path d="M 234.0 181.5 L 372.4 181.5 Q 373.8 181.5 373.8 180.2 L 373.8 170.2 Q 373.8 168.9 372.4 168.9 L 234.0 168.9 Q 232.6 168.9 232.6 170.2 L 232.6 180.2 Q 232.6 181.5 234.0 181.5 z" style="fill: #e6f1e2; opacity: 0.88"/></g><g style="fill: #1f6f78" transform="translate(234.033001 178.037722) scale(0.115 -0.115)"><defs><path id="AnekLatin-Medium-67" d="M 1654 947 Q 995 947 643 1228 Q 291 1510 291 2032 L 291 2083 Q 291 2413 428 2654 Q 566 2896 868 3032 Q 1171 3168 1661 3184 L 3286 3238 L 3286 2749 L 2416 2787 L 2416 2752 Q 2602 2704 2725 2603 Q 2848 2502 2912 2352 Q 2976 2202 2976 1997 L 2976 1962 Q 2976 1469 2641 1208 Q 2307 947 1654 947 z M 1629 -707 L 1709 -707 Q 1981 -707 2169 -668 Q 2358 -630 2459 -547 Q 2560 -464 2560 -326 L 2560 -317 Q 2560 -154 2445 -72 Q 2330 10 2045 35 L 1142 122 L 1299 128 Q 1146 102 1029 49 Q 912 -3 846 -88 Q 781 -173 781 -298 L 781 -304 Q 781 -451 881 -540 Q 982 -630 1172 -668 Q 1363 -707 1629 -707 z M 1590 -1206 Q 1158 -1206 846 -1131 Q 534 -1056 366 -891 Q 198 -726 198 -454 L 198 -442 Q 198 -259 280 -134 Q 362 -10 504 65 Q 646 141 822 166 L 822 198 Q 589 246 475 356 Q 362 467 362 643 L 362 646 Q 362 768 416 856 Q 470 944 580 997 Q 691 1050 858 1066 L 858 1136 L 1517 976 L 1277 986 Q 1088 982 1016 937 Q 944 893 944 810 L 944 806 Q 944 710 1051 664 Q 1158 618 1414 589 L 2176 506 Q 2682 451 2915 259 Q 3149 67 3149 -323 L 3149 -339 Q 3149 -640 2974 -832 Q 2800 -1024 2475 -1115 Q 2150 -1206 1696 -1206 L 1590 -1206 z M 1645 1408 Q 1891 1408 2056 1480 Q 2221 1552 2304 1696 Q 2387 1840 2387 2048 L 2387 2096 Q 2387 2301 2305 2441 Q 2224 2582 2062 2656 Q 1901 2730 1654 2730 L 1638 2730 Q 1373 2730 1206 2651 Q 1040 2573 965 2430 Q 890 2288 890 2093 L 890 2048 Q 890 1840 973 1696 Q 1056 1552 1224 1480 Q 1392 1408 1645 1408 z" transform="scale(0.015625)"/><path id="AnekLatin-Medium-68" d="M 2470 0 L 2470 1933 Q 2470 2160 2408 2326 Q 2346 2493 2203 2585 Q 2061 2678 1814 2678 Q 1587 2678 1422 2595 Q 1258 2512 1155 2371 Q 1053 2230 1008 2051 L 883 2486 L 1040 2486 Q 1094 2685 1219 2846 Q 1344 3008 1552 3104 Q 1760 3200 2061 3200 Q 2429 3200 2656 3061 Q 2883 2922 2990 2656 Q 3098 2390 3098 2003 L 3098 0 L 2470 0 z M 397 0 L 397 4237 L 1021 4237 L 1021 3238 L 1005 2336 L 1024 2291 L 1024 0 L 397 0 z" transform="scale(0.015625)"/><path id="AnekLatin-Medium-62" d="M 2026 -70 Q 1747 -70 1545 18 Q 1344 106 1217 267 Q 1091 429 1034 643 L 826 643 L 1008 1235 Q 1021 973 1126 798 Q 1232 624 1414 537 Q 1597 451 1830 451 Q 2189 451 2377 660 Q 2566 870 2566 1286 L 2566 1872 Q 2566 2275 2376 2483 Q 2186 2691 1824 2691 Q 1603 2691 1433 2608 Q 1264 2525 1153 2382 Q 1043 2240 998 2058 L 861 2486 L 1040 2486 Q 1094 2685 1211 2846 Q 1328 3008 1533 3104 Q 1738 3200 2051 3200 Q 2611 3200 2904 2848 Q 3197 2496 3197 1821 L 3197 1325 Q 3197 643 2899 286 Q 2602 -70 2026 -70 z M 397 0 L 397 4237 L 1021 4237 L 1021 3238 L 1005 2339 L 1008 2230 L 1008 931 L 998 733 L 1024 0 L 397 0 z" transform="scale(0.015625)"/><path id="AnekLatin-Medium-61" d="M 2237 0 L 2262 742 L 2240 838 L 2240 1824 L 2243 1981 Q 2243 2342 2059 2512 Q 1875 2682 1469 2682 Q 1139 2682 857 2589 Q 576 2496 349 2374 L 406 2899 Q 534 2973 707 3043 Q 880 3114 1097 3158 Q 1315 3203 1574 3203 Q 1930 3203 2176 3118 Q 2422 3034 2572 2874 Q 2723 2714 2792 2490 Q 2861 2266 2861 1990 L 2861 0 L 2237 0 z M 1178 -70 Q 714 -70 467 158 Q 221 387 221 810 L 221 906 Q 221 1354 497 1570 Q 774 1786 1370 1869 L 2310 2003 L 2346 1549 L 1443 1421 Q 1120 1376 982 1265 Q 845 1155 845 941 L 845 896 Q 845 682 977 566 Q 1110 451 1382 451 Q 1632 451 1811 534 Q 1990 618 2102 757 Q 2214 896 2256 1066 L 2342 646 L 2227 646 Q 2176 454 2057 291 Q 1939 128 1726 29 Q 1514 -70 1178 -70 z" transform="scale(0.015625)"/><path id="AnekLatin-Medium-79" d="M 1898 554 L 1565 410 L 2445 3130 L 3088 3130 L 1664 -1101 L 1030 -1101 L 1526 368 L 1808 131 L 1101 131 L 118 3130 L 768 3130 L 1549 554 L 1898 554 z" transform="scale(0.015625)"/></defs><use xlink:href="#AnekLatin-Medium-75"/><use xlink:href="#AnekLatin-Medium-6e" transform="translate(54 0)"/><use xlink:href="#AnekLatin-Medium-6c" transform="translate(108 0)"/><use xlink:href="#AnekLatin-Medium-69" transform="translate(130.600006 0)"/><use xlink:href="#AnekLatin-Medium-6b" transform="translate(153.100006 0)"/><use xlink:href="#AnekLatin-Medium-65" transform="translate(203.700012 0)"/><use xlink:href="#AnekLatin-Medium-20" transform="translate(254.300018 0)"/><use xlink:href="#AnekLatin-Medium-6e" transform="translate(275.100021 0)"/><use xlink:href="#AnekLatin-Medium-65" transform="translate(329.100021 0)"/><use xlink:href="#AnekLatin-Medium-69" transform="translate(379.700027 0)"/><use xlink:href="#AnekLatin-Medium-67" transform="translate(402.200027 0)"/><use xlink:href="#AnekLatin-Medium-68" transform="translate(453.950027 0)"/><use xlink:href="#AnekLatin-Medium-62" transform="translate(507.950027 0)"/><use xlink:href="#AnekLatin-Medium-6f" transform="translate(562.250031 0)"/><use xlink:href="#AnekLatin-Medium-75" transform="translate(614.800034 0)"/><use xlink:href="#AnekLatin-Medium-72" transform="translate(668.800034 0)"/><use xlink:href="#AnekLatin-Medium-73" transform="translate(706.500031 0)"/><use xlink:href="#AnekLatin-Medium-20" transform="translate(751.100037 0)"/><use xlink:href="#AnekLatin-Medium-6b" transform="translate(771.90004 0)"/><use xlink:href="#AnekLatin-Medium-65" transform="translate(822.500046 0)"/><use xlink:href="#AnekLatin-Medium-70" transform="translate(873.100052 0)"/><use xlink:href="#AnekLatin-Medium-74" transform="translate(927.400055 0)"/><use xlink:href="#AnekLatin-Medium-3a" transform="translate(966.950058 0)"/><use xlink:href="#AnekLatin-Medium-20" transform="translate(987.850052 0)"/><use xlink:href="#AnekLatin-Medium-65" transform="translate(1008.650055 0)"/><use xlink:href="#AnekLatin-Medium-61" transform="translate(1059.250061 0)"/><use xlink:href="#AnekLatin-Medium-73" transform="translate(1109.350067 0)"/><use xlink:href="#AnekLatin-Medium-79" transform="translate(1153.950073 0)"/></g></g></g></g><defs><clipPath id="p1be2630034"><rect x="4.032" y="34.382272" width="191.813592" height="152.851456"/></clipPath><clipPath id="p70dcdde7ac"><rect x="207.354408" y="34.382272" width="191.813592" height="152.851456"/></clipPath></defs></svg> 