  <svg xmlns:xlink="http://www.w3.org/1999/xlink" width="403.2pt" height="374.4pt" viewBox="0 0 403.2 374.4" xmlns="http://www.w3.org/2000/svg" version="1.1"><defs><style type="text/css">*{stroke-linejoin: round; stroke-linecap: butt}</style></defs><g id="figure_1"><g id="patch_1"><path d="M 0 374.4 L 403.2 374.4 L 403.2 0 L 0 0 L 0 374.4 z" style="fill: none"/></g><g id="axes_1"><g id="patch_2"><path d="M 52.4 154.6 L 192.5 154.6 L 192.5 26.2 L 52.4 26.2 L 52.4 154.6 z" style="fill: none"/></g><g id="line2d_1"><path d="M 52.4 61.2 L 192.5 61.2" clip-path="url(#pd392941fcc)" style="fill: none; stroke-dasharray: 3.6,2.7; stroke-dashoffset: 0; stroke: #7c8f80; stroke-width: 0.9"/></g><g id="line2d_2"><path d="M 52.4 42.9 L 192.5 42.9" clip-path="url(#pd392941fcc)" style="fill: none; stroke-dasharray: 3.6,2.7; stroke-dashoffset: 0; stroke: #7c8f80; stroke-width: 0.9"/></g><g id="FillBetweenPolyCollection_1"><defs><path id="m3155b6d5fc" d="M 52.4 -219.7 L 52.4 -222.9 L 73.0 -338.5 L 114.2 -338.5 L 117.3 -227.4 L 134.8 -227.4 L 141.0 -240.3 L 161.6 -240.3 L 167.8 -222.9 L 167.8 -219.7 L 167.8 -219.7 L 161.6 -219.7 L 141.0 -219.7 L 134.8 -219.7 L 117.3 -219.7 L 114.2 -219.7 L 73.0 -219.7 L 52.4 -219.7 z"/></defs><g clip-path="url(#pd392941fcc)"><use xlink:href="#m3155b6d5fc" x="0" y="374.4" style="fill: #8e3b46; fill-opacity: 0.08"/></g></g><g id="matplotlib.axis_1"/><g id="matplotlib.axis_2"><g id="ytick_1"><g id="line2d_3"><defs><path id="mbdc9c88ff6" d="M 0 0 L -4 0" style="stroke: #35513f; stroke-width: 0.9"/></defs><g><use xlink:href="#mbdc9c88ff6" x="52.416" y="154.617917" style="fill: #35513f; stroke: #35513f; stroke-width: 0.9"/></g></g><g id="text_1"><g style="fill: #35513f" transform="translate(38.407719 158.427292) scale(0.115 -0.115)"><defs><path id="AnekLatin-Regular-30" d="M 1811 -77 Q 1082 -77 712 332 Q 342 742 342 1514 L 342 2576 Q 342 3347 710 3756 Q 1078 4166 1811 4166 Q 2541 4166 2910 3756 Q 3280 3347 3280 2576 L 3280 1514 Q 3280 742 2910 332 Q 2541 -77 1811 -77 z M 1811 368 Q 2285 368 2513 657 Q 2742 947 2742 1491 L 2742 2595 Q 2742 3142 2513 3432 Q 2285 3722 1811 3722 Q 1338 3722 1109 3432 Q 880 3142 880 2595 L 880 1491 Q 880 947 1109 657 Q 1338 368 1811 368 z" transform="scale(0.015625)"/></defs><use xlink:href="#AnekLatin-Regular-30"/></g></g></g><g id="ytick_2"><g id="line2d_4"><g><use xlink:href="#mbdc9c88ff6" x="52.416" y="103.25395" style="fill: #35513f; stroke: #35513f; stroke-width: 0.9"/></g></g><g id="text_2"><g style="fill: #35513f" transform="translate(25.896078 107.063325) scale(0.115 -0.115)"><defs><path id="AnekLatin-Regular-34" d="M 2192 0 L 2192 2813 L 2208 3718 L 2122 3718 L 707 1283 L 707 1040 L 502 1238 L 3238 1238 L 3238 790 L 179 790 L 179 1322 L 1805 4090 L 2698 4090 L 2698 0 L 2192 0 z" transform="scale(0.015625)"/></defs><use xlink:href="#AnekLatin-Regular-34"/><use xlink:href="#AnekLatin-Regular-30" transform="translate(52.200012 0)"/><use xlink:href="#AnekLatin-Regular-30" transform="translate(108.800018 0)"/></g></g></g><g id="ytick_3"><g id="line2d_5"><g><use xlink:href="#mbdc9c88ff6" x="52.416" y="51.889983" style="fill: #35513f; stroke: #35513f; stroke-width: 0.9"/></g></g><g id="text_3"><g style="fill: #35513f" transform="translate(25.511547 55.699358) scale(0.115 -0.115)"><defs><path id="AnekLatin-Regular-38" d="M 1776 -83 Q 1386 -83 1106 -4 Q 826 74 648 222 Q 470 371 385 579 Q 301 787 301 1043 L 301 1130 Q 301 1418 400 1622 Q 499 1827 688 1953 Q 877 2080 1133 2131 L 1133 2150 Q 880 2189 704 2304 Q 528 2419 437 2604 Q 346 2790 346 3037 L 346 3123 Q 346 3610 694 3890 Q 1043 4170 1776 4170 Q 2515 4170 2864 3890 Q 3213 3610 3213 3123 L 3213 3037 Q 3213 2790 3121 2604 Q 3030 2419 2854 2304 Q 2678 2189 2426 2150 L 2426 2131 Q 2685 2077 2870 1950 Q 3056 1824 3157 1621 Q 3258 1418 3258 1130 L 3258 1043 Q 3258 790 3176 584 Q 3094 378 2916 229 Q 2739 80 2457 -1 Q 2176 -83 1776 -83 z M 1782 362 Q 2269 362 2494 562 Q 2720 762 2720 1091 L 2720 1174 Q 2720 1498 2480 1691 Q 2240 1885 1763 1923 Q 1306 1882 1070 1688 Q 835 1494 835 1174 L 835 1091 Q 835 762 1065 562 Q 1296 362 1782 362 z M 1789 2301 Q 2192 2317 2438 2494 Q 2685 2672 2685 3008 L 2685 3069 Q 2685 3376 2465 3553 Q 2246 3731 1776 3731 Q 1312 3731 1091 3553 Q 870 3376 870 3069 L 870 3008 Q 870 2784 984 2630 Q 1098 2477 1302 2395 Q 1507 2314 1789 2301 z" transform="scale(0.015625)"/></defs><use xlink:href="#AnekLatin-Regular-38"/><use xlink:href="#AnekLatin-Regular-30" transform="translate(55.550003 0)"/><use xlink:href="#AnekLatin-Regular-30" transform="translate(112.150009 0)"/></g></g></g><g id="text_4"><g style="fill: #0d2418" transform="translate(19.275141 104.605302) rotate(-90) scale(0.13 -0.13)"><defs><path id="AnekLatin-Medium-54" d="M 1402 0 L 1402 3978 L 2045 3978 L 2045 0 L 1402 0 z M 198 3552 L 198 4090 L 3245 4090 L 3245 3552 L 198 3552 z" transform="scale(0.015625)"/><path id="AnekLatin-Medium-20" transform="scale(0.015625)"/><path id="AnekLatin-Medium-28" d="M 1021 1946 L 1021 1603 Q 1021 1130 1101 715 Q 1181 301 1350 -68 Q 1520 -438 1782 -781 L 1130 -781 Q 883 -461 724 -102 Q 566 256 491 672 Q 416 1088 416 1584 L 416 1962 Q 416 2454 493 2868 Q 570 3283 730 3643 Q 890 4003 1136 4323 L 1782 4323 Q 1520 3984 1350 3614 Q 1181 3245 1101 2832 Q 1021 2419 1021 1946 z" transform="scale(0.015625)"/><path id="AnekLatin-Medium-b0" d="M 1053 2483 Q 662 2483 451 2702 Q 240 2922 240 3309 L 240 3350 Q 240 3734 451 3953 Q 662 4173 1053 4173 Q 1443 4173 1654 3953 Q 1866 3734 1866 3350 L 1866 3309 Q 1866 2922 1654 2702 Q 1443 2483 1053 2483 z M 1053 2893 Q 1226 2893 1312 3001 Q 1398 3110 1398 3306 L 1398 3350 Q 1398 3546 1312 3654 Q 1226 3763 1053 3763 Q 883 3763 795 3654 Q 707 3546 707 3350 L 707 3306 Q 707 3110 795 3001 Q 883 2893 1053 2893 z" transform="scale(0.015625)"/><path id="AnekLatin-Medium-43" d="M 1875 -80 Q 1091 -80 702 355 Q 314 790 314 1594 L 314 2502 Q 314 3302 702 3736 Q 1091 4170 1875 4170 Q 2115 4170 2313 4128 Q 2512 4086 2669 4019 Q 2826 3952 2938 3878 L 2989 3290 Q 2800 3418 2550 3514 Q 2301 3610 1962 3610 Q 1469 3610 1217 3318 Q 966 3027 966 2493 L 966 1616 Q 966 1085 1220 790 Q 1475 496 1981 496 Q 2314 496 2571 590 Q 2829 685 3021 822 L 2970 218 Q 2858 144 2696 75 Q 2534 6 2328 -37 Q 2122 -80 1875 -80 z" transform="scale(0.015625)"/><path id="AnekLatin-Medium-29" d="M 896 1946 Q 896 2419 816 2832 Q 736 3245 568 3614 Q 400 3984 134 4323 L 781 4323 Q 1027 4003 1187 3643 Q 1347 3283 1424 2868 Q 1501 2454 1501 1962 L 1501 1584 Q 1501 1088 1425 672 Q 1350 256 1193 -102 Q 1037 -461 787 -781 L 134 -781 Q 400 -438 568 -68 Q 736 301 816 715 Q 896 1130 896 1603 L 896 1946 z" transform="scale(0.015625)"/></defs><use xlink:href="#AnekLatin-Medium-54"/><use xlink:href="#AnekLatin-Medium-20" transform="translate(53.800003 0)"/><use xlink:href="#AnekLatin-Medium-28" transform="translate(74.600006 0)"/><use xlink:href="#AnekLatin-Medium-b0" transform="translate(104.450012 0)"/><use xlink:href="#AnekLatin-Medium-43" transform="translate(137.350006 0)"/><use xlink:href="#AnekLatin-Medium-29" transform="translate(188.400009 0)"/></g></g></g><g id="patch_3"><path d="M 52.4 154.6 L 52.4 26.2" style="fill: none; stroke: #35513f; stroke-linejoin: miter; stroke-linecap: square"/></g><g id="patch_4"><path d="M 52.4 154.6 L 192.5 154.6" style="fill: none; stroke: #35513f; stroke-linejoin: miter; stroke-linecap: square"/></g><g id="text_5"><g style="fill: #0d2418" transform="translate(52.416 20.208) scale(0.13 -0.13)"><defs><path id="AnekLatin-Medium-41" d="M 134 0 L 1389 4090 L 2384 4090 L 3638 0 L 2989 0 L 1926 3661 L 1846 3661 L 784 0 L 134 0 z M 954 1142 L 954 1674 L 2813 1674 L 2813 1142 L 954 1142 z" transform="scale(0.015625)"/><path id="AnekLatin-Medium-64" d="M 1424 -70 Q 864 -70 571 282 Q 278 634 278 1309 L 278 1805 Q 278 2486 574 2843 Q 870 3200 1450 3200 Q 1728 3200 1928 3112 Q 2128 3024 2254 2864 Q 2381 2704 2435 2486 L 2643 2486 L 2467 1907 Q 2458 2163 2355 2337 Q 2253 2512 2073 2601 Q 1894 2691 1654 2691 Q 1293 2691 1101 2483 Q 909 2275 909 1866 L 909 1267 Q 909 867 1099 659 Q 1290 451 1654 451 Q 1875 451 2043 534 Q 2211 618 2323 762 Q 2435 906 2477 1085 L 2624 643 L 2442 643 Q 2390 448 2270 285 Q 2150 122 1945 26 Q 1741 -70 1424 -70 z M 2451 0 L 2477 733 L 2467 931 L 2467 2230 L 2470 2352 L 2454 3238 L 2454 4237 L 3078 4237 L 3078 0 L 2451 0 z" transform="scale(0.015625)"/><path id="AnekLatin-Medium-69" d="M 406 0 L 406 3130 L 1034 3130 L 1034 0 L 406 0 z M 720 3590 Q 534 3590 443 3684 Q 352 3779 352 3946 L 352 3958 Q 352 4125 443 4219 Q 534 4314 720 4314 Q 906 4314 997 4219 Q 1088 4125 1088 3958 L 1088 3946 Q 1088 3776 997 3683 Q 906 3590 720 3590 z" transform="scale(0.015625)"/><path id="AnekLatin-Medium-72" d="M 998 1891 L 864 2381 L 1018 2381 Q 1117 2752 1350 2965 Q 1584 3178 1987 3178 Q 2083 3178 2158 3163 Q 2234 3149 2294 3130 L 2333 2518 Q 2256 2544 2160 2558 Q 2064 2573 1952 2573 Q 1610 2573 1360 2397 Q 1110 2221 998 1891 z M 397 0 L 397 3130 L 1008 3130 L 979 2218 L 1024 2173 L 1024 0 L 397 0 z" transform="scale(0.015625)"/><path id="AnekLatin-Medium-65" d="M 1770 -74 Q 1021 -74 648 283 Q 275 640 275 1312 L 275 1824 Q 275 2486 622 2849 Q 970 3213 1635 3213 Q 2086 3213 2387 3048 Q 2688 2883 2838 2582 Q 2989 2282 2989 1869 L 2989 1750 Q 2989 1642 2979 1530 Q 2970 1418 2954 1315 L 2378 1315 Q 2384 1482 2385 1629 Q 2387 1776 2387 1898 Q 2387 2157 2304 2336 Q 2221 2515 2054 2609 Q 1888 2704 1635 2704 Q 1261 2704 1078 2491 Q 896 2278 896 1885 L 896 1590 L 899 1517 L 899 1238 Q 899 1062 952 918 Q 1005 774 1121 670 Q 1238 566 1424 510 Q 1610 454 1875 454 Q 2176 454 2440 531 Q 2704 608 2938 736 L 2880 202 Q 2669 77 2389 1 Q 2109 -74 1770 -74 z M 608 1315 L 608 1786 L 2826 1786 L 2826 1315 L 608 1315 z" transform="scale(0.015625)"/><path id="AnekLatin-Medium-63" d="M 1648 -74 Q 950 -74 612 296 Q 275 666 275 1341 L 275 1792 Q 275 2470 614 2838 Q 954 3206 1648 3206 Q 1840 3206 2001 3171 Q 2163 3136 2294 3080 Q 2426 3024 2518 2963 L 2573 2426 Q 2419 2534 2217 2609 Q 2016 2685 1747 2685 Q 1318 2685 1112 2453 Q 906 2221 906 1779 L 906 1357 Q 906 925 1112 691 Q 1318 458 1747 458 Q 2019 458 2227 533 Q 2435 608 2602 717 L 2547 173 Q 2400 80 2171 3 Q 1942 -74 1648 -74 z" transform="scale(0.015625)"/><path id="AnekLatin-Medium-74" d="M 1562 -64 Q 1187 -64 960 49 Q 733 163 630 392 Q 528 621 528 963 L 528 2877 L 1149 2877 L 1149 1037 Q 1149 749 1280 614 Q 1411 480 1722 480 Q 1907 480 2076 518 Q 2246 557 2390 627 L 2336 96 Q 2182 19 1980 -22 Q 1779 -64 1562 -64 z M 38 2592 L 38 3091 L 2362 3091 L 2307 2592 L 38 2592 z M 534 3037 L 531 3898 L 1158 3971 L 1133 3037 L 534 3037 z" transform="scale(0.015625)"/><path id="AnekLatin-Medium-71" d="M 1424 -70 Q 864 -70 571 282 Q 278 634 278 1309 L 278 1805 Q 278 2486 576 2843 Q 874 3200 1450 3200 Q 1731 3200 1931 3112 Q 2131 3024 2259 2864 Q 2387 2704 2442 2486 L 2650 2486 L 2467 1907 Q 2458 2170 2350 2344 Q 2243 2518 2062 2604 Q 1882 2691 1645 2691 Q 1286 2691 1097 2481 Q 909 2272 909 1856 L 909 1270 Q 909 867 1099 659 Q 1290 451 1651 451 Q 1872 451 2041 534 Q 2211 618 2323 762 Q 2435 906 2477 1085 L 2614 643 L 2435 643 Q 2384 448 2265 285 Q 2147 122 1942 26 Q 1738 -70 1424 -70 z M 2454 -1101 L 2454 -109 L 2470 790 L 2467 912 L 2467 2211 L 2477 2397 L 2451 3130 L 3078 3130 L 3078 -1101 L 2454 -1101 z" transform="scale(0.015625)"/><path id="AnekLatin-Medium-75" d="M 986 3130 L 986 1197 Q 986 973 1048 805 Q 1110 637 1254 544 Q 1398 451 1642 451 Q 1872 451 2037 534 Q 2202 618 2307 760 Q 2413 902 2454 1078 L 2557 643 L 2422 643 Q 2368 448 2243 285 Q 2118 122 1910 26 Q 1702 -70 1395 -70 Q 1030 -70 801 69 Q 573 208 465 475 Q 358 742 358 1126 L 358 3130 L 986 3130 z M 3059 3130 L 3059 0 L 2432 0 L 2458 733 L 2432 771 L 2432 3130 L 3059 3130 z" transform="scale(0.015625)"/><path id="AnekLatin-Medium-6e" d="M 2470 0 L 2470 1933 Q 2470 2160 2408 2326 Q 2346 2493 2203 2585 Q 2061 2678 1814 2678 Q 1587 2678 1420 2595 Q 1254 2512 1150 2371 Q 1046 2230 1002 2051 L 899 2486 L 1034 2486 Q 1088 2685 1213 2846 Q 1338 3008 1546 3104 Q 1754 3200 2061 3200 Q 2429 3200 2656 3061 Q 2883 2922 2990 2656 Q 3098 2390 3098 2003 L 3098 0 L 2470 0 z M 397 0 L 397 3130 L 1024 3130 L 998 2397 L 1024 2358 L 1024 0 L 397 0 z" transform="scale(0.015625)"/><path id="AnekLatin-Medium-68" d="M 2470 0 L 2470 1933 Q 2470 2160 2408 2326 Q 2346 2493 2203 2585 Q 2061 2678 1814 2678 Q 1587 2678 1422 2595 Q 1258 2512 1155 2371 Q 1053 2230 1008 2051 L 883 2486 L 1040 2486 Q 1094 2685 1219 2846 Q 1344 3008 1552 3104 Q 1760 3200 2061 3200 Q 2429 3200 2656 3061 Q 2883 2922 2990 2656 Q 3098 2390 3098 2003 L 3098 0 L 2470 0 z M 397 0 L 397 4237 L 1021 4237 L 1021 3238 L 1005 2336 L 1024 2291 L 1024 0 L 397 0 z" transform="scale(0.015625)"/></defs><use xlink:href="#AnekLatin-Medium-41"/><use xlink:href="#AnekLatin-Medium-20" transform="translate(58.950012 0)"/><use xlink:href="#AnekLatin-Medium-20" transform="translate(79.750015 0)"/><use xlink:href="#AnekLatin-Medium-64" transform="translate(100.550018 0)"/><use xlink:href="#AnekLatin-Medium-69" transform="translate(154.850021 0)"/><use xlink:href="#AnekLatin-Medium-72" transform="translate(177.350021 0)"/><use xlink:href="#AnekLatin-Medium-65" transform="translate(215.050018 0)"/><use xlink:href="#AnekLatin-Medium-63" transform="translate(265.650024 0)"/><use xlink:href="#AnekLatin-Medium-74" transform="translate(309.300034 0)"/><use xlink:href="#AnekLatin-Medium-20" transform="translate(348.850037 0)"/><use xlink:href="#AnekLatin-Medium-71" transform="translate(369.65004 0)"/><use xlink:href="#AnekLatin-Medium-75" transform="translate(423.950043 0)"/><use xlink:href="#AnekLatin-Medium-65" transform="translate(477.950043 0)"/><use xlink:href="#AnekLatin-Medium-6e" transform="translate(528.550049 0)"/><use xlink:href="#AnekLatin-Medium-63" transform="translate(582.550049 0)"/><use xlink:href="#AnekLatin-Medium-68" transform="translate(626.200058 0)"/></g></g><g id="line2d_6"><path d="M 52.4 151.4 L 73.0 35.8 L 114.2 35.8 L 117.3 146.9 L 134.8 146.9 L 141.0 134.0 L 161.6 134.0 L 167.8 151.4" clip-path="url(#pd392941fcc)" style="fill: none; stroke: #8e3b46; stroke-width: 2; stroke-linecap: round"/></g><g id="line2d_7"><path d="M 117.3 145.6" clip-path="url(#pd392941fcc)" style="fill: none; stroke: #b0241a; stroke-width: 1.8; stroke-linecap: round"/><defs><path id="m3f6e1cc4be" d="M -0 4 L 4 -4 L -4 -4 z" style="stroke: #b0241a; stroke-linejoin: miter"/></defs><g clip-path="url(#pd392941fcc)"><use xlink:href="#m3f6e1cc4be" x="117.343059" y="145.629223" style="fill: #b0241a; stroke: #b0241a; stroke-linejoin: miter"/></g></g></g><g id="axes_2"><g id="patch_5"><path d="M 206.5 154.6 L 346.7 154.6 L 346.7 26.2 L 206.5 26.2 L 206.5 154.6 z" style="fill: none"/></g><g id="line2d_8"><path d="M 206.5 61.2 L 346.7 61.2" clip-path="url(#p249738f706)" style="fill: none; stroke-dasharray: 3.6,2.7; stroke-dashoffset: 0; stroke: #7c8f80; stroke-width: 0.9"/></g><g id="line2d_9"><path d="M 206.5 42.9 L 346.7 42.9" clip-path="url(#p249738f706)" style="fill: none; stroke-dasharray: 3.6,2.7; stroke-dashoffset: 0; stroke: #7c8f80; stroke-width: 0.9"/></g><g id="FillBetweenPolyCollection_2"><defs><path id="m1298e1fa0c" d="M 206.5 -219.7 L 206.5 -222.9 L 227.2 -338.5 L 260.1 -338.5 L 268.4 -303.2 L 289.0 -303.2 L 297.2 -319.9 L 309.6 -319.9 L 312.1 -227.4 L 322.0 -240.3 L 336.4 -240.3 L 342.6 -222.9 L 342.6 -219.7 L 342.6 -219.7 L 336.4 -219.7 L 322.0 -219.7 L 312.1 -219.7 L 309.6 -219.7 L 297.2 -219.7 L 289.0 -219.7 L 268.4 -219.7 L 260.1 -219.7 L 227.2 -219.7 L 206.5 -219.7 z"/></defs><g clip-path="url(#p249738f706)"><use xlink:href="#m1298e1fa0c" x="0" y="374.4" style="fill: #8e3b46; fill-opacity: 0.08"/></g></g><g id="matplotlib.axis_3"/><g id="matplotlib.axis_4"/><g id="patch_6"><path d="M 206.5 154.6 L 346.7 154.6" style="fill: none; stroke: #35513f; stroke-linejoin: miter; stroke-linecap: square"/></g><g id="text_6"><g style="fill: #0d2418" transform="translate(206.592 20.208) scale(0.13 -0.13)"><defs><path id="AnekLatin-Medium-42" d="M 899 0 L 899 528 L 2125 528 Q 2515 528 2678 688 Q 2842 848 2842 1136 L 2842 1235 Q 2842 1530 2675 1688 Q 2509 1846 2099 1846 L 896 1846 L 896 2352 L 2093 2352 Q 2461 2352 2616 2507 Q 2771 2662 2771 2941 L 2771 2992 Q 2771 3264 2620 3414 Q 2470 3565 2090 3565 L 886 3565 L 886 4090 L 2150 4090 Q 2826 4090 3120 3832 Q 3414 3574 3414 3094 L 3414 3037 Q 3414 2669 3244 2465 Q 3075 2262 2720 2214 L 2720 2182 Q 3126 2102 3310 1872 Q 3494 1642 3494 1222 L 3494 1101 Q 3494 576 3187 288 Q 2880 0 2192 0 L 899 0 z M 454 0 L 454 4090 L 1088 4090 L 1088 0 L 454 0 z" transform="scale(0.015625)"/><path id="AnekLatin-Medium-73" d="M 1408 -74 Q 1030 -74 745 4 Q 461 83 269 176 L 211 749 Q 448 630 733 542 Q 1018 454 1373 454 Q 1715 454 1880 555 Q 2045 656 2045 854 L 2045 880 Q 2045 1008 1977 1093 Q 1910 1178 1739 1245 Q 1568 1312 1254 1382 Q 861 1472 633 1593 Q 406 1715 308 1892 Q 211 2070 211 2320 L 211 2349 Q 211 2771 505 2988 Q 800 3206 1389 3206 Q 1760 3206 2035 3126 Q 2310 3046 2490 2944 L 2547 2422 Q 2333 2538 2059 2616 Q 1786 2694 1453 2694 Q 1226 2694 1088 2651 Q 950 2608 889 2529 Q 829 2451 829 2342 L 829 2320 Q 829 2202 893 2114 Q 957 2026 1121 1957 Q 1286 1888 1581 1824 Q 1978 1741 2214 1629 Q 2451 1517 2556 1342 Q 2662 1168 2662 893 L 2662 845 Q 2662 387 2348 156 Q 2035 -74 1408 -74 z" transform="scale(0.015625)"/><path id="AnekLatin-Medium-6f" d="M 1683 -80 Q 992 -80 633 288 Q 275 656 275 1347 L 275 1792 Q 275 2480 633 2846 Q 992 3213 1683 3213 Q 2374 3213 2731 2846 Q 3088 2480 3088 1792 L 3088 1347 Q 3088 656 2731 288 Q 2374 -80 1683 -80 z M 1683 429 Q 2064 429 2262 656 Q 2461 883 2461 1309 L 2461 1830 Q 2461 2253 2262 2478 Q 2064 2704 1683 2704 Q 1302 2704 1104 2478 Q 906 2253 906 1830 L 906 1309 Q 906 883 1104 656 Q 1302 429 1683 429 z" transform="scale(0.015625)"/><path id="AnekLatin-Medium-6d" d="M 4285 0 L 4285 1949 Q 4285 2170 4229 2334 Q 4173 2499 4043 2588 Q 3914 2678 3693 2678 Q 3482 2678 3328 2595 Q 3174 2512 3080 2371 Q 2986 2230 2944 2051 L 2861 2486 L 2934 2486 Q 2992 2675 3110 2838 Q 3229 3002 3430 3101 Q 3632 3200 3939 3200 Q 4285 3200 4499 3064 Q 4714 2928 4813 2664 Q 4912 2400 4912 2019 L 4912 0 L 4285 0 z M 397 0 L 397 3130 L 1024 3130 L 998 2397 L 1024 2358 L 1024 0 L 397 0 z M 2342 0 L 2342 1949 Q 2342 2170 2286 2334 Q 2230 2499 2100 2588 Q 1971 2678 1750 2678 Q 1539 2678 1385 2595 Q 1232 2512 1137 2371 Q 1043 2230 1002 2051 L 899 2486 L 1034 2486 Q 1085 2685 1201 2846 Q 1318 3008 1513 3104 Q 1709 3200 1994 3200 Q 2429 3200 2653 2976 Q 2877 2752 2934 2323 Q 2950 2262 2958 2185 Q 2966 2109 2966 2035 L 2966 0 L 2342 0 z" transform="scale(0.015625)"/><path id="AnekLatin-Medium-61" d="M 2237 0 L 2262 742 L 2240 838 L 2240 1824 L 2243 1981 Q 2243 2342 2059 2512 Q 1875 2682 1469 2682 Q 1139 2682 857 2589 Q 576 2496 349 2374 L 406 2899 Q 534 2973 707 3043 Q 880 3114 1097 3158 Q 1315 3203 1574 3203 Q 1930 3203 2176 3118 Q 2422 3034 2572 2874 Q 2723 2714 2792 2490 Q 2861 2266 2861 1990 L 2861 0 L 2237 0 z M 1178 -70 Q 714 -70 467 158 Q 221 387 221 810 L 221 906 Q 221 1354 497 1570 Q 774 1786 1370 1869 L 2310 2003 L 2346 1549 L 1443 1421 Q 1120 1376 982 1265 Q 845 1155 845 941 L 845 896 Q 845 682 977 566 Q 1110 451 1382 451 Q 1632 451 1811 534 Q 1990 618 2102 757 Q 2214 896 2256 1066 L 2342 646 L 2227 646 Q 2176 454 2057 291 Q 1939 128 1726 29 Q 1514 -70 1178 -70 z" transform="scale(0.015625)"/><path id="AnekLatin-Medium-6c" d="M 410 0 L 410 4237 L 1037 4237 L 1037 0 L 410 0 z" transform="scale(0.015625)"/><path id="AnekLatin-Medium-2c" d="M 944 909 Q 954 845 965 747 Q 976 650 976 538 Q 976 147 864 -185 Q 752 -518 486 -829 L 48 -701 Q 208 -435 286 -140 Q 365 154 365 512 Q 365 618 360 714 Q 355 810 342 909 L 944 909 z" transform="scale(0.015625)"/></defs><use xlink:href="#AnekLatin-Medium-42"/><use xlink:href="#AnekLatin-Medium-20" transform="translate(58.650009 0)"/><use xlink:href="#AnekLatin-Medium-20" transform="translate(79.450012 0)"/><use xlink:href="#AnekLatin-Medium-69" transform="translate(100.250015 0)"/><use xlink:href="#AnekLatin-Medium-73" transform="translate(122.750015 0)"/><use xlink:href="#AnekLatin-Medium-6f" transform="translate(167.350021 0)"/><use xlink:href="#AnekLatin-Medium-74" transform="translate(219.900024 0)"/><use xlink:href="#AnekLatin-Medium-68" transform="translate(259.450027 0)"/><use xlink:href="#AnekLatin-Medium-65" transform="translate(313.450027 0)"/><use xlink:href="#AnekLatin-Medium-72" transform="translate(364.050034 0)"/><use xlink:href="#AnekLatin-Medium-6d" transform="translate(401.750031 0)"/><use xlink:href="#AnekLatin-Medium-61" transform="translate(484.100037 0)"/><use xlink:href="#AnekLatin-Medium-6c" transform="translate(534.200043 0)"/><use xlink:href="#AnekLatin-Medium-2c" transform="translate(556.800049 0)"/><use xlink:href="#AnekLatin-Medium-20" transform="translate(576.65004 0)"/><use xlink:href="#AnekLatin-Medium-72" transform="translate(597.450043 0)"/><use xlink:href="#AnekLatin-Medium-65" transform="translate(635.15004 0)"/><use xlink:href="#AnekLatin-Medium-68" transform="translate(685.750046 0)"/><use xlink:href="#AnekLatin-Medium-65" transform="translate(739.750046 0)"/><use xlink:href="#AnekLatin-Medium-61" transform="translate(790.350052 0)"/><use xlink:href="#AnekLatin-Medium-74" transform="translate(840.450058 0)"/></g></g><g id="line2d_10"><path d="M 206.5 151.4 L 227.2 35.8 L 260.1 35.8 L 268.4 71.1 L 289.0 71.1 L 297.2 54.4 L 309.6 54.4 L 312.1 146.9 L 322.0 134.0 L 336.4 134.0 L 342.6 151.4" clip-path="url(#p249738f706)" style="fill: none; stroke: #8e3b46; stroke-width: 2; stroke-linecap: round"/></g><g id="line2d_11"><path d="M 312.1 145.6" clip-path="url(#p249738f706)" style="fill: none; stroke: #b0241a; stroke-width: 1.8; stroke-linecap: round"/><g clip-path="url(#p249738f706)"><use xlink:href="#m3f6e1cc4be" x="312.124235" y="145.629223" style="fill: #b0241a; stroke: #b0241a; stroke-linejoin: miter"/></g></g><g id="text_7"><g style="fill: #35513f" transform="translate(349.843765 64.084103) scale(0.115 -0.115)"><defs><path id="AnekLatin-Regular-41" d="M 157 0 L 1437 4090 L 2275 4090 L 3558 0 L 3021 0 L 1898 3731 L 1818 3731 L 694 0 L 157 0 z M 925 1206 L 925 1648 L 2787 1648 L 2787 1206 L 925 1206 z" transform="scale(0.015625)"/><path id="AnekLatin-Regular-31" d="M 1146 0 L 1146 3546 L 1104 3546 L 157 2982 L 173 3501 L 1149 4090 L 1677 4090 L 1677 0 L 1146 0 z" transform="scale(0.015625)"/></defs><use xlink:href="#AnekLatin-Regular-41" transform="translate(0 0.09375)"/><use xlink:href="#AnekLatin-Regular-31" transform="translate(58.903948 -14.545312) scale(0.7)"/></g></g><g id="text_8"><g style="fill: #35513f" transform="translate(349.843765 45.721485) scale(0.115 -0.115)"><defs><path id="AnekLatin-Regular-63" d="M 1626 -70 Q 954 -70 626 293 Q 298 656 298 1322 L 298 1808 Q 298 2477 627 2837 Q 957 3197 1626 3197 Q 1824 3197 1987 3160 Q 2150 3123 2280 3064 Q 2410 3005 2499 2941 L 2544 2490 Q 2394 2605 2187 2685 Q 1981 2765 1702 2765 Q 1254 2765 1035 2517 Q 816 2269 816 1795 L 816 1334 Q 816 870 1035 620 Q 1254 371 1702 371 Q 1990 371 2200 451 Q 2410 531 2573 646 L 2525 189 Q 2384 93 2157 11 Q 1930 -70 1626 -70 z" transform="scale(0.015625)"/><path id="AnekLatin-Regular-6f" d="M 1664 -80 Q 992 -80 645 283 Q 298 646 298 1328 L 298 1805 Q 298 2483 646 2844 Q 995 3206 1664 3206 Q 2336 3206 2683 2844 Q 3030 2483 3030 1805 L 3030 1328 Q 3030 646 2683 283 Q 2336 -80 1664 -80 z M 1664 342 Q 2080 342 2296 588 Q 2512 835 2512 1299 L 2512 1834 Q 2512 2294 2296 2539 Q 2080 2784 1664 2784 Q 1251 2784 1033 2539 Q 816 2294 816 1834 L 816 1299 Q 816 835 1033 588 Q 1251 342 1664 342 z" transform="scale(0.015625)"/><path id="AnekLatin-Regular-72" d="M 915 1910 L 797 2310 L 925 2317 Q 1027 2714 1276 2942 Q 1526 3171 1939 3171 Q 2042 3171 2123 3155 Q 2205 3139 2269 3117 L 2301 2614 Q 2221 2640 2123 2656 Q 2026 2672 1907 2672 Q 1555 2672 1294 2477 Q 1034 2282 915 1910 z M 422 0 L 422 3123 L 928 3123 L 902 2202 L 941 2163 L 941 0 L 422 0 z" transform="scale(0.015625)"/><path id="AnekLatin-Regular-65" d="M 1734 -70 Q 1021 -70 659 278 Q 298 627 298 1277 L 298 1834 Q 298 2493 634 2849 Q 970 3206 1616 3206 Q 2051 3206 2342 3044 Q 2634 2883 2781 2585 Q 2928 2288 2928 1875 L 2928 1760 Q 2928 1658 2920 1555 Q 2912 1453 2899 1354 L 2422 1354 Q 2429 1507 2430 1644 Q 2432 1782 2432 1898 Q 2432 2182 2341 2379 Q 2250 2576 2069 2680 Q 1888 2784 1616 2784 Q 1213 2784 1011 2550 Q 810 2317 810 1882 L 810 1584 L 813 1520 L 813 1222 Q 813 1027 870 870 Q 928 714 1051 600 Q 1174 486 1364 427 Q 1555 368 1818 368 Q 2122 368 2384 448 Q 2646 528 2877 666 L 2829 218 Q 2621 86 2345 8 Q 2070 -70 1734 -70 z M 570 1354 L 570 1744 L 2790 1744 L 2790 1354 L 570 1354 z" transform="scale(0.015625)"/><path id="AnekLatin-Regular-20" transform="scale(0.015625)"/><path id="AnekLatin-Regular-33" d="M 1430 -70 Q 1171 -70 952 -30 Q 733 10 566 69 Q 400 128 291 182 L 240 701 Q 454 579 748 488 Q 1043 397 1389 397 Q 1722 397 1925 483 Q 2128 570 2221 730 Q 2314 890 2314 1117 L 2314 1194 Q 2314 1424 2229 1574 Q 2144 1725 1952 1800 Q 1760 1875 1437 1878 L 762 1891 L 762 2310 L 1446 2323 Q 1757 2330 1942 2410 Q 2128 2490 2208 2635 Q 2288 2781 2288 2982 L 2288 3037 Q 2288 3366 2091 3537 Q 1894 3709 1427 3709 Q 1078 3709 780 3614 Q 483 3520 262 3398 L 310 3862 Q 499 3978 801 4069 Q 1104 4160 1514 4160 Q 2189 4160 2507 3885 Q 2826 3610 2826 3117 L 2826 3046 Q 2826 2800 2744 2611 Q 2662 2422 2489 2305 Q 2317 2189 2038 2150 L 2035 2077 L 2022 2134 Q 2467 2070 2664 1841 Q 2861 1613 2861 1200 L 2861 1085 Q 2861 544 2513 237 Q 2166 -70 1430 -70 z" transform="scale(0.015625)"/></defs><use xlink:href="#AnekLatin-Regular-63" transform="translate(0 0.09375)"/><use xlink:href="#AnekLatin-Regular-6f" transform="translate(43.400009 0.09375)"/><use xlink:href="#AnekLatin-Regular-72" transform="translate(95.400009 0.09375)"/><use xlink:href="#AnekLatin-Regular-65" transform="translate(132.700012 0.09375)"/><use xlink:href="#AnekLatin-Regular-20" transform="translate(182.650024 0.09375)"/><use xlink:href="#AnekLatin-Regular-41" transform="translate(203.700027 0.09375)"/><use xlink:href="#AnekLatin-Regular-33" transform="translate(262.603976 -14.545312) scale(0.7)"/></g></g></g><g id="axes_3"><g id="patch_7"><path d="M 52.4 336.9 L 192.5 336.9 L 192.5 208.5 L 52.4 208.5 L 52.4 336.9 z" style="fill: none"/></g><g id="line2d_12"><path d="M 52.4 243.6 L 192.5 243.6" clip-path="url(#p2b46ab0ec2)" style="fill: none; stroke-dasharray: 3.6,2.7; stroke-dashoffset: 0; stroke: #7c8f80; stroke-width: 0.9"/></g><g id="line2d_13"><path d="M 52.4 225.2 L 192.5 225.2" clip-path="url(#p2b46ab0ec2)" style="fill: none; stroke-dasharray: 3.6,2.7; stroke-dashoffset: 0; stroke: #7c8f80; stroke-width: 0.9"/></g><g id="FillBetweenPolyCollection_3"><defs><path id="m4c4f26cff6" d="M 52.4 -37.4 L 52.4 -40.6 L 73.0 -156.2 L 106.0 -156.2 L 126.6 -40.6 L 138.9 -149.1 L 151.3 -149.1 L 153.8 -45.1 L 163.7 -57.9 L 178.1 -57.9 L 184.3 -40.6 L 184.3 -37.4 L 184.3 -37.4 L 178.1 -37.4 L 163.7 -37.4 L 153.8 -37.4 L 151.3 -37.4 L 138.9 -37.4 L 126.6 -37.4 L 106.0 -37.4 L 73.0 -37.4 L 52.4 -37.4 z"/></defs><g clip-path="url(#p2b46ab0ec2)"><use xlink:href="#m4c4f26cff6" x="0" y="374.4" style="fill: #8e3b46; fill-opacity: 0.08"/></g></g><g id="matplotlib.axis_5"/><g id="matplotlib.axis_6"><g id="ytick_4"><g id="line2d_14"><g><use xlink:href="#mbdc9c88ff6" x="52.416" y="336.96" style="fill: #35513f; stroke: #35513f; stroke-width: 0.9"/></g></g><g id="text_9"><g style="fill: #35513f" transform="translate(38.407719 340.769375) scale(0.115 -0.115)"><use xlink:href="#AnekLatin-Regular-30"/></g></g></g><g id="ytick_5"><g id="line2d_15"><g><use xlink:href="#mbdc9c88ff6" x="52.416" y="285.596033" style="fill: #35513f; stroke: #35513f; stroke-width: 0.9"/></g></g><g id="text_10"><g style="fill: #35513f" transform="translate(25.896078 289.405408) scale(0.115 -0.115)"><use xlink:href="#AnekLatin-Regular-34"/><use xlink:href="#AnekLatin-Regular-30" transform="translate(52.200012 0)"/><use xlink:href="#AnekLatin-Regular-30" transform="translate(108.800018 0)"/></g></g></g><g id="ytick_6"><g id="line2d_16"><g><use xlink:href="#mbdc9c88ff6" x="52.416" y="234.232066" style="fill: #35513f; stroke: #35513f; stroke-width: 0.9"/></g></g><g id="text_11"><g style="fill: #35513f" transform="translate(25.511547 238.041441) scale(0.115 -0.115)"><use xlink:href="#AnekLatin-Regular-38"/><use xlink:href="#AnekLatin-Regular-30" transform="translate(55.550003 0)"/><use xlink:href="#AnekLatin-Regular-30" transform="translate(112.150009 0)"/></g></g></g><g id="text_12"><g style="fill: #0d2418" transform="translate(19.275141 286.947385) rotate(-90) scale(0.13 -0.13)"><use xlink:href="#AnekLatin-Medium-54"/><use xlink:href="#AnekLatin-Medium-20" transform="translate(53.800003 0)"/><use xlink:href="#AnekLatin-Medium-28" transform="translate(74.600006 0)"/><use xlink:href="#AnekLatin-Medium-b0" transform="translate(104.450012 0)"/><use xlink:href="#AnekLatin-Medium-43" transform="translate(137.350006 0)"/><use xlink:href="#AnekLatin-Medium-29" transform="translate(188.400009 0)"/></g></g></g><g id="patch_8"><path d="M 52.4 336.9 L 52.4 208.5" style="fill: none; stroke: #35513f; stroke-linejoin: miter; stroke-linecap: square"/></g><g id="patch_9"><path d="M 52.4 336.9 L 192.5 336.9" style="fill: none; stroke: #35513f; stroke-linejoin: miter; stroke-linecap: square"/></g><g id="text_13"><g style="fill: #0d2418" transform="translate(52.416 202.550083) scale(0.13 -0.13)"><defs><path id="AnekLatin-Medium-67" d="M 1654 947 Q 995 947 643 1228 Q 291 1510 291 2032 L 291 2083 Q 291 2413 428 2654 Q 566 2896 868 3032 Q 1171 3168 1661 3184 L 3286 3238 L 3286 2749 L 2416 2787 L 2416 2752 Q 2602 2704 2725 2603 Q 2848 2502 2912 2352 Q 2976 2202 2976 1997 L 2976 1962 Q 2976 1469 2641 1208 Q 2307 947 1654 947 z M 1629 -707 L 1709 -707 Q 1981 -707 2169 -668 Q 2358 -630 2459 -547 Q 2560 -464 2560 -326 L 2560 -317 Q 2560 -154 2445 -72 Q 2330 10 2045 35 L 1142 122 L 1299 128 Q 1146 102 1029 49 Q 912 -3 846 -88 Q 781 -173 781 -298 L 781 -304 Q 781 -451 881 -540 Q 982 -630 1172 -668 Q 1363 -707 1629 -707 z M 1590 -1206 Q 1158 -1206 846 -1131 Q 534 -1056 366 -891 Q 198 -726 198 -454 L 198 -442 Q 198 -259 280 -134 Q 362 -10 504 65 Q 646 141 822 166 L 822 198 Q 589 246 475 356 Q 362 467 362 643 L 362 646 Q 362 768 416 856 Q 470 944 580 997 Q 691 1050 858 1066 L 858 1136 L 1517 976 L 1277 986 Q 1088 982 1016 937 Q 944 893 944 810 L 944 806 Q 944 710 1051 664 Q 1158 618 1414 589 L 2176 506 Q 2682 451 2915 259 Q 3149 67 3149 -323 L 3149 -339 Q 3149 -640 2974 -832 Q 2800 -1024 2475 -1115 Q 2150 -1206 1696 -1206 L 1590 -1206 z M 1645 1408 Q 1891 1408 2056 1480 Q 2221 1552 2304 1696 Q 2387 1840 2387 2048 L 2387 2096 Q 2387 2301 2305 2441 Q 2224 2582 2062 2656 Q 1901 2730 1654 2730 L 1638 2730 Q 1373 2730 1206 2651 Q 1040 2573 965 2430 Q 890 2288 890 2093 L 890 2048 Q 890 1840 973 1696 Q 1056 1552 1224 1480 Q 1392 1408 1645 1408 z" transform="scale(0.015625)"/></defs><use xlink:href="#AnekLatin-Medium-43"/><use xlink:href="#AnekLatin-Medium-20" transform="translate(51.050003 0)"/><use xlink:href="#AnekLatin-Medium-20" transform="translate(71.850006 0)"/><use xlink:href="#AnekLatin-Medium-73" transform="translate(92.650009 0)"/><use xlink:href="#AnekLatin-Medium-69" transform="translate(137.250015 0)"/><use xlink:href="#AnekLatin-Medium-6e" transform="translate(159.750015 0)"/><use xlink:href="#AnekLatin-Medium-67" transform="translate(213.750015 0)"/><use xlink:href="#AnekLatin-Medium-6c" transform="translate(265.500015 0)"/><use xlink:href="#AnekLatin-Medium-65" transform="translate(288.100021 0)"/><use xlink:href="#AnekLatin-Medium-20" transform="translate(338.700027 0)"/><use xlink:href="#AnekLatin-Medium-68" transform="translate(359.500031 0)"/><use xlink:href="#AnekLatin-Medium-61" transform="translate(413.500031 0)"/><use xlink:href="#AnekLatin-Medium-72" transform="translate(463.600037 0)"/><use xlink:href="#AnekLatin-Medium-64" transform="translate(501.300034 0)"/><use xlink:href="#AnekLatin-Medium-65" transform="translate(555.600037 0)"/><use xlink:href="#AnekLatin-Medium-6e" transform="translate(606.200043 0)"/><use xlink:href="#AnekLatin-Medium-69" transform="translate(660.200043 0)"/><use xlink:href="#AnekLatin-Medium-6e" transform="translate(682.700043 0)"/><use xlink:href="#AnekLatin-Medium-67" transform="translate(736.700043 0)"/></g></g><g id="line2d_17"><path d="M 52.4 333.7 L 73.0 218.1 L 106.0 218.1 L 126.6 333.7 L 138.9 225.2 L 151.3 225.2 L 153.8 329.2 L 163.7 316.4 L 178.1 316.4 L 184.3 333.7" clip-path="url(#p2b46ab0ec2)" style="fill: none; stroke: #8e3b46; stroke-width: 2; stroke-linecap: round"/></g><g id="line2d_18"><path d="M 153.8 327.9" clip-path="url(#p2b46ab0ec2)" style="fill: none; stroke: #b0241a; stroke-width: 1.8; stroke-linecap: round"/><g clip-path="url(#p2b46ab0ec2)"><use xlink:href="#m3f6e1cc4be" x="153.825882" y="327.971306" style="fill: #b0241a; stroke: #b0241a; stroke-linejoin: miter"/></g></g></g><g id="axes_4"><g id="patch_10"><path d="M 206.5 336.9 L 346.7 336.9 L 346.7 208.5 L 206.5 208.5 L 206.5 336.9 z" style="fill: none"/></g><g id="line2d_19"><path d="M 206.5 243.6 L 346.7 243.6" clip-path="url(#p47acd03e58)" style="fill: none; stroke-dasharray: 3.6,2.7; stroke-dashoffset: 0; stroke: #7c8f80; stroke-width: 0.9"/></g><g id="line2d_20"><path d="M 206.5 225.2 L 346.7 225.2" clip-path="url(#p47acd03e58)" style="fill: none; stroke-dasharray: 3.6,2.7; stroke-dashoffset: 0; stroke: #7c8f80; stroke-width: 0.9"/></g><g id="FillBetweenPolyCollection_4"><defs><path id="m4bc9e90b13" d="M 206.5 -37.4 L 206.5 -40.6 L 227.2 -156.2 L 256.0 -156.2 L 272.5 -40.6 L 282.8 -149.1 L 291.1 -149.1 L 293.1 -45.1 L 303.4 -137.5 L 311.7 -137.5 L 313.7 -45.1 L 322.0 -57.9 L 334.3 -57.9 L 340.5 -40.6 L 340.5 -37.4 L 340.5 -37.4 L 334.3 -37.4 L 322.0 -37.4 L 313.7 -37.4 L 311.7 -37.4 L 303.4 -37.4 L 293.1 -37.4 L 291.1 -37.4 L 282.8 -37.4 L 272.5 -37.4 L 256.0 -37.4 L 227.2 -37.4 L 206.5 -37.4 z"/></defs><g clip-path="url(#p47acd03e58)"><use xlink:href="#m4bc9e90b13" x="0" y="374.4" style="fill: #8e3b46; fill-opacity: 0.08"/></g></g><g id="matplotlib.axis_7"/><g id="matplotlib.axis_8"/><g id="patch_11"><path d="M 206.5 336.9 L 346.7 336.9" style="fill: none; stroke: #35513f; stroke-linejoin: miter; stroke-linecap: square"/></g><g id="text_14"><g style="fill: #0d2418" transform="translate(206.592 202.550083) scale(0.13 -0.13)"><defs><path id="AnekLatin-Medium-44" d="M 893 0 L 893 541 L 1862 541 Q 2368 541 2622 816 Q 2877 1091 2877 1603 L 2877 2493 Q 2877 3008 2622 3281 Q 2368 3555 1862 3555 L 890 3555 L 890 4090 L 1885 4090 Q 2698 4090 3110 3678 Q 3523 3267 3523 2496 L 3523 1600 Q 3523 829 3110 414 Q 2698 0 1885 0 L 893 0 z M 454 0 L 454 4090 L 1088 4090 L 1088 0 L 454 0 z" transform="scale(0.015625)"/><path id="AnekLatin-Medium-62" d="M 2026 -70 Q 1747 -70 1545 18 Q 1344 106 1217 267 Q 1091 429 1034 643 L 826 643 L 1008 1235 Q 1021 973 1126 798 Q 1232 624 1414 537 Q 1597 451 1830 451 Q 2189 451 2377 660 Q 2566 870 2566 1286 L 2566 1872 Q 2566 2275 2376 2483 Q 2186 2691 1824 2691 Q 1603 2691 1433 2608 Q 1264 2525 1153 2382 Q 1043 2240 998 2058 L 861 2486 L 1040 2486 Q 1094 2685 1211 2846 Q 1328 3008 1533 3104 Q 1738 3200 2051 3200 Q 2611 3200 2904 2848 Q 3197 2496 3197 1821 L 3197 1325 Q 3197 643 2899 286 Q 2602 -70 2026 -70 z M 397 0 L 397 4237 L 1021 4237 L 1021 3238 L 1005 2339 L 1008 2230 L 1008 931 L 998 733 L 1024 0 L 397 0 z" transform="scale(0.015625)"/></defs><use xlink:href="#AnekLatin-Medium-44"/><use xlink:href="#AnekLatin-Medium-20" transform="translate(59.75 0)"/><use xlink:href="#AnekLatin-Medium-20" transform="translate(80.550003 0)"/><use xlink:href="#AnekLatin-Medium-64" transform="translate(101.350006 0)"/><use xlink:href="#AnekLatin-Medium-6f" transform="translate(155.650009 0)"/><use xlink:href="#AnekLatin-Medium-75" transform="translate(208.200012 0)"/><use xlink:href="#AnekLatin-Medium-62" transform="translate(262.200012 0)"/><use xlink:href="#AnekLatin-Medium-6c" transform="translate(316.500015 0)"/><use xlink:href="#AnekLatin-Medium-65" transform="translate(339.100021 0)"/><use xlink:href="#AnekLatin-Medium-20" transform="translate(389.700027 0)"/><use xlink:href="#AnekLatin-Medium-68" transform="translate(410.500031 0)"/><use xlink:href="#AnekLatin-Medium-61" transform="translate(464.500031 0)"/><use xlink:href="#AnekLatin-Medium-72" transform="translate(514.600037 0)"/><use xlink:href="#AnekLatin-Medium-64" transform="translate(552.300034 0)"/><use xlink:href="#AnekLatin-Medium-65" transform="translate(606.600037 0)"/><use xlink:href="#AnekLatin-Medium-6e" transform="translate(657.200043 0)"/><use xlink:href="#AnekLatin-Medium-69" transform="translate(711.200043 0)"/><use xlink:href="#AnekLatin-Medium-6e" transform="translate(733.700043 0)"/><use xlink:href="#AnekLatin-Medium-67" transform="translate(787.700043 0)"/></g></g><g id="line2d_21"><path d="M 206.5 333.7 L 227.2 218.1 L 256.0 218.1 L 272.5 333.7 L 282.8 225.2 L 291.1 225.2 L 293.1 329.2 L 303.4 236.8 L 311.7 236.8 L 313.7 329.2 L 322.0 316.4 L 334.3 316.4 L 340.5 333.7" clip-path="url(#p47acd03e58)" style="fill: none; stroke: #8e3b46; stroke-width: 2; stroke-linecap: round"/></g><g id="line2d_22"><path d="M 293.1 327.9" clip-path="url(#p47acd03e58)" style="fill: none; stroke: #b0241a; stroke-width: 1.8; stroke-linecap: round"/><g clip-path="url(#p47acd03e58)"><use xlink:href="#m3f6e1cc4be" x="293.161412" y="327.971306" style="fill: #b0241a; stroke: #b0241a; stroke-linejoin: miter"/></g></g><g id="line2d_23"><path d="M 313.7 327.9" clip-path="url(#p47acd03e58)" style="fill: none; stroke: #b0241a; stroke-width: 1.8; stroke-linecap: round"/><g clip-path="url(#p47acd03e58)"><use xlink:href="#m3f6e1cc4be" x="313.773176" y="327.971306" style="fill: #b0241a; stroke: #b0241a; stroke-linejoin: miter"/></g></g><g id="text_15"><g style="fill: #35513f" transform="translate(349.843765 246.426185) scale(0.115 -0.115)"><use xlink:href="#AnekLatin-Regular-41" transform="translate(0 0.09375)"/><use xlink:href="#AnekLatin-Regular-31" transform="translate(58.903948 -14.545312) scale(0.7)"/></g></g><g id="text_16"><g style="fill: #35513f" transform="translate(349.843765 228.063567) scale(0.115 -0.115)"><use xlink:href="#AnekLatin-Regular-63" transform="translate(0 0.09375)"/><use xlink:href="#AnekLatin-Regular-6f" transform="translate(43.400009 0.09375)"/><use xlink:href="#AnekLatin-Regular-72" transform="translate(95.400009 0.09375)"/><use xlink:href="#AnekLatin-Regular-65" transform="translate(132.700012 0.09375)"/><use xlink:href="#AnekLatin-Regular-20" transform="translate(182.650024 0.09375)"/><use xlink:href="#AnekLatin-Regular-41" transform="translate(203.700027 0.09375)"/><use xlink:href="#AnekLatin-Regular-33" transform="translate(262.603976 -14.545312) scale(0.7)"/></g></g></g><g id="line2d_24"><defs><path id="m5df7ef4348" d="M -0 3.5 L 3.5 -3.5 L -3.5 -3.5 z" style="stroke: #b0241a; stroke-linejoin: miter"/></defs><g><use xlink:href="#m5df7ef4348" x="52.416" y="359.7984" style="fill: #b0241a; stroke: #b0241a; stroke-linejoin: miter"/></g></g><g id="text_17"><g style="fill: #35513f" transform="translate(58.0608 364.116195) scale(0.115 -0.115)"><defs><path id="AnekLatin-Regular-71" d="M 1453 -67 Q 890 -67 595 281 Q 301 630 301 1299 L 301 1814 Q 301 2486 600 2840 Q 899 3194 1475 3194 Q 1763 3194 1976 3096 Q 2189 2998 2321 2822 Q 2454 2646 2496 2406 L 2669 2406 L 2509 1930 Q 2499 2211 2380 2398 Q 2262 2586 2068 2678 Q 1875 2771 1626 2771 Q 1235 2771 1027 2540 Q 819 2310 819 1856 L 819 1267 Q 819 826 1028 595 Q 1238 365 1632 365 Q 1872 365 2054 456 Q 2237 547 2357 708 Q 2477 870 2522 1075 L 2640 704 L 2493 704 Q 2445 493 2320 317 Q 2195 141 1982 37 Q 1770 -67 1453 -67 z M 2499 -1101 L 2499 -86 L 2515 803 L 2509 906 L 2509 2211 L 2518 2371 L 2496 3123 L 3014 3123 L 3014 -1101 L 2499 -1101 z" transform="scale(0.015625)"/><path id="AnekLatin-Regular-75" d="M 899 3123 L 899 1181 Q 899 934 968 750 Q 1037 566 1193 465 Q 1350 365 1616 365 Q 1866 365 2045 456 Q 2224 547 2337 707 Q 2451 867 2493 1069 L 2586 701 L 2474 701 Q 2426 490 2298 315 Q 2170 141 1954 37 Q 1738 -67 1421 -67 Q 1053 -67 824 72 Q 595 211 489 478 Q 384 746 384 1123 L 384 3123 L 899 3123 z M 2989 3123 L 2989 0 L 2470 0 L 2493 749 L 2470 781 L 2470 3123 L 2989 3123 z" transform="scale(0.015625)"/><path id="AnekLatin-Regular-6e" d="M 2512 0 L 2512 1942 Q 2512 2195 2443 2377 Q 2374 2560 2219 2661 Q 2064 2762 1795 2762 Q 1549 2762 1368 2669 Q 1187 2576 1075 2417 Q 963 2259 918 2058 L 826 2426 L 938 2426 Q 989 2637 1117 2811 Q 1245 2986 1461 3090 Q 1677 3194 1990 3194 Q 2362 3194 2590 3053 Q 2819 2912 2924 2648 Q 3030 2384 3030 2000 L 3030 0 L 2512 0 z M 422 0 L 422 3123 L 941 3123 L 918 2374 L 941 2346 L 941 0 L 422 0 z" transform="scale(0.015625)"/><path id="AnekLatin-Regular-68" d="M 2512 0 L 2512 1942 Q 2512 2195 2443 2377 Q 2374 2560 2219 2661 Q 2064 2762 1795 2762 Q 1549 2762 1369 2669 Q 1190 2576 1080 2417 Q 970 2259 925 2058 L 810 2426 L 944 2426 Q 992 2637 1120 2811 Q 1248 2986 1464 3090 Q 1680 3194 1990 3194 Q 2362 3194 2590 3053 Q 2819 2912 2924 2648 Q 3030 2384 3030 2000 L 3030 0 L 2512 0 z M 422 0 L 422 4240 L 938 4240 L 938 3222 L 922 2326 L 941 2285 L 941 0 L 422 0 z" transform="scale(0.015625)"/></defs><use xlink:href="#AnekLatin-Regular-71"/><use xlink:href="#AnekLatin-Regular-75" transform="translate(53.700012 0)"/><use xlink:href="#AnekLatin-Regular-65" transform="translate(107.000015 0)"/><use xlink:href="#AnekLatin-Regular-6e" transform="translate(156.950027 0)"/><use xlink:href="#AnekLatin-Regular-63" transform="translate(210.250031 0)"/><use xlink:href="#AnekLatin-Regular-68" transform="translate(253.65004 0)"/></g></g><g id="text_18"><g style="fill: #35513f" transform="translate(105.5268 364.156625) scale(0.115 -0.115)"><defs><path id="AnekLatin-Regular-74" d="M 1558 -64 Q 1197 -64 976 45 Q 755 154 656 374 Q 557 595 557 925 L 557 2896 L 1069 2896 L 1069 986 Q 1069 678 1209 532 Q 1350 387 1683 387 Q 1872 387 2046 428 Q 2221 470 2374 547 L 2326 102 Q 2176 26 1974 -19 Q 1773 -64 1558 -64 z M 45 2662 L 45 3078 L 2342 3078 L 2294 2662 L 45 2662 z M 560 3027 L 557 3904 L 1078 3971 L 1056 3027 L 560 3027 z" transform="scale(0.015625)"/><path id="AnekLatin-Regular-61" d="M 2275 0 L 2298 758 L 2278 838 L 2278 1834 L 2282 2016 Q 2282 2397 2088 2579 Q 1894 2762 1475 2762 Q 1139 2762 859 2666 Q 579 2570 362 2442 L 410 2883 Q 531 2957 699 3029 Q 867 3101 1083 3149 Q 1299 3197 1558 3197 Q 1894 3197 2129 3115 Q 2365 3034 2510 2880 Q 2656 2726 2723 2508 Q 2790 2291 2790 2022 L 2790 0 L 2275 0 z M 1200 -67 Q 736 -67 488 158 Q 240 384 240 803 L 240 896 Q 240 1328 507 1541 Q 774 1754 1357 1837 L 2346 1978 L 2374 1600 L 1421 1462 Q 1062 1411 908 1288 Q 755 1165 755 925 L 755 874 Q 755 627 907 496 Q 1059 365 1363 365 Q 1632 365 1824 457 Q 2016 550 2134 707 Q 2253 864 2294 1056 L 2374 704 L 2275 704 Q 2230 499 2107 323 Q 1984 147 1763 40 Q 1542 -67 1200 -67 z" transform="scale(0.015625)"/><path id="AnekLatin-Regular-6c" d="M 438 0 L 438 4240 L 954 4240 L 954 0 L 438 0 z" transform="scale(0.015625)"/><path id="AnekLatin-Regular-77" d="M 947 0 L 179 3123 L 714 3123 L 1328 378 L 1389 378 L 2029 3040 L 2762 3040 L 3402 378 L 3459 378 L 4080 3123 L 4611 3123 L 3843 0 L 3050 0 L 2522 2221 L 2419 2666 L 2371 2666 L 2272 2221 L 1744 0 L 947 0 z" transform="scale(0.015625)"/><path id="AnekLatin-Regular-6d" d="M 4323 0 L 4323 1955 Q 4323 2202 4260 2382 Q 4198 2563 4056 2662 Q 3914 2762 3674 2762 Q 3446 2762 3280 2669 Q 3114 2576 3011 2421 Q 2909 2266 2867 2067 L 2787 2435 L 2851 2435 Q 2902 2637 3024 2809 Q 3146 2982 3354 3088 Q 3562 3194 3869 3194 Q 4218 3194 4430 3056 Q 4643 2918 4742 2654 Q 4842 2390 4842 2013 L 4842 0 L 4323 0 z M 422 0 L 422 3123 L 941 3123 L 918 2374 L 941 2342 L 941 0 L 422 0 z M 2374 0 L 2374 1955 Q 2374 2202 2312 2382 Q 2250 2563 2109 2662 Q 1968 2762 1728 2762 Q 1498 2762 1331 2669 Q 1165 2576 1062 2417 Q 960 2259 918 2058 L 822 2426 L 938 2426 Q 986 2637 1104 2811 Q 1222 2986 1425 3090 Q 1629 3194 1920 3194 Q 2352 3194 2577 2970 Q 2803 2746 2861 2317 Q 2877 2253 2883 2177 Q 2890 2102 2890 2029 L 2890 0 L 2374 0 z" transform="scale(0.015625)"/><path id="AnekLatin-Regular-70" d="M 1962 -67 Q 1674 -67 1462 29 Q 1251 125 1120 304 Q 989 483 944 720 L 774 720 L 925 1206 Q 938 925 1051 737 Q 1165 550 1360 457 Q 1555 365 1802 365 Q 2195 365 2404 595 Q 2614 826 2614 1270 L 2614 1869 Q 2614 2310 2406 2540 Q 2198 2771 1802 2771 Q 1565 2771 1382 2678 Q 1200 2586 1080 2426 Q 960 2266 915 2061 L 787 2422 L 938 2422 Q 989 2637 1112 2811 Q 1235 2986 1451 3090 Q 1667 3194 1984 3194 Q 2547 3194 2841 2843 Q 3136 2493 3136 1827 L 3136 1309 Q 3136 637 2840 285 Q 2544 -67 1962 -67 z M 422 -1101 L 422 3123 L 941 3123 L 918 2371 L 925 2211 L 925 896 L 922 790 L 938 -86 L 938 -1101 L 422 -1101 z" transform="scale(0.015625)"/><path id="AnekLatin-Regular-2c" d="M 861 867 Q 870 806 881 708 Q 893 611 893 499 Q 893 115 785 -211 Q 678 -538 419 -842 L 61 -726 Q 227 -461 307 -169 Q 387 122 387 477 Q 387 582 380 676 Q 374 771 362 867 L 861 867 z" transform="scale(0.015625)"/><path id="AnekLatin-Regular-7e" d="M 2390 1533 Q 2208 1533 2035 1590 Q 1862 1648 1700 1721 Q 1539 1795 1387 1852 Q 1235 1910 1098 1910 Q 931 1910 859 1809 Q 787 1709 787 1520 L 787 1466 L 400 1466 L 400 1578 Q 400 1939 552 2142 Q 704 2346 1066 2346 Q 1248 2346 1419 2288 Q 1590 2230 1753 2155 Q 1917 2080 2067 2024 Q 2218 1968 2358 1968 Q 2528 1968 2597 2067 Q 2666 2166 2666 2355 L 2666 2410 L 3056 2410 L 3056 2298 Q 3056 1933 2902 1733 Q 2749 1533 2390 1533 z" transform="scale(0.015625)"/><path id="AnekLatin-Regular-36" d="M 1792 -77 Q 1328 -77 1000 104 Q 672 285 499 643 Q 326 1002 326 1530 L 326 2506 Q 326 3293 715 3726 Q 1104 4160 1862 4160 Q 2240 4160 2501 4080 Q 2762 4000 2941 3907 L 2995 3424 Q 2858 3504 2706 3566 Q 2554 3629 2370 3664 Q 2186 3699 1946 3699 Q 1395 3699 1124 3392 Q 854 3085 854 2490 L 854 1472 Q 854 1104 966 857 Q 1078 611 1289 489 Q 1501 368 1802 368 Q 2230 368 2435 597 Q 2640 826 2640 1184 L 2640 1376 Q 2640 1629 2561 1809 Q 2483 1990 2310 2089 Q 2138 2189 1859 2189 Q 1597 2189 1390 2093 Q 1184 1997 1041 1819 Q 899 1642 829 1398 L 778 1846 L 870 1846 Q 938 2064 1080 2238 Q 1222 2413 1452 2513 Q 1683 2614 2010 2614 Q 2586 2614 2875 2291 Q 3165 1968 3165 1386 L 3165 1178 Q 3165 611 2819 267 Q 2474 -77 1792 -77 z" transform="scale(0.015625)"/><path id="AnekLatin-Regular-b0" d="M 1046 2515 Q 672 2515 469 2731 Q 266 2947 266 3325 L 266 3363 Q 266 3738 469 3952 Q 672 4166 1046 4166 Q 1424 4166 1627 3952 Q 1830 3738 1830 3363 L 1830 3325 Q 1830 2947 1627 2731 Q 1424 2515 1046 2515 z M 1046 2861 Q 1242 2861 1339 2982 Q 1437 3104 1437 3322 L 1437 3363 Q 1437 3581 1339 3702 Q 1242 3824 1046 3824 Q 858 3824 757 3702 Q 656 3581 656 3363 L 656 3322 Q 656 3104 757 2982 Q 858 2861 1046 2861 z" transform="scale(0.015625)"/><path id="AnekLatin-Regular-43" d="M 1850 -74 Q 1091 -74 712 352 Q 333 778 333 1562 L 333 2531 Q 333 3315 710 3739 Q 1088 4163 1843 4163 Q 2086 4163 2286 4118 Q 2486 4074 2643 4003 Q 2800 3933 2909 3856 L 2954 3363 Q 2765 3498 2510 3598 Q 2256 3699 1914 3699 Q 1398 3699 1136 3393 Q 874 3088 874 2525 L 874 1581 Q 874 1021 1139 712 Q 1405 403 1933 403 Q 2272 403 2533 502 Q 2794 602 2986 746 L 2941 240 Q 2832 163 2672 89 Q 2512 16 2305 -29 Q 2099 -74 1850 -74 z" transform="scale(0.015625)"/><path id="AnekLatin-Regular-3b" d="M 893 867 Q 902 806 913 708 Q 925 611 925 499 Q 925 115 817 -211 Q 710 -538 454 -842 L 93 -726 Q 259 -461 339 -169 Q 419 122 419 477 Q 419 582 414 676 Q 410 771 397 867 L 893 867 z M 640 2211 Q 477 2211 397 2304 Q 317 2397 317 2560 L 317 2592 Q 317 2758 397 2848 Q 477 2938 640 2938 Q 803 2938 884 2848 Q 966 2758 966 2592 L 966 2560 Q 966 2397 884 2304 Q 803 2211 640 2211 z" transform="scale(0.015625)"/><path id="AnekLatin-Regular-69" d="M 432 0 L 432 3123 L 950 3123 L 950 0 L 432 0 z M 691 3635 Q 531 3635 452 3720 Q 374 3805 374 3952 L 374 3968 Q 374 4118 452 4201 Q 531 4285 691 4285 Q 851 4285 931 4201 Q 1011 4118 1011 3968 L 1011 3952 Q 1011 3802 931 3718 Q 851 3635 691 3635 z" transform="scale(0.015625)"/><path id="AnekLatin-Regular-73" d="M 1398 -70 Q 1021 -70 739 11 Q 458 93 272 189 L 224 669 Q 458 547 738 457 Q 1018 368 1373 368 Q 1734 368 1916 483 Q 2099 598 2099 826 L 2099 861 Q 2099 1008 2030 1104 Q 1962 1200 1782 1273 Q 1603 1347 1274 1421 Q 880 1507 653 1624 Q 426 1741 328 1913 Q 230 2086 230 2336 L 230 2365 Q 230 2774 515 2985 Q 800 3197 1373 3197 Q 1741 3197 2011 3113 Q 2282 3030 2454 2928 L 2502 2490 Q 2294 2611 2025 2691 Q 1757 2771 1421 2771 Q 1178 2771 1027 2721 Q 877 2672 809 2581 Q 742 2490 742 2362 L 742 2336 Q 742 2195 809 2097 Q 877 2000 1051 1928 Q 1226 1856 1536 1789 Q 1936 1709 2171 1597 Q 2406 1485 2508 1313 Q 2611 1142 2611 874 L 2611 819 Q 2611 378 2304 154 Q 1997 -70 1398 -70 z" transform="scale(0.015625)"/></defs><use xlink:href="#AnekLatin-Regular-74"/><use xlink:href="#AnekLatin-Regular-68" transform="translate(39.550003 0)"/><use xlink:href="#AnekLatin-Regular-65" transform="translate(92.850006 0)"/><use xlink:href="#AnekLatin-Regular-6e" transform="translate(142.800018 0)"/><use xlink:href="#AnekLatin-Regular-20" transform="translate(196.100021 0)"/><use xlink:href="#AnekLatin-Regular-61" transform="translate(217.150024 0)"/><use xlink:href="#AnekLatin-Regular-20" transform="translate(266.550034 0)"/><use xlink:href="#AnekLatin-Regular-6c" transform="translate(287.600037 0)"/><use xlink:href="#AnekLatin-Regular-6f" transform="translate(309.350037 0)"/><use xlink:href="#AnekLatin-Regular-77" transform="translate(361.350037 0)"/><use xlink:href="#AnekLatin-Regular-20" transform="translate(436.200043 0)"/><use xlink:href="#AnekLatin-Regular-74" transform="translate(457.250046 0)"/><use xlink:href="#AnekLatin-Regular-65" transform="translate(496.800049 0)"/><use xlink:href="#AnekLatin-Regular-6d" transform="translate(546.750061 0)"/><use xlink:href="#AnekLatin-Regular-70" transform="translate(628.350067 0)"/><use xlink:href="#AnekLatin-Regular-65" transform="translate(682.050079 0)"/><use xlink:href="#AnekLatin-Regular-72" transform="translate(732.000092 0)"/><use xlink:href="#AnekLatin-Regular-2c" transform="translate(769.300095 0)"/><use xlink:href="#AnekLatin-Regular-20" transform="translate(788.100098 0)"/><use xlink:href="#AnekLatin-Regular-7e" transform="translate(809.150101 0)"/><use xlink:href="#AnekLatin-Regular-31" transform="translate(863.150101 0)"/><use xlink:href="#AnekLatin-Regular-36" transform="translate(896.750107 0)"/><use xlink:href="#AnekLatin-Regular-30" transform="translate(950.80011 0)"/><use xlink:href="#AnekLatin-Regular-20" transform="translate(1007.400116 0)"/><use xlink:href="#AnekLatin-Regular-b0" transform="translate(1028.450119 0)"/><use xlink:href="#AnekLatin-Regular-43" transform="translate(1061.150116 0)"/><use xlink:href="#AnekLatin-Regular-3b" transform="translate(1111.900116 0)"/><use xlink:href="#AnekLatin-Regular-20" transform="translate(1131.80011 0)"/><use xlink:href="#AnekLatin-Regular-74" transform="translate(1152.850113 0)"/><use xlink:href="#AnekLatin-Regular-69" transform="translate(1192.400116 0)"/><use xlink:href="#AnekLatin-Regular-6d" transform="translate(1214.05011 0)"/><use xlink:href="#AnekLatin-Regular-65" transform="translate(1295.650116 0)"/><use xlink:href="#AnekLatin-Regular-20" transform="translate(1345.600128 0)"/><use xlink:href="#AnekLatin-Regular-6e" transform="translate(1366.650131 0)"/><use xlink:href="#AnekLatin-Regular-6f" transform="translate(1419.950134 0)"/><use xlink:href="#AnekLatin-Regular-74" transform="translate(1471.950134 0)"/><use xlink:href="#AnekLatin-Regular-20" transform="translate(1511.500137 0)"/><use xlink:href="#AnekLatin-Regular-74" transform="translate(1532.55014 0)"/><use xlink:href="#AnekLatin-Regular-6f" transform="translate(1572.100143 0)"/><use xlink:href="#AnekLatin-Regular-20" transform="translate(1624.100143 0)"/><use xlink:href="#AnekLatin-Regular-73" transform="translate(1645.150146 0)"/><use xlink:href="#AnekLatin-Regular-63" transform="translate(1689.250153 0)"/><use xlink:href="#AnekLatin-Regular-61" transform="translate(1732.650162 0)"/><use xlink:href="#AnekLatin-Regular-6c" transform="translate(1782.050171 0)"/><use xlink:href="#AnekLatin-Regular-65" transform="translate(1803.800171 0)"/></g></g></g><defs><clipPath id="pd392941fcc"><rect x="52.416" y="26.208" width="140.16" height="128.409917"/></clipPath><clipPath id="p249738f706"><rect x="206.592" y="26.208" width="140.16" height="128.409917"/></clipPath><clipPath id="p2b46ab0ec2"><rect x="52.416" y="208.550083" width="140.16" height="128.409917"/></clipPath><clipPath id="p47acd03e58"><rect x="206.592" y="208.550083" width="140.16" height="128.409917"/></clipPath></defs></svg> 